<svg width="86" height="86" viewBox="0 0 86 86" fill="none" xmlns="http://www.w3.org/2000/svg">
<path fill-rule="evenodd" clip-rule="evenodd" d="M43.0002 3.58325C64.7694 3.58325 82.4168 21.2307 82.4168 42.9999C82.4168 64.7691 64.7694 82.4166 43.0002 82.4166C21.2309 82.4166 3.5835 64.7691 3.5835 42.9999C3.5835 21.2307 21.2309 3.58325 43.0002 3.58325ZM10.9855 39.0843C12.0299 40.4214 14.9348 42.1325 19.3801 43.5285C21.1302 44.078 23.0469 44.5612 25.1034 44.9714C25.0902 44.3181 25.0835 43.6608 25.0835 42.9999C25.0835 31.0759 27.2534 20.3078 31.0123 13.0515C20.2967 17.3447 12.4212 27.2222 10.9855 39.0843ZM25.5462 52.3553C19.7921 51.3551 14.8582 49.8413 11.1191 47.8937C12.8584 59.319 20.5927 68.7737 31.0123 72.9483C28.2679 67.6504 26.3705 60.4804 25.5462 52.3553ZM32.8912 53.3103C36.106 53.5999 39.4919 53.7499 43.0005 53.7499C46.4523 53.7499 49.8532 53.5542 53.1241 53.1914C51.5077 66.0827 47.0386 75.2499 43.0002 75.2499C38.9742 75.2499 34.5201 66.139 32.8912 53.3103ZM53.701 45.8828C50.2986 46.3234 46.6842 46.5832 43.0005 46.5832C39.2586 46.5832 35.6667 46.3979 32.305 46.0465C32.2689 45.0444 32.2502 44.0282 32.2502 42.9999C32.2502 25.0259 37.9606 10.7499 43.0002 10.7499C48.0398 10.7499 53.7502 25.0259 53.7502 42.9999C53.7502 43.9722 53.7335 44.9338 53.701 45.8828ZM60.4841 52.0546C59.6765 60.3035 57.7662 67.5852 54.988 72.9483C65.5914 68.7001 73.414 58.9838 74.9677 47.2873C71.1687 49.2632 66.1653 50.9155 60.4841 52.0546ZM74.994 38.9157C73.3075 40.8084 67.9889 43.0565 60.9033 44.6273C60.9123 44.0874 60.9168 43.5448 60.9168 42.9999C60.9168 31.0759 58.7469 20.3078 54.988 13.0515C65.6528 17.3243 73.5044 27.1287 74.994 38.9157Z" fill="white"/>
</svg>
