<svg xmlns="http://www.w3.org/2000/svg" xmlns:xlink="http://www.w3.org/1999/xlink" style="margin:auto;background:#000000;display:block;z-index:1;position:relative" width="1084" height="322" preserveAspectRatio="xMidYMid" viewBox="0 0 1084 322">
<defs>
  <pattern id="pid-0.14899995594245086" x="0" y="0" width="680.96" height="680.96" patternUnits="userSpaceOnUse">
    <g transform="scale(2.66)"><defs>
  <filter id="pat-0.6494063220700093" x="-100%" y="-100%" width="300%" height="300%" color-interpolation-filters="sRGB">
    <feGaussianBlur in="SourceGraphic" stdDeviation="10"></feGaussianBlur>
    <feComponentTransfer result="cutoff">
      <feFuncA type="linear" slope="60" intercept="-40"></feFuncA>
    </feComponentTransfer>
  </filter>
</defs><g style="isolation:isolate" filter="url(#pat-0.6494063220700093)"><g>
  <circle cx="-214.49158744804095" cy="139.73208666148395" r="39.80639412687246" fill="#000000"></circle> <circle cx="41.508412551959054" cy="139.73208666148395" r="39.80639412687246" fill="#000000"></circle> <circle cx="297.50841255195905" cy="139.73208666148395" r="39.80639412687246" fill="#000000"></circle> <circle cx="-214.49158744804095" cy="395.73208666148395" r="39.80639412687246" fill="#000000"></circle> <circle cx="41.508412551959054" cy="395.73208666148395" r="39.80639412687246" fill="#000000"></circle> <circle cx="297.50841255195905" cy="395.73208666148395" r="39.80639412687246" fill="#000000"></circle> <circle cx="-214.49158744804095" cy="651.7320866614839" r="39.80639412687246" fill="#000000"></circle> <circle cx="41.508412551959054" cy="651.7320866614839" r="39.80639412687246" fill="#000000"></circle> <circle cx="297.50841255195905" cy="651.7320866614839" r="39.80639412687246" fill="#000000"></circle> <circle cx="-238.28546174036205" cy="120.08552517056035" r="37.118737027807754" fill="#000000"></circle> <circle cx="17.714538259637948" cy="120.08552517056035" r="37.118737027807754" fill="#000000"></circle> <circle cx="273.71453825963795" cy="120.08552517056035" r="37.118737027807754" fill="#000000"></circle> <circle cx="-238.28546174036205" cy="376.08552517056035" r="37.118737027807754" fill="#000000"></circle> <circle cx="17.714538259637948" cy="376.08552517056035" r="37.118737027807754" fill="#000000"></circle> <circle cx="273.71453825963795" cy="376.08552517056035" r="37.118737027807754" fill="#000000"></circle> <circle cx="-238.28546174036205" cy="632.0855251705603" r="37.118737027807754" fill="#000000"></circle> <circle cx="17.714538259637948" cy="632.0855251705603" r="37.118737027807754" fill="#000000"></circle> <circle cx="273.71453825963795" cy="632.0855251705603" r="37.118737027807754" fill="#000000"></circle> <circle cx="-149.4230404818374" cy="122.25875618083245" r="35.5653312309883" fill="#000000"></circle> <circle cx="106.5769595181626" cy="122.25875618083245" r="35.5653312309883" fill="#000000"></circle> <circle cx="362.5769595181626" cy="122.25875618083245" r="35.5653312309883" fill="#000000"></circle> <circle cx="-149.4230404818374" cy="378.25875618083245" r="35.5653312309883" fill="#000000"></circle> <circle cx="106.5769595181626" cy="378.25875618083245" r="35.5653312309883" fill="#000000"></circle> <circle cx="362.5769595181626" cy="378.25875618083245" r="35.5653312309883" fill="#000000"></circle> <circle cx="-149.4230404818374" cy="634.2587561808325" r="35.5653312309883" fill="#000000"></circle> <circle cx="106.5769595181626" cy="634.2587561808325" r="35.5653312309883" fill="#000000"></circle> <circle cx="362.5769595181626" cy="634.2587561808325" r="35.5653312309883" fill="#000000"></circle> <circle cx="-96.01068670953447" cy="-25.653172802384972" r="39.39546558741664" fill="#000000"></circle> <circle cx="159.98931329046553" cy="-25.653172802384972" r="39.39546558741664" fill="#000000"></circle> <circle cx="415.98931329046553" cy="-25.653172802384972" r="39.39546558741664" fill="#000000"></circle> <circle cx="-96.01068670953447" cy="230.34682719761503" r="39.39546558741664" fill="#000000"></circle> <circle cx="159.98931329046553" cy="230.34682719761503" r="39.39546558741664" fill="#000000"></circle> <circle cx="415.98931329046553" cy="230.34682719761503" r="39.39546558741664" fill="#000000"></circle> <circle cx="-96.01068670953447" cy="486.346827197615" r="39.39546558741664" fill="#000000"></circle> <circle cx="159.98931329046553" cy="486.346827197615" r="39.39546558741664" fill="#000000"></circle> <circle cx="415.98931329046553" cy="486.346827197615" r="39.39546558741664" fill="#000000"></circle> <circle cx="-96.01068670953447" cy="742.3468271976151" r="39.39546558741664" fill="#000000"></circle> <circle cx="159.98931329046553" cy="742.3468271976151" r="39.39546558741664" fill="#000000"></circle> <circle cx="415.98931329046553" cy="742.3468271976151" r="39.39546558741664" fill="#000000"></circle>
  <animateTransform attributeName="transform" type="translate" dur="20s" repeatCount="indefinite" keyTimes="0;1" values="0 0;0 -256"></animateTransform>
</g><g>
  <circle cx="-105.85854306494173" cy="148.00925797216286" r="40.01084438175035" fill="#ffffff"></circle> <circle cx="150.14145693505827" cy="148.00925797216286" r="40.01084438175035" fill="#ffffff"></circle> <circle cx="406.1414569350583" cy="148.00925797216286" r="40.01084438175035" fill="#ffffff"></circle> <circle cx="-105.85854306494173" cy="404.00925797216286" r="40.01084438175035" fill="#ffffff"></circle> <circle cx="150.14145693505827" cy="404.00925797216286" r="40.01084438175035" fill="#ffffff"></circle> <circle cx="406.1414569350583" cy="404.00925797216286" r="40.01084438175035" fill="#ffffff"></circle> <circle cx="-105.85854306494173" cy="660.0092579721629" r="40.01084438175035" fill="#ffffff"></circle> <circle cx="150.14145693505827" cy="660.0092579721629" r="40.01084438175035" fill="#ffffff"></circle> <circle cx="406.1414569350583" cy="660.0092579721629" r="40.01084438175035" fill="#ffffff"></circle> <circle cx="-217.1916683304931" cy="30.179780927313345" r="45.39279557630688" fill="#ffffff"></circle> <circle cx="38.80833166950691" cy="30.179780927313345" r="45.39279557630688" fill="#ffffff"></circle> <circle cx="294.8083316695069" cy="30.179780927313345" r="45.39279557630688" fill="#ffffff"></circle> <circle cx="-217.1916683304931" cy="286.17978092731335" r="45.39279557630688" fill="#ffffff"></circle> <circle cx="38.80833166950691" cy="286.17978092731335" r="45.39279557630688" fill="#ffffff"></circle> <circle cx="294.8083316695069" cy="286.17978092731335" r="45.39279557630688" fill="#ffffff"></circle> <circle cx="-217.1916683304931" cy="542.1797809273133" r="45.39279557630688" fill="#ffffff"></circle> <circle cx="38.80833166950691" cy="542.1797809273133" r="45.39279557630688" fill="#ffffff"></circle> <circle cx="294.8083316695069" cy="542.1797809273133" r="45.39279557630688" fill="#ffffff"></circle> <circle cx="-212.97044545415991" cy="115.12620450448935" r="46.52561698516533" fill="#ffffff"></circle> <circle cx="43.029554545840085" cy="115.12620450448935" r="46.52561698516533" fill="#ffffff"></circle> <circle cx="299.0295545458401" cy="115.12620450448935" r="46.52561698516533" fill="#ffffff"></circle> <circle cx="-212.97044545415991" cy="371.12620450448935" r="46.52561698516533" fill="#ffffff"></circle> <circle cx="43.029554545840085" cy="371.12620450448935" r="46.52561698516533" fill="#ffffff"></circle> <circle cx="299.0295545458401" cy="371.12620450448935" r="46.52561698516533" fill="#ffffff"></circle> <circle cx="-212.97044545415991" cy="627.1262045044894" r="46.52561698516533" fill="#ffffff"></circle> <circle cx="43.029554545840085" cy="627.1262045044894" r="46.52561698516533" fill="#ffffff"></circle> <circle cx="299.0295545458401" cy="627.1262045044894" r="46.52561698516533" fill="#ffffff"></circle> <circle cx="-131.290046236842" cy="74.91645614951221" r="37.985000334419134" fill="#ffffff"></circle> <circle cx="124.70995376315801" cy="74.91645614951221" r="37.985000334419134" fill="#ffffff"></circle> <circle cx="380.709953763158" cy="74.91645614951221" r="37.985000334419134" fill="#ffffff"></circle> <circle cx="-131.290046236842" cy="330.9164561495122" r="37.985000334419134" fill="#ffffff"></circle> <circle cx="124.70995376315801" cy="330.9164561495122" r="37.985000334419134" fill="#ffffff"></circle> <circle cx="380.709953763158" cy="330.9164561495122" r="37.985000334419134" fill="#ffffff"></circle> <circle cx="-131.290046236842" cy="586.9164561495122" r="37.985000334419134" fill="#ffffff"></circle> <circle cx="124.70995376315801" cy="586.9164561495122" r="37.985000334419134" fill="#ffffff"></circle> <circle cx="380.709953763158" cy="586.9164561495122" r="37.985000334419134" fill="#ffffff"></circle>
  <animateTransform attributeName="transform" type="translate" dur="10s" repeatCount="indefinite" keyTimes="0;1" values="0 0;0 -256"></animateTransform>
</g><g>
  <circle cx="-117.29359473932408" cy="-7.591245565162694" r="34.77794328663334" fill="#000000"></circle> <circle cx="138.70640526067592" cy="-7.591245565162694" r="34.77794328663334" fill="#000000"></circle> <circle cx="394.7064052606759" cy="-7.591245565162694" r="34.77794328663334" fill="#000000"></circle> <circle cx="-117.29359473932408" cy="248.4087544348373" r="34.77794328663334" fill="#000000"></circle> <circle cx="138.70640526067592" cy="248.4087544348373" r="34.77794328663334" fill="#000000"></circle> <circle cx="394.7064052606759" cy="248.4087544348373" r="34.77794328663334" fill="#000000"></circle> <circle cx="-117.29359473932408" cy="504.4087544348373" r="34.77794328663334" fill="#000000"></circle> <circle cx="138.70640526067592" cy="504.4087544348373" r="34.77794328663334" fill="#000000"></circle> <circle cx="394.7064052606759" cy="504.4087544348373" r="34.77794328663334" fill="#000000"></circle> <circle cx="-117.29359473932408" cy="760.4087544348373" r="34.77794328663334" fill="#000000"></circle> <circle cx="138.70640526067592" cy="760.4087544348373" r="34.77794328663334" fill="#000000"></circle> <circle cx="394.7064052606759" cy="760.4087544348373" r="34.77794328663334" fill="#000000"></circle> <circle cx="-225.4485260415051" cy="89.32720823676186" r="50.397106239026016" fill="#000000"></circle> <circle cx="30.55147395849491" cy="89.32720823676186" r="50.397106239026016" fill="#000000"></circle> <circle cx="286.5514739584949" cy="89.32720823676186" r="50.397106239026016" fill="#000000"></circle> <circle cx="-225.4485260415051" cy="345.32720823676186" r="50.397106239026016" fill="#000000"></circle> <circle cx="30.55147395849491" cy="345.32720823676186" r="50.397106239026016" fill="#000000"></circle> <circle cx="286.5514739584949" cy="345.32720823676186" r="50.397106239026016" fill="#000000"></circle> <circle cx="-225.4485260415051" cy="601.3272082367619" r="50.397106239026016" fill="#000000"></circle> <circle cx="30.55147395849491" cy="601.3272082367619" r="50.397106239026016" fill="#000000"></circle> <circle cx="286.5514739584949" cy="601.3272082367619" r="50.397106239026016" fill="#000000"></circle> <circle cx="-198.64716993184476" cy="-29.634793238264876" r="45.00719519223096" fill="#000000"></circle> <circle cx="57.35283006815524" cy="-29.634793238264876" r="45.00719519223096" fill="#000000"></circle> <circle cx="313.35283006815524" cy="-29.634793238264876" r="45.00719519223096" fill="#000000"></circle> <circle cx="-198.64716993184476" cy="226.36520676173512" r="45.00719519223096" fill="#000000"></circle> <circle cx="57.35283006815524" cy="226.36520676173512" r="45.00719519223096" fill="#000000"></circle> <circle cx="313.35283006815524" cy="226.36520676173512" r="45.00719519223096" fill="#000000"></circle> <circle cx="-198.64716993184476" cy="482.3652067617351" r="45.00719519223096" fill="#000000"></circle> <circle cx="57.35283006815524" cy="482.3652067617351" r="45.00719519223096" fill="#000000"></circle> <circle cx="313.35283006815524" cy="482.3652067617351" r="45.00719519223096" fill="#000000"></circle> <circle cx="-198.64716993184476" cy="738.3652067617352" r="45.00719519223096" fill="#000000"></circle> <circle cx="57.35283006815524" cy="738.3652067617352" r="45.00719519223096" fill="#000000"></circle> <circle cx="313.35283006815524" cy="738.3652067617352" r="45.00719519223096" fill="#000000"></circle> <circle cx="-72.15866935250199" cy="83.8459358450437" r="45.59201401164469" fill="#000000"></circle> <circle cx="183.841330647498" cy="83.8459358450437" r="45.59201401164469" fill="#000000"></circle> <circle cx="439.841330647498" cy="83.8459358450437" r="45.59201401164469" fill="#000000"></circle> <circle cx="-72.15866935250199" cy="339.8459358450437" r="45.59201401164469" fill="#000000"></circle> <circle cx="183.841330647498" cy="339.8459358450437" r="45.59201401164469" fill="#000000"></circle> <circle cx="439.841330647498" cy="339.8459358450437" r="45.59201401164469" fill="#000000"></circle> <circle cx="-72.15866935250199" cy="595.8459358450436" r="45.59201401164469" fill="#000000"></circle> <circle cx="183.841330647498" cy="595.8459358450436" r="45.59201401164469" fill="#000000"></circle> <circle cx="439.841330647498" cy="595.8459358450436" r="45.59201401164469" fill="#000000"></circle>
  <animateTransform attributeName="transform" type="translate" dur="6.666666666666666s" repeatCount="indefinite" keyTimes="0;1" values="0 0;0 -256"></animateTransform>
</g></g></g>
  </pattern>
</defs>
<rect x="0" y="0" width="1084" height="322" fill="url(#pid-0.14899995594245086)"></rect>
</svg>
