<svg viewBox="0 0 280 186" fill="none" xmlns="http://www.w3.org/2000/svg">
<path d="M37.6679 162H43.3439V161.004H38.7839V152.82H37.6679V162ZM47.1516 162.156C48.9276 162.156 49.9956 160.812 49.9956 158.832C49.9956 156.876 49.0596 155.52 47.1756 155.52C45.4116 155.52 44.3316 156.876 44.3316 158.832C44.3316 160.812 45.2916 162.156 47.1516 162.156ZM47.1636 156.348C48.3756 156.348 48.8796 157.296 48.8796 158.832C48.8796 160.38 48.3636 161.316 47.1876 161.316C45.9636 161.316 45.4476 160.38 45.4476 158.832C45.4476 157.296 46.0116 156.348 47.1636 156.348ZM54.0774 162.156C55.8534 162.156 56.9214 160.812 56.9214 158.832C56.9214 156.876 55.9854 155.52 54.1014 155.52C52.3374 155.52 51.2574 156.876 51.2574 158.832C51.2574 160.812 52.2174 162.156 54.0774 162.156ZM54.0894 156.348C55.3014 156.348 55.8054 157.296 55.8054 158.832C55.8054 160.38 55.2894 161.316 54.1134 161.316C52.8894 161.316 52.3734 160.38 52.3734 158.832C52.3734 157.296 52.9374 156.348 54.0894 156.348ZM59.71 160.068L60.766 158.88L62.614 162H63.874L61.498 158.052L63.61 155.676H62.35L59.71 158.724V152.544H58.63V162H59.71V160.068ZM69.9229 156.504H71.4349V155.676H69.9229V154.392C69.9229 153.636 70.2229 153.408 70.8469 153.408C71.1229 153.408 71.3149 153.432 71.4349 153.456V152.568C71.2429 152.532 71.0029 152.508 70.7629 152.508C69.5869 152.508 68.8429 152.964 68.8429 154.26V155.676H67.6909V156.504H68.8429V162H69.9229V156.504ZM75.0305 162.156C76.8065 162.156 77.8745 160.812 77.8745 158.832C77.8745 156.876 76.9385 155.52 75.0545 155.52C73.2905 155.52 72.2105 156.876 72.2105 158.832C72.2105 160.812 73.1705 162.156 75.0305 162.156ZM75.0425 156.348C76.2545 156.348 76.7585 157.296 76.7585 158.832C76.7585 160.38 76.2425 161.316 75.0665 161.316C73.8425 161.316 73.3265 160.38 73.3265 158.832C73.3265 157.296 73.8905 156.348 75.0425 156.348ZM79.5831 162H80.6631V158.556C80.6631 157.332 81.4071 156.684 82.5351 156.684H82.7391V155.556H82.6311C81.7071 155.556 80.9151 156.204 80.6271 156.864H80.6031V155.676H79.5831V162ZM87.8881 153.84V154.296C87.8881 155.508 87.6961 155.712 86.8441 155.712H86.6521V156.504H87.8041V160.416C87.8041 161.496 88.2961 162.096 89.5321 162.096C90.0841 162.096 90.5281 162.024 90.5281 162.024V161.112C90.5281 161.112 90.1561 161.172 89.8321 161.172C89.1481 161.172 88.8721 160.908 88.8721 160.236V156.504H90.4321V155.676H88.8721V153.84H87.8881ZM95.9195 162H96.9995V157.596C96.9995 156.096 96.1955 155.52 94.9835 155.52C93.9515 155.52 93.2795 156.108 93.0035 156.72H92.9795V152.544H91.8995V162H92.9795V158.208C92.9795 157.176 93.5195 156.42 94.6955 156.42C95.1155 156.42 95.4755 156.54 95.6915 156.84C95.9195 157.14 95.9195 157.632 95.9195 158.088V162ZM102.992 158.28H99.7523C99.8843 157.128 100.436 156.336 101.444 156.336C102.548 156.336 102.968 157.152 102.992 158.208V158.28ZM104.012 160.344H102.968C102.86 160.716 102.584 161.328 101.528 161.328C100.34 161.328 99.8123 160.44 99.7403 159.132H104.096V158.58C104.096 156.984 103.352 155.52 101.456 155.52C99.6443 155.52 98.6363 156.996 98.6363 158.868C98.6363 160.752 99.5603 162.156 101.492 162.156C102.848 162.156 103.784 161.436 104.012 160.344ZM109.187 162H112.139C114.647 162 116.447 160.524 116.447 157.296C116.447 154.044 114.515 152.82 112.007 152.82H109.187V162ZM110.303 161.04V153.78H112.079C113.927 153.78 115.283 154.764 115.283 157.332C115.283 160.032 113.951 161.04 112.007 161.04H110.303ZM122.176 158.28H118.936C119.068 157.128 119.62 156.336 120.628 156.336C121.732 156.336 122.152 157.152 122.176 158.208V158.28ZM123.196 160.344H122.152C122.044 160.716 121.768 161.328 120.712 161.328C119.524 161.328 118.996 160.44 118.924 159.132H123.28V158.58C123.28 156.984 122.536 155.52 120.64 155.52C118.828 155.52 117.82 156.996 117.82 158.868C117.82 160.752 118.744 162.156 120.676 162.156C122.032 162.156 122.968 161.436 123.196 160.344ZM126.291 162H127.431L129.627 155.676H128.595L127.191 159.744C127.011 160.26 126.879 160.74 126.879 160.74H126.855C126.855 160.74 126.723 160.26 126.543 159.744L125.175 155.676H124.071L126.291 162ZM131.016 154.236H132.156V153.072H131.016V154.236ZM131.04 162H132.132V155.676H131.04V162ZM139.168 157.584C139.06 156.096 137.92 155.52 136.66 155.52C134.884 155.52 133.828 156.936 133.828 158.868C133.828 160.872 134.812 162.144 136.636 162.144C138.004 162.144 139.048 161.4 139.204 159.936H138.196C138.16 160.416 137.848 161.304 136.648 161.304C135.376 161.304 134.932 160.284 134.932 158.82C134.932 157.344 135.532 156.348 136.672 156.348C137.584 156.348 138.04 156.936 138.112 157.584H139.168ZM144.676 158.28H141.436C141.568 157.128 142.12 156.336 143.128 156.336C144.232 156.336 144.652 157.152 144.676 158.208V158.28ZM145.696 160.344H144.652C144.544 160.716 144.268 161.328 143.212 161.328C142.024 161.328 141.496 160.44 141.424 159.132H145.78V158.58C145.78 156.984 145.036 155.52 143.14 155.52C141.328 155.52 140.32 156.996 140.32 158.868C140.32 160.752 141.244 162.156 143.176 162.156C144.532 162.156 145.468 161.436 145.696 160.344ZM150.871 162H151.939V154.296H151.963C151.963 154.296 152.083 154.584 152.443 155.184L156.511 162H157.939V152.82H156.883V160.548H156.847C156.847 160.548 156.691 160.152 156.379 159.648L152.299 152.82H150.871V162ZM161.922 161.232C161.238 161.232 160.818 160.884 160.818 160.236C160.818 159.9 160.926 159.636 161.166 159.456C161.574 159.156 162.354 159.048 163.722 158.988V159.132C163.722 160.692 162.726 161.232 161.922 161.232ZM161.082 157.404C161.118 156.864 161.466 156.324 162.402 156.324C163.29 156.324 163.722 156.768 163.722 157.908V158.184C162.306 158.232 161.322 158.352 160.662 158.7C160.014 159.024 159.714 159.6 159.714 160.296C159.714 161.424 160.458 162.108 161.718 162.108C162.654 162.108 163.41 161.676 163.746 160.932H163.77C163.878 161.688 164.214 162.048 165.222 162.048H165.354V161.172C164.886 161.16 164.778 160.956 164.778 160.452V157.872C164.778 156.18 164.01 155.52 162.438 155.52C160.926 155.52 160.074 156.288 160.05 157.404H161.082ZM166.923 162H168.003V158.184C168.003 157.176 168.531 156.42 169.707 156.42C170.127 156.42 170.475 156.54 170.691 156.84C170.919 157.152 170.919 157.632 170.919 158.088V162H171.999V158.208C171.999 157.176 172.527 156.42 173.703 156.42C174.123 156.42 174.471 156.528 174.687 156.828C174.915 157.14 174.915 157.632 174.915 158.088V162H175.995V157.596C175.995 156.096 175.179 155.52 173.991 155.52C172.947 155.52 172.167 156.168 171.927 156.828H171.903C171.675 155.952 170.955 155.52 169.995 155.52C168.987 155.52 168.255 156.096 167.967 156.744H167.943V155.676H166.923V162ZM181.988 158.28H178.748C178.88 157.128 179.432 156.336 180.44 156.336C181.544 156.336 181.964 157.152 181.988 158.208V158.28ZM183.008 160.344H181.964C181.856 160.716 181.58 161.328 180.524 161.328C179.336 161.328 178.808 160.44 178.736 159.132H183.092V158.58C183.092 156.984 182.348 155.52 180.452 155.52C178.64 155.52 177.632 156.996 177.632 158.868C177.632 160.752 178.556 162.156 180.488 162.156C181.844 162.156 182.78 161.436 183.008 160.344ZM189.696 161.232C189.012 161.232 188.592 160.884 188.592 160.236C188.592 159.9 188.7 159.636 188.94 159.456C189.348 159.156 190.128 159.048 191.496 158.988V159.132C191.496 160.692 190.5 161.232 189.696 161.232ZM188.856 157.404C188.892 156.864 189.24 156.324 190.176 156.324C191.064 156.324 191.496 156.768 191.496 157.908V158.184C190.08 158.232 189.096 158.352 188.436 158.7C187.788 159.024 187.488 159.6 187.488 160.296C187.488 161.424 188.232 162.108 189.492 162.108C190.428 162.108 191.184 161.676 191.52 160.932H191.544C191.652 161.688 191.988 162.048 192.996 162.048H193.128V161.172C192.66 161.16 192.552 160.956 192.552 160.452V157.872C192.552 156.18 191.784 155.52 190.212 155.52C188.7 155.52 187.848 156.288 187.824 157.404H188.856ZM198.716 162H199.796V157.596C199.796 156.096 198.992 155.52 197.78 155.52C196.772 155.52 196.04 156.096 195.74 156.744H195.716V155.676H194.696V162H195.776V158.208C195.776 157.176 196.316 156.42 197.492 156.42C197.912 156.42 198.272 156.54 198.488 156.84C198.716 157.14 198.716 157.644 198.716 158.1V162ZM206.017 159.264C206.017 160.416 205.333 161.304 204.217 161.304C202.957 161.304 202.537 160.26 202.537 158.832C202.537 157.344 203.089 156.384 204.301 156.384C205.309 156.384 206.017 157.248 206.017 158.592V159.264ZM207.073 152.544H205.993V156.636H205.969C205.717 156.048 205.105 155.52 204.157 155.52C202.561 155.52 201.433 156.708 201.433 158.88C201.433 161.316 202.669 162.156 204.013 162.156C204.985 162.156 205.669 161.58 206.005 160.956H206.041V162H207.073V152.544ZM218.879 155.28C218.795 153.72 217.787 152.688 215.843 152.688C213.959 152.688 212.735 153.768 212.735 155.256C212.735 156.456 213.371 157.416 215.171 157.752L216.455 157.98C217.583 158.172 218.015 158.724 218.015 159.516C218.015 160.488 217.475 161.28 215.843 161.28C214.367 161.28 213.683 160.404 213.551 159.42H212.387C212.483 161.04 213.695 162.18 215.819 162.18C218.015 162.18 219.155 161.1 219.155 159.42C219.155 158.112 218.531 157.236 216.743 156.912L215.447 156.684C214.367 156.48 213.911 156 213.911 155.16C213.911 154.284 214.583 153.576 215.831 153.576C217.115 153.576 217.631 154.38 217.739 155.28H218.879ZM224.961 158.28H221.721C221.853 157.128 222.405 156.336 223.413 156.336C224.517 156.336 224.937 157.152 224.961 158.208V158.28ZM225.981 160.344H224.937C224.829 160.716 224.553 161.328 223.497 161.328C222.309 161.328 221.781 160.44 221.709 159.132H226.065V158.58C226.065 156.984 225.321 155.52 223.425 155.52C221.613 155.52 220.605 156.996 220.605 158.868C220.605 160.752 221.529 162.156 223.461 162.156C224.817 162.156 225.753 161.436 225.981 160.344ZM227.708 162H228.788V158.556C228.788 157.332 229.532 156.684 230.66 156.684H230.864V155.556H230.756C229.832 155.556 229.04 156.204 228.752 156.864H228.728V155.676H227.708V162ZM232.372 154.236H233.512V153.072H232.372V154.236ZM232.396 162H233.488V155.676H232.396V162ZM237.379 161.232C236.695 161.232 236.275 160.884 236.275 160.236C236.275 159.9 236.383 159.636 236.623 159.456C237.031 159.156 237.811 159.048 239.179 158.988V159.132C239.179 160.692 238.183 161.232 237.379 161.232ZM236.539 157.404C236.575 156.864 236.923 156.324 237.859 156.324C238.747 156.324 239.179 156.768 239.179 157.908V158.184C237.763 158.232 236.779 158.352 236.119 158.7C235.471 159.024 235.171 159.6 235.171 160.296C235.171 161.424 235.915 162.108 237.175 162.108C238.111 162.108 238.867 161.676 239.203 160.932H239.227C239.335 161.688 239.671 162.048 240.679 162.048H240.811V161.172C240.343 161.16 240.235 160.956 240.235 160.452V157.872C240.235 156.18 239.467 155.52 237.895 155.52C236.383 155.52 235.531 156.288 235.507 157.404H236.539ZM242.38 162H243.46V152.544H242.38V162ZM50.9043 183H51.9723V175.296H51.9963C51.9963 175.296 52.1163 175.584 52.4763 176.184L56.5443 183H57.9723V173.82H56.9163V181.548H56.8803C56.8803 181.548 56.7243 181.152 56.4123 180.648L52.3323 173.82H50.9043V183ZM61.3673 176.676H60.2993V181.08C60.2993 182.568 61.1153 183.156 62.3273 183.156C63.3353 183.156 64.0313 182.568 64.3193 181.92H64.3433V183H65.3753V176.676H64.2953V180.096C64.2953 181.488 63.7433 182.268 62.5673 182.268C62.1473 182.268 61.8113 182.136 61.5953 181.848C61.3673 181.548 61.3673 181.02 61.3673 180.564V176.676ZM67.6241 183H68.7041V179.184C68.7041 178.176 69.2321 177.42 70.4081 177.42C70.8281 177.42 71.1761 177.54 71.3921 177.84C71.6201 178.152 71.6201 178.632 71.6201 179.088V183H72.7001V179.208C72.7001 178.176 73.2281 177.42 74.4041 177.42C74.8241 177.42 75.1721 177.528 75.3881 177.828C75.6161 178.14 75.6161 178.632 75.6161 179.088V183H76.6961V178.596C76.6961 177.096 75.8801 176.52 74.6921 176.52C73.6481 176.52 72.8681 177.168 72.6281 177.828H72.6041C72.3761 176.952 71.6561 176.52 70.6961 176.52C69.6881 176.52 68.9561 177.096 68.6681 177.744H68.6441V176.676H67.6241V183ZM78.8975 183H79.9175V181.992H79.9415C80.2655 182.604 80.9255 183.156 81.9215 183.156C83.3495 183.156 84.5255 182.052 84.5255 179.748C84.5255 177.348 83.3255 176.52 81.9815 176.52C81.0335 176.52 80.3375 177.036 79.9895 177.72H79.9775V173.544H78.8975V183ZM81.7535 182.304C80.5535 182.304 79.9415 181.32 79.9415 180.072V179.4C79.9415 178.332 80.6015 177.384 81.7415 177.384C83.0375 177.384 83.4335 178.404 83.4335 179.748C83.4335 181.404 82.8815 182.304 81.7535 182.304ZM90.1427 179.28H86.9027C87.0347 178.128 87.5867 177.336 88.5947 177.336C89.6987 177.336 90.1187 178.152 90.1427 179.208V179.28ZM91.1627 181.344H90.1187C90.0107 181.716 89.7347 182.328 88.6787 182.328C87.4907 182.328 86.9627 181.44 86.8907 180.132H91.2467V179.58C91.2467 177.984 90.5027 176.52 88.6067 176.52C86.7947 176.52 85.7867 177.996 85.7867 179.868C85.7867 181.752 86.7107 183.156 88.6427 183.156C89.9987 183.156 90.9347 182.436 91.1627 181.344ZM92.8897 183H93.9697V179.556C93.9697 178.332 94.7137 177.684 95.8417 177.684H96.0457V176.556H95.9377C95.0137 176.556 94.2217 177.204 93.9337 177.864H93.9097V176.676H92.8897V183ZM103.103 183.156C104.879 183.156 105.947 181.812 105.947 179.832C105.947 177.876 105.011 176.52 103.127 176.52C101.363 176.52 100.283 177.876 100.283 179.832C100.283 181.812 101.243 183.156 103.103 183.156ZM103.115 177.348C104.327 177.348 104.831 178.296 104.831 179.832C104.831 181.38 104.315 182.316 103.139 182.316C101.915 182.316 101.399 181.38 101.399 179.832C101.399 178.296 101.963 177.348 103.115 177.348ZM111.675 183H112.755V178.596C112.755 177.096 111.951 176.52 110.739 176.52C109.731 176.52 108.999 177.096 108.699 177.744H108.675V176.676H107.655V183H108.735V179.208C108.735 178.176 109.275 177.42 110.451 177.42C110.871 177.42 111.231 177.54 111.447 177.84C111.675 178.14 111.675 178.644 111.675 179.1V183ZM118.574 174.84V175.296C118.574 176.508 118.382 176.712 117.53 176.712H117.338V177.504H118.49V181.416C118.49 182.496 118.982 183.096 120.218 183.096C120.77 183.096 121.214 183.024 121.214 183.024V182.112C121.214 182.112 120.842 182.172 120.518 182.172C119.834 182.172 119.558 181.908 119.558 181.236V177.504H121.118V176.676H119.558V174.84H118.574ZM126.605 183H127.685V178.596C127.685 177.096 126.881 176.52 125.669 176.52C124.637 176.52 123.965 177.108 123.689 177.72H123.665V173.544H122.585V183H123.665V179.208C123.665 178.176 124.205 177.42 125.381 177.42C125.801 177.42 126.161 177.54 126.377 177.84C126.605 178.14 126.605 178.632 126.605 179.088V183ZM133.678 179.28H130.438C130.57 178.128 131.122 177.336 132.13 177.336C133.234 177.336 133.654 178.152 133.678 179.208V179.28ZM134.698 181.344H133.654C133.546 181.716 133.27 182.328 132.214 182.328C131.026 182.328 130.498 181.44 130.426 180.132H134.782V179.58C134.782 177.984 134.038 176.52 132.142 176.52C130.33 176.52 129.322 177.996 129.322 179.868C129.322 181.752 130.246 183.156 132.178 183.156C133.534 183.156 134.47 182.436 134.698 181.344ZM139.753 183H140.773V181.992H140.797C141.121 182.604 141.781 183.156 142.777 183.156C144.205 183.156 145.381 182.052 145.381 179.748C145.381 177.348 144.181 176.52 142.837 176.52C141.889 176.52 141.193 177.036 140.845 177.72H140.833V173.544H139.753V183ZM142.609 182.304C141.409 182.304 140.797 181.32 140.797 180.072V179.4C140.797 178.332 141.457 177.384 142.597 177.384C143.893 177.384 144.289 178.404 144.289 179.748C144.289 181.404 143.737 182.304 142.609 182.304ZM148.78 182.232C148.096 182.232 147.676 181.884 147.676 181.236C147.676 180.9 147.784 180.636 148.024 180.456C148.432 180.156 149.212 180.048 150.58 179.988V180.132C150.58 181.692 149.584 182.232 148.78 182.232ZM147.94 178.404C147.976 177.864 148.324 177.324 149.26 177.324C150.148 177.324 150.58 177.768 150.58 178.908V179.184C149.164 179.232 148.18 179.352 147.52 179.7C146.872 180.024 146.572 180.6 146.572 181.296C146.572 182.424 147.316 183.108 148.576 183.108C149.512 183.108 150.268 182.676 150.604 181.932H150.628C150.736 182.688 151.072 183.048 152.08 183.048H152.212V182.172C151.744 182.16 151.636 181.956 151.636 181.452V178.872C151.636 177.18 150.868 176.52 149.296 176.52C147.784 176.52 146.932 177.288 146.908 178.404H147.94ZM158.615 178.584C158.507 177.096 157.367 176.52 156.107 176.52C154.331 176.52 153.275 177.936 153.275 179.868C153.275 181.872 154.259 183.144 156.083 183.144C157.451 183.144 158.495 182.4 158.651 180.936H157.643C157.607 181.416 157.295 182.304 156.095 182.304C154.823 182.304 154.379 181.284 154.379 179.82C154.379 178.344 154.979 177.348 156.119 177.348C157.031 177.348 157.487 177.936 157.559 178.584H158.615ZM161.294 181.068L162.35 179.88L164.198 183H165.458L163.082 179.052L165.194 176.676H163.934L161.294 179.724V173.544H160.214V183H161.294V181.068ZM172.431 183.156C174.207 183.156 175.275 181.812 175.275 179.832C175.275 177.876 174.339 176.52 172.455 176.52C170.691 176.52 169.611 177.876 169.611 179.832C169.611 181.812 170.571 183.156 172.431 183.156ZM172.443 177.348C173.655 177.348 174.159 178.296 174.159 179.832C174.159 181.38 173.643 182.316 172.467 182.316C171.243 182.316 170.727 181.38 170.727 179.832C170.727 178.296 171.291 177.348 172.443 177.348ZM178.315 177.504H179.827V176.676H178.315V175.392C178.315 174.636 178.615 174.408 179.239 174.408C179.515 174.408 179.707 174.432 179.827 174.456V173.568C179.635 173.532 179.395 173.508 179.155 173.508C177.979 173.508 177.235 173.964 177.235 175.26V176.676H176.083V177.504H177.235V183H178.315V177.504ZM186.09 183L185.97 183.336C185.694 184.188 185.43 184.488 184.626 184.488C184.518 184.488 184.278 184.476 184.074 184.428V185.316C184.242 185.352 184.482 185.388 184.722 185.388C186.09 185.388 186.51 184.848 187.014 183.396L189.318 176.676H188.238L186.942 180.624C186.738 181.236 186.63 181.62 186.63 181.62H186.594C186.594 181.62 186.486 181.236 186.282 180.636L184.962 176.676H183.882L186.09 183ZM192.986 183.156C194.762 183.156 195.83 181.812 195.83 179.832C195.83 177.876 194.894 176.52 193.01 176.52C191.246 176.52 190.166 177.876 190.166 179.832C190.166 181.812 191.126 183.156 192.986 183.156ZM192.998 177.348C194.21 177.348 194.714 178.296 194.714 179.832C194.714 181.38 194.198 182.316 193.022 182.316C191.798 182.316 191.282 181.38 191.282 179.832C191.282 178.296 191.846 177.348 192.998 177.348ZM198.582 176.676H197.514V181.08C197.514 182.568 198.33 183.156 199.542 183.156C200.55 183.156 201.246 182.568 201.534 181.92H201.558V183H202.59V176.676H201.51V180.096C201.51 181.488 200.958 182.268 199.782 182.268C199.362 182.268 199.026 182.136 198.81 181.848C198.582 181.548 198.582 181.02 198.582 180.564V176.676ZM204.839 183H205.919V179.556C205.919 178.332 206.663 177.684 207.791 177.684H207.995V176.556H207.887C206.963 176.556 206.171 177.204 205.883 177.864H205.859V176.676H204.839V183ZM212.916 183H218.592V182.004H214.032V173.82H212.916V183ZM221.262 179.1H225.258V178.128H221.262V174.816H225.63V173.82H220.146V183H221.262V179.1ZM228.73 183H229.822V174.072H228.922C228.91 174.624 228.79 174.984 228.526 175.248C228.25 175.524 227.818 175.68 227.218 175.68H226.954V176.448H228.73V183Z" fill="#BABFD1"/>
<rect x="58" y="102" width="3" height="31" rx="1.5" fill="white"/>
<rect x="3" y="3.39062" width="274" height="80" rx="17" fill="#161618" stroke="white" stroke-width="6"/>
<rect x="23.7158" y="55.4727" width="74" height="19" rx="3" fill="#3C3E47"/>
<rect x="31" y="60" width="25" height="4" fill="#575C6D"/>
<rect x="31" y="67" width="25" height="4" fill="#575C6D"/>
<rect x="65.4258" y="60" width="25" height="4" fill="#575C6D"/>
<rect x="65.4258" y="67" width="25" height="4" fill="#575C6D"/>
<rect x="100.219" y="27.166" width="80" height="26" rx="13" fill="black"/>
<rect x="129.29" y="41.7012" width="9.00018" height="59.9995" fill="black"/>
<rect x="141.29" y="41.7012" width="9.00018" height="59.9995" fill="black"/>
<circle cx="34.0713" cy="39.8164" r="5" fill="black"/>
<circle cx="56.2568" cy="39.8164" r="5" fill="black"/>
<circle cx="78.4424" cy="39.8164" r="5" fill="black"/>
<circle cx="252.869" cy="39.8164" r="5" fill="black"/>
<rect x="189.727" y="38.6426" width="20" height="6" fill="black"/>
<rect x="218.033" y="33.2871" width="22" height="16" fill="black"/>
</svg>
