<svg width="65" height="10" viewBox="0 0 65 10" fill="none" xmlns="http://www.w3.org/2000/svg">
<circle cx="5" cy="5" r="5" fill="#2C65FF"/>
<path d="M18.56 5.38848C18.56 7.99848 19.96 9.34848 22.11 9.34848C24.18 9.34848 25.66 7.98848 25.66 5.38848C25.66 2.76848 24.21 1.42848 22.11 1.42848C20.08 1.42848 18.56 2.78848 18.56 5.38848ZM22.1 8.30848C20.81 8.30848 20.06 7.31848 20.06 5.39848C20.06 3.42848 20.85 2.45848 22.1 2.45848C23.33 2.45848 24.17 3.46848 24.17 5.39848C24.17 7.29848 23.36 8.30848 22.1 8.30848ZM28.5827 9.18848H29.8627V3.43848H29.8827C29.8827 3.43848 30.0327 3.83848 30.4027 4.44848L33.2427 9.18848H34.7827V1.53848H33.5027V7.22848H33.4727C33.4727 7.22848 33.3227 6.79848 32.9827 6.22848L30.1827 1.53848H28.5827V9.18848ZM37.9928 9.18848H42.8628V8.06848H39.3928V1.53848H37.9928V9.18848ZM45.567 9.18848H46.967V1.53848H45.567V9.18848ZM50.2018 9.18848H51.4818V3.43848H51.5018C51.5018 3.43848 51.6518 3.83848 52.0218 4.44848L54.8618 9.18848H56.4018V1.53848H55.1218V7.22848H55.0918C55.0918 7.22848 54.9418 6.79848 54.6018 6.22848L51.8018 1.53848H50.2018V9.18848ZM59.612 9.18848H64.682V8.09848H61.012V5.88848H64.372V4.80848H61.012V2.63848H64.602V1.53848H59.612V9.18848Z" fill="white"/>
</svg>
