<svg xmlns="http://www.w3.org/2000/svg" viewBox="0 0 1073.31 125"><defs><style>.cls-1{fill:#fff;}</style></defs><title>wordmark-white</title><g id="Layer_2" data-name="Layer 2"><g id="Artwork"><g id="Lightform_Horizontal_Logo_Lock_up" data-name="Lightform Horizontal Logo Lock up"><polygon class="cls-1" points="313.07 122.5 330.8 122.5 330.8 73.36 386.17 73.36 386.17 122.5 403.61 122.5 403.61 2.5 386.17 2.5 386.17 55.88 330.8 55.88 330.8 2.5 313.07 2.5 313.07 122.5"/><polygon class="cls-1" points="471.31 122.5 492.8 122.5 492.8 21.47 525.45 21.47 525.45 2.51 439.11 2.51 439.11 21.47 471.31 21.47 471.31 122.5"/><polygon class="cls-1" points="12.09 110.41 12.09 2.5 0 2.5 0 122.5 65.37 122.5 65.37 110.41 12.09 110.41"/><rect class="cls-1" x="108.28" y="2.5" width="12.09" height="120"/><polygon class="cls-1" points="626.35 74.51 626.35 51.76 587.77 51.76 587.77 25.25 632.84 25.25 632.84 2.5 561.89 2.5 561.89 122.5 587.77 122.5 587.77 74.51 626.35 74.51"/><polygon class="cls-1" points="1016.87 2.51 1003.57 42.35 990.28 2.51 933.84 2.51 933.84 122.5 973.41 122.5 973.41 58.68 995.76 122.51 1011.39 122.51 1033.74 58.68 1033.74 122.5 1073.31 122.5 1073.31 2.51 1016.87 2.51"/><path class="cls-1" d="M882,78.56c16.37-8.95,19.22-27.37,19.22-35.47,0-10.91-5.17-40.54-41.57-40.54l-53.5,0v120H841.3V83.63h5.4l18.85,38.89h38.89Zm-26.24-22H841.3V29.88l14.47,0c6.57,0,12.1,5,12.1,13.23S862.33,56.59,855.77,56.59Z"/><path class="cls-1" d="M277.47,60.17v3c0,33.14-19.61,61.84-58.72,61.84-31.07,0-60.89-22.42-60.89-62.44C157.86,21.87,189.5,0,218.75,0,253.53,0,270,27.33,272.4,35H256.26C250.52,24.92,240,14,218.75,14,193,14,172.46,34.5,172.46,62.56c0,29.78,20.82,48.19,46.28,48.19,31,0,43.15-24.06,43.15-37.22H224.32l4.28-13.36Z"/><path class="cls-1" d="M717.27,0C688,0,656.38,21.87,656.38,62.56c0,40,29.81,62.44,60.89,62.44s60.89-22.42,60.89-62.44C778.15,21.87,746.51,0,717.27,0Zm-.18,93.86C700.62,93.86,687,81.6,687,62.35c0-18.14,13.49-31.78,30.11-31.78S747.2,44.2,747.2,62.35C747.2,81.6,733.56,93.86,717.09,93.86Z"/></g></g></g></svg>