<svg width="140" height="140" viewBox="0 0 140 140" fill="none" xmlns="http://www.w3.org/2000/svg">
<path fill-rule="evenodd" clip-rule="evenodd" d="M70 109.417C48.2308 109.417 30.5833 91.7691 30.5833 69.9999C30.5833 48.2307 48.2308 30.5833 70 30.5833C91.7692 30.5833 109.417 48.2307 109.417 69.9999C109.417 91.7691 91.7692 109.417 70 109.417ZM96.5149 88.3632C100.131 83.1519 102.25 76.8234 102.25 69.9999C102.25 52.1887 87.8112 37.7499 70 37.7499C52.1888 37.7499 37.75 52.1887 37.75 69.9999C37.75 76.8234 39.8691 83.1519 43.4852 88.3633C47.518 83.0363 56.9947 80.7499 70 80.7499C83.0054 80.7499 92.482 83.0363 96.5149 88.3632ZM91.3735 94.1507C90.3247 90.3796 82.7903 87.9166 70 87.9166C57.2097 87.9166 49.6754 90.3796 48.6266 94.1508C54.3169 99.1904 61.8011 102.25 70 102.25C78.1989 102.25 85.6832 99.1904 91.3735 94.1507ZM70 48.4999C61.3251 48.4999 55.6667 54.7914 55.6667 62.8333C55.6667 75.1147 61.9764 80.7499 70 80.7499C77.9482 80.7499 84.3333 75.3019 84.3333 63.5499C84.3333 55.3856 78.6509 48.4999 70 48.4999ZM62.8333 62.8333C62.8333 70.9648 65.7653 73.5833 70 73.5833C74.2201 73.5833 77.1667 71.0692 77.1667 63.5499C77.1667 59.0722 74.3561 55.6666 70 55.6666C65.4626 55.6666 62.8333 58.59 62.8333 62.8333Z" fill="white"/>
</svg>
