<svg width="44" height="43" viewBox="0 0 44 43" fill="none" xmlns="http://www.w3.org/2000/svg">
<path fill-rule="evenodd" clip-rule="evenodd" d="M10.0585 10.5H34.0585C34.3346 10.5 34.5585 10.7239 34.5585 11V32C34.5585 32.2761 34.3346 32.5 34.0585 32.5H10.0585C9.78233 32.5 9.55847 32.2761 9.55847 32V11C9.55847 10.7239 9.78233 10.5 10.0585 10.5ZM8.05847 11C8.05847 9.89543 8.9539 9 10.0585 9H34.0585C35.163 9 36.0585 9.89543 36.0585 11V32C36.0585 33.1046 35.163 34 34.0585 34H10.0585C8.9539 34 8.05847 33.1046 8.05847 32V11ZM19.2985 29.5V25.5H12.5585V13.5H17.0585V17.5002C17.0585 17.7763 17.2823 18.0002 17.5585 18.0002C17.8346 18.0002 18.0585 17.7763 18.0585 17.5002V13.5H20.0591V17.5001C20.0591 17.7762 20.2829 18.0001 20.5591 18.0001C20.8352 18.0001 21.0591 17.7762 21.0591 17.5001V13.5H23.0591V17.5001C23.0591 17.7762 23.2829 18.0001 23.5591 18.0001C23.8352 18.0001 24.0591 17.7762 24.0591 17.5001V13.5H26.0591V17.5001C26.0591 17.7762 26.2829 18.0001 26.5591 18.0001C26.8352 18.0001 27.0591 17.7762 27.0591 17.5001V13.5H31.5585V25.5H24.7985V29.5H19.2985ZM11.0585 26C11.0585 26.5523 11.5062 27 12.0585 27H17.7985V30C17.7985 30.5523 18.2462 31 18.7985 31H25.2985C25.8507 31 26.2985 30.5523 26.2985 30V27H32.0585C32.6108 27 33.0585 26.5523 33.0585 26V13C33.0585 12.4477 32.6108 12 32.0585 12H12.0585C11.5062 12 11.0585 12.4477 11.0585 13V26Z" fill="#F2C94C"/>
</svg>
