<svg width="44" height="43" viewBox="0 0 44 43" fill="none" xmlns="http://www.w3.org/2000/svg">
<path fill-rule="evenodd" clip-rule="evenodd" d="M10.5585 10.5H34.5585C34.8346 10.5 35.0585 10.7239 35.0585 11V32C35.0585 32.2761 34.8346 32.5 34.5585 32.5H10.5585C10.2823 32.5 10.0585 32.2761 10.0585 32V11C10.0585 10.7239 10.2823 10.5 10.5585 10.5ZM8.55847 11C8.55847 9.89543 9.4539 9 10.5585 9H34.5585C35.663 9 36.5585 9.89543 36.5585 11V32C36.5585 33.1046 35.663 34 34.5585 34H10.5585C9.4539 34 8.55847 33.1046 8.55847 32V11ZM19.7985 29.5V25.5H13.0585V13.5H17.5585V17.5002C17.5585 17.7763 17.7823 18.0002 18.0585 18.0002C18.3346 18.0002 18.5585 17.7763 18.5585 17.5002V13.5H20.5591V17.5001C20.5591 17.7762 20.7829 18.0001 21.0591 18.0001C21.3352 18.0001 21.5591 17.7762 21.5591 17.5001V13.5H23.5591V17.5001C23.5591 17.7762 23.7829 18.0001 24.0591 18.0001C24.3352 18.0001 24.5591 17.7762 24.5591 17.5001V13.5H26.5591V17.5001C26.5591 17.7762 26.7829 18.0001 27.0591 18.0001C27.3352 18.0001 27.5591 17.7762 27.5591 17.5001V13.5H32.0585V25.5H25.2985V29.5H19.7985ZM11.5585 26C11.5585 26.5523 12.0062 27 12.5585 27H18.2985V30C18.2985 30.5523 18.7462 31 19.2985 31H25.7985C26.3507 31 26.7985 30.5523 26.7985 30V27H32.5585C33.1108 27 33.5585 26.5523 33.5585 26V13C33.5585 12.4477 33.1108 12 32.5585 12H12.5585C12.0062 12 11.5585 12.4477 11.5585 13V26Z" fill="#15C595"/>
</svg>
