<?xml version="1.0" encoding="utf-8"?>
<!-- Generator: Adobe Illustrator 25.0.1, SVG Export Plug-In . SVG Version: 6.00 Build 0)  -->
<svg version="1.1" id="Layer_1" xmlns="http://www.w3.org/2000/svg" xmlns:xlink="http://www.w3.org/1999/xlink" x="0px" y="0px"
	 viewBox="0 0 35 31" style="enable-background:new 0 0 35 31;" xml:space="preserve">
<style type="text/css">
	.st0{fill-rule:evenodd;clip-rule:evenodd;fill:#231F20;}
</style>
<path class="st0" d="M17.2,0.3c0.1,0,0.1,0,0.2,0h0c0,0,0,0,0.1,0c0.6,0,1.1,0.3,1.4,0.7c1.6,1.6,6.7,6.7,10.5,10.5
	c2.3,2.3,4.1,4.1,4.4,4.4l0,0c0.9,0.8,0.9,2,0.5,2.8c-0.3,0.8-1.1,1.6-2.2,1.6h-5.9v5.9c0,0.1,0,0.2,0,0.4c0,0.3,0,0.6-0.1,0.9l0,0
	c-0.1,0.3-0.2,0.7-0.3,1l0,0c-0.2,0.3-0.4,0.6-0.6,0.9l0,0c-0.3,0.3-0.6,0.5-0.9,0.6l0,0c-0.3,0.2-0.6,0.3-1,0.3l0,0
	c-0.3,0-0.6,0.1-0.9,0.1l0,0c0,0-0.1,0-0.1,0c-0.1,0-0.1,0-0.2,0h-9.1c-0.1,0-0.1,0-0.2,0c-0.1,0-0.1,0-0.1,0h0
	c-0.3,0-0.6,0-0.9-0.1l0,0c-0.3-0.1-0.7-0.2-1-0.3l0,0c-0.3-0.2-0.6-0.4-0.9-0.6l0,0c-0.3-0.3-0.5-0.6-0.6-0.9l0,0
	c-0.2-0.3-0.3-0.7-0.3-1l0,0c0-0.3-0.1-0.6-0.1-0.9l0,0c0,0,0-0.1,0-0.1l0,0c0-0.1,0-0.1,0-0.2v-5.9h-6c-0.6,0-1.1-0.3-1.4-0.6
	c-0.3-0.3-0.6-0.7-0.7-1C0.2,18,0.1,16.8,1,15.9l0,0c0.3-0.3,2-2,4.2-4.2c3.8-3.8,9-9,10.6-10.6C16.2,0.7,16.7,0.4,17.2,0.3z"/>
</svg>
