<svg width="35" height="31" viewBox="0 0 35 31" fill="none" xmlns="http://www.w3.org/2000/svg">
<path fill-rule="evenodd" clip-rule="evenodd" d="M17.2422 0.316485C17.3076 0.305384 17.3738 0.299805 17.4402 0.299805H17.4593C17.4807 0.299805 17.5021 0.300384 17.5234 0.301541C18.0766 0.331541 18.5922 0.585967 18.9523 1.0037C20.5676 2.60675 25.6905 7.73341 29.4872 11.533C31.7545 13.8019 33.5489 15.5977 33.8409 15.8871L33.8434 15.8895C34.6955 16.7389 34.7107 17.8865 34.3824 18.714C34.0724 19.4952 33.2958 20.3559 32.1478 20.3559H26.2362V26.2791C26.2362 26.3825 26.2362 26.504 26.2313 26.6345C26.2268 26.9288 26.2009 27.2224 26.154 27.513L26.1512 27.5305C26.0894 27.8796 25.9774 28.2179 25.819 28.5351L25.8138 28.5455C25.6461 28.8729 25.427 29.1713 25.1649 29.4294L25.1628 29.4314C24.9053 29.6838 24.6112 29.8961 24.2906 30.061L24.2672 30.0728C23.9523 30.226 23.6179 30.3356 23.2734 30.3983L23.2447 30.4032C22.9509 30.4493 22.6543 30.4747 22.357 30.4793L22.3386 30.4796C22.2997 30.4796 22.2591 30.4804 22.2017 30.4819C22.1492 30.4832 22.0791 30.4851 22.0062 30.4851H12.8792C12.8054 30.4851 12.7352 30.4832 12.6822 30.4819C12.6245 30.4804 12.5847 30.4794 12.5469 30.4794H12.5285C12.2312 30.4748 11.9346 30.4493 11.6408 30.4032L11.6118 30.3983C11.2674 30.3355 10.9333 30.2259 10.6186 30.0726L10.5954 30.061C10.2748 29.8961 9.98074 29.6838 9.72319 29.4314L9.72158 29.4298C9.45904 29.1716 9.23973 28.8728 9.07203 28.5449L9.06697 28.535C8.90854 28.2179 8.79676 27.8796 8.73499 27.5306L8.73209 27.5142C8.68399 27.2182 8.65793 26.919 8.6539 26.6192L8.65368 26.6033C8.65368 26.561 8.65295 26.5181 8.65178 26.4613L8.6517 26.4572C8.65062 26.4047 8.64928 26.3395 8.64928 26.2709V20.3559H2.62556C2.03301 20.3559 1.56518 20.053 1.27423 19.7876C0.962683 19.5034 0.710574 19.1367 0.542138 18.7442C0.217718 17.9883 0.0934001 16.7953 1.0012 15.8898L1.00363 15.8874C1.29108 15.6023 3.02946 13.87 5.24019 11.6671C9.03834 7.88226 14.2307 2.7081 15.8549 1.09664C16.2125 0.684278 16.7026 0.408057 17.2422 0.316485ZM17.4503 2.84758C19.2015 4.58815 24.2626 9.65269 27.9711 13.3637C30.1808 15.575 31.9104 17.3057 32.1733 17.5663C32.1982 17.5914 32.2081 17.6128 32.2129 17.6461C32.2192 17.69 32.2147 17.7602 32.1826 17.8411C32.1538 17.9135 32.1154 17.9632 32.0882 17.9893H25.0529C24.3993 17.9893 23.8695 18.519 23.8695 19.1726V26.2694C23.8695 26.3854 23.8694 26.4707 23.866 26.556L23.8651 26.588C23.8628 26.7683 23.8474 26.9482 23.8191 27.1262C23.7972 27.2461 23.7586 27.3624 23.7046 27.4717C23.6527 27.5718 23.5854 27.663 23.5052 27.7422C23.4204 27.8251 23.3241 27.8953 23.2192 27.9507C23.1058 28.0046 22.9859 28.0439 22.8625 28.0675C22.6856 28.0946 22.507 28.1097 22.3281 28.1128C22.2581 28.113 22.1919 28.1147 22.1414 28.116C22.0835 28.1175 22.0438 28.1184 22.0062 28.1184H12.8792C12.8404 28.1184 12.8 28.1175 12.7426 28.116L12.7371 28.1159C12.6877 28.1146 12.6241 28.113 12.5574 28.1128C12.3784 28.1097 12.1999 28.0946 12.0231 28.0675C11.8999 28.0439 11.7802 28.0047 11.6669 27.9507C11.5619 27.8953 11.4655 27.8251 11.3806 27.7421C11.3005 27.6631 11.2333 27.572 11.1816 27.472C11.1274 27.3625 11.0888 27.2459 11.0668 27.1256C11.0386 26.9498 11.0231 26.7723 11.0204 26.5943C11.0203 26.529 11.019 26.4671 11.018 26.417L11.0179 26.4128C11.0168 26.3561 11.0159 26.3131 11.0159 26.2709V19.1726C11.0159 18.519 10.4861 17.9893 9.8326 17.9893H2.82313C2.78814 17.9459 2.74875 17.885 2.71695 17.8109C2.67022 17.702 2.66355 17.6206 2.66691 17.5829C2.6675 17.5762 2.66831 17.5718 2.66889 17.5692C2.66972 17.5683 2.6709 17.567 2.67251 17.5654L1.83686 16.7276L2.6694 17.5671M2.6694 17.5671C2.92104 17.3176 4.59197 15.6539 6.74344 13.5101C10.5192 9.74773 15.777 4.50851 17.4503 2.84758" fill="white"/>
</svg>
