<svg width="44" height="43" viewBox="0 0 44 43" fill="none" xmlns="http://www.w3.org/2000/svg">
<path fill-rule="evenodd" clip-rule="evenodd" d="M4.01606 16.305C3.97111 16.3499 3.92637 16.395 3.88184 16.4402L6.41572 18.9741C6.46019 18.9289 6.5049 18.8837 6.54986 18.8388C14.9012 10.4875 28.4136 10.4428 36.8201 18.7047L39.354 16.1708C29.548 6.50954 13.7668 6.55428 4.01606 16.305ZM8.81422 21.3726C15.8111 14.3757 27.1553 14.3757 34.1522 21.3726L31.6184 23.9064C26.0209 18.3089 16.9455 18.3089 11.348 23.9064L8.81422 21.3726ZM29.0846 26.4402C24.8865 22.2421 18.0799 22.2421 13.8818 26.4402L16.4156 28.974C19.2144 26.1752 23.7521 26.1752 26.5508 28.974L29.0846 26.4402ZM24.017 31.5078C22.6176 30.1084 20.3488 30.1084 18.9494 31.5078L21.4832 34.0416L24.017 31.5078Z" fill="#F2C94C"/>
</svg>
