<svg width="44" height="43" viewBox="0 0 44 43" fill="none" xmlns="http://www.w3.org/2000/svg">
<g id="icon / wi-fi">
<path id="icon" fill-rule="evenodd" clip-rule="evenodd" d="M4.01603 16.305C3.97108 16.3499 3.92634 16.395 3.88181 16.4402L6.41569 18.9741C6.46016 18.9289 6.50487 18.8837 6.54983 18.8388C14.9011 10.4875 28.4135 10.4428 36.8201 18.7047L39.354 16.1708C29.548 6.50954 13.7667 6.55428 4.01603 16.305ZM8.81419 21.3726C15.8111 14.3757 27.1553 14.3757 34.1522 21.3726L31.6184 23.9064C26.0209 18.3089 16.9455 18.3089 11.348 23.9064L8.81419 21.3726ZM29.0846 26.4402C24.8864 22.2421 18.0799 22.2421 13.8818 26.4402L16.4156 28.974C19.2143 26.1752 23.752 26.1752 26.5508 28.974L29.0846 26.4402ZM24.017 31.5078C22.6176 30.1084 20.3488 30.1084 18.9494 31.5078L21.4832 34.0416L24.017 31.5078Z" fill="#15C595"/>
</g>
</svg>
