<svg width="22" height="20" viewBox="0 0 22 20" fill="none" xmlns="http://www.w3.org/2000/svg">
<path fill-rule="evenodd" clip-rule="evenodd" d="M22 17C22 15.6938 21.1652 14.5825 20 14.1707V5.82929C21.1652 5.41746 22 4.30622 22 3C22 1.34315 20.6569 0 19 0C17.6938 0 16.5825 0.834808 16.1707 2H5.82929C5.41746 0.834808 4.30622 0 3 0C1.34315 0 0 1.34315 0 3C0 4.30622 0.834808 5.41746 2 5.82929V14.1707C0.834808 14.5825 0 15.6938 0 17C0 18.6569 1.34315 20 3 20C4.30622 20 5.41746 19.1652 5.82929 18H16.1707C16.5825 19.1652 17.6938 20 19 20C20.6569 20 22 18.6569 22 17ZM18 5.82929V14.1707C17.1476 14.472 16.472 15.1476 16.1707 16H5.82929C5.52801 15.1476 4.85241 14.472 4 14.1707V5.82929C4.85241 5.52801 5.52801 4.85241 5.82929 4H16.1707C16.472 4.85241 17.1476 5.52801 18 5.82929ZM3 4C3.55228 4 4 3.55228 4 3C4 2.44772 3.55228 2 3 2C2.44772 2 2 2.44772 2 3C2 3.55228 2.44772 4 3 4ZM20 3C20 3.55228 19.5523 4 19 4C18.4477 4 18 3.55228 18 3C18 2.44772 18.4477 2 19 2C19.5523 2 20 2.44772 20 3ZM3 18C3.55228 18 4 17.5523 4 17C4 16.4477 3.55228 16 3 16C2.44772 16 2 16.4477 2 17C2 17.5523 2.44772 18 3 18ZM20 17C20 17.5523 19.5523 18 19 18C18.4477 18 18 17.5523 18 17C18 16.4477 18.4477 16 19 16C19.5523 16 20 16.4477 20 17Z" fill="white"/>
</svg>
