<svg width="43" height="65" viewBox="0 0 43 65" fill="none" xmlns="http://www.w3.org/2000/svg">
<path d="M21.5 0.25C17.523 0.25 13.7961 1.3566 10.625 3.29688C10.5403 3.34764 10.4665 3.4146 10.4077 3.49391C10.3489 3.57322 10.3063 3.66334 10.2824 3.75911C10.2584 3.85489 10.2535 3.95444 10.2681 4.05209C10.2826 4.14975 10.3162 4.24358 10.367 4.32824C10.4178 4.4129 10.4848 4.48672 10.5641 4.54549C10.6434 4.60425 10.7336 4.64682 10.8293 4.67075C10.9251 4.69468 11.0247 4.69951 11.1223 4.68496C11.22 4.6704 11.3138 4.63676 11.3984 4.58594C14.3427 2.78448 17.8038 1.75 21.5 1.75C23.6057 1.75 25.6241 2.08858 27.5234 2.71094C27.5357 2.75125 27.5514 2.79045 27.5703 2.82812C29.2856 6.28154 29.75 7.92213 29.75 9.25C29.7364 9.27416 29.6976 9.30168 29.6328 9.36719C29.4891 9.51247 29.2114 9.69528 28.8828 9.90625C28.2257 10.3282 27.3235 10.8022 26.4922 11.3594C25.6608 11.9166 24.8624 12.5577 24.5 13.4922C24.3188 13.9594 24.2817 14.5104 24.4531 15.0391C24.6136 15.5338 24.9581 15.9943 25.4141 16.4453L25.4844 16.5391L27.875 19.6562C27.4999 20.063 26.8549 20.5358 25.9766 21.1094C25.4573 21.4485 24.9277 21.828 24.5 22.3281C24.0723 22.8283 23.75 23.4897 23.75 24.25C23.75 27 26.3281 28.6094 26.3281 28.6094C26.4928 28.7213 26.6953 28.7631 26.8909 28.7258C27.0865 28.6884 27.2592 28.5749 27.3711 28.4102C27.483 28.2454 27.5249 28.043 27.4875 27.8474C27.4501 27.6518 27.3366 27.4791 27.1719 27.3672C27.1719 27.3672 25.25 26 25.25 24.25C25.25 23.8853 25.3829 23.5996 25.6484 23.2891C25.914 22.9785 26.323 22.661 26.7969 22.3516C27.6317 21.8064 28.5891 21.2845 29.2344 20.4062C29.2377 20.4018 29.2546 20.4107 29.2578 20.4062C29.3783 20.3331 29.4758 20.2275 29.5391 20.1016C29.5887 20.015 29.6206 19.9194 29.6328 19.8203C29.6329 19.8125 29.6329 19.8047 29.6328 19.7969C29.6333 19.7813 29.6333 19.7656 29.6328 19.75C29.6329 19.7422 29.6329 19.7344 29.6328 19.7266C29.6333 19.7109 29.6333 19.6953 29.6328 19.6797C29.6329 19.6719 29.6329 19.6641 29.6328 19.6562C29.6333 19.6406 29.6333 19.625 29.6328 19.6094C29.6329 19.6016 29.6329 19.5938 29.6328 19.5859C29.6262 19.5621 29.6183 19.5387 29.6094 19.5156C29.5909 19.4664 29.5674 19.4193 29.5391 19.375C29.5318 19.3591 29.524 19.3435 29.5156 19.3281C29.5157 19.3203 29.5157 19.3125 29.5156 19.3047C29.5003 19.2963 29.4846 19.2885 29.4688 19.2812V19.2578C29.4403 19.2239 29.409 19.1925 29.375 19.1641C29.3531 19.1391 29.3297 19.1156 29.3047 19.0938L26.5859 15.5312C26.565 15.4982 26.5415 15.4669 26.5156 15.4375C26.1328 15.0753 25.9523 14.7847 25.8828 14.5703C25.8133 14.3559 25.8326 14.2213 25.9062 14.0312C26.0536 13.6512 26.597 13.1203 27.3359 12.625C28.0749 12.1297 28.9598 11.6492 29.7031 11.1719C30.0748 10.9332 30.4042 10.7083 30.6875 10.4219C30.9708 10.1355 31.25 9.75847 31.25 9.25C31.25 7.81794 30.7827 6.15354 29.5625 3.50781C36.3118 6.60164 41 13.4585 41 21.4375C41 28.7543 37.4332 35.202 31.625 38.5938C31.5198 38.6539 31.4308 38.7386 31.3655 38.8406C31.3002 38.9427 31.2605 39.059 31.25 39.1797L30.5 48.1797C30.4822 48.393 30.3836 48.6233 30.2656 48.7656C30.1476 48.908 30.055 49 29.7969 49H29H15.5H13.2031C12.945 49 12.8524 48.908 12.7344 48.7656C12.6164 48.6233 12.5178 48.393 12.5 48.1797L11.75 39.1797C11.7395 39.059 11.6998 38.9427 11.6345 38.8406C11.5692 38.7386 11.4802 38.6539 11.375 38.5938C5.56679 35.202 2 28.7543 2 21.4375C2 16.7222 3.6086 12.3519 6.33594 8.96875C6.39753 8.89181 6.44336 8.80348 6.4708 8.70883C6.49825 8.61417 6.50679 8.51503 6.49592 8.41708C6.48505 8.31912 6.45499 8.22427 6.40745 8.13793C6.35992 8.0516 6.29584 7.97547 6.21888 7.9139C6.14192 7.85233 6.05358 7.80653 5.95892 7.77911C5.86425 7.75168 5.76511 7.74318 5.66716 7.75407C5.56921 7.76497 5.47436 7.79506 5.38804 7.84262C5.30172 7.89018 5.22561 7.95427 5.16406 8.03125C2.22137 11.6816 0.5 16.3814 0.5 21.4375C0.5 29.0918 4.19697 35.9199 10.2734 39.6484L11 48.2969C11.0406 48.7836 11.2038 49.2939 11.5625 49.7266C11.9212 50.1592 12.5201 50.5 13.2031 50.5H13.25V57.25C13.25 57.4489 13.329 57.6397 13.4697 57.7803C13.6103 57.921 13.8011 58 14 58H14.7734C15.121 61.6012 17.9441 64.75 21.5 64.75C25.0559 64.75 27.879 61.6012 28.2266 58H29C29.1989 58 29.3897 57.921 29.5303 57.7803C29.671 57.6397 29.75 57.4489 29.75 57.25V50.5H29.7969C30.4799 50.5 31.0788 50.1592 31.4375 49.7266C31.7962 49.2939 31.9594 48.7836 32 48.2969L32.7266 39.6484C38.803 35.9199 42.5 29.0918 42.5 21.4375C42.5 9.75126 33.093 0.25 21.5 0.25ZM14.75 50.5H15.5H28.25V56.5H27.5469H15.3594H14.75V50.5ZM16.3906 58H26.6094C26.252 60.8187 24.0909 63.25 21.5 63.25C18.9091 63.25 16.748 60.8187 16.3906 58Z" fill="#C23030"/>
</svg>
