<?xml version="1.0" encoding="utf-8"?>
<!-- Generator: Adobe Illustrator 25.0.1, SVG Export Plug-In . SVG Version: 6.00 Build 0)  -->
<svg version="1.1" id="Icon" xmlns="http://www.w3.org/2000/svg" xmlns:xlink="http://www.w3.org/1999/xlink" x="0px" y="0px"
	 viewBox="0 0 250 250" style="enable-background:new 0 0 250 250;" xml:space="preserve">
<style type="text/css">
	.st0{fill:#FFFFFF;}
</style>
<g>
	<path class="st0" d="M43,43.1c39.3-39.5,100.5-44.5,145.2-15c4.2-1.4,8.2-2.4,11.8-3C151.1-11.8,81.2-8,36.6,36.5
		c-25.6,25.7-38.7,60.9-36.4,97c0,1.2,1.2,2.2,2.6,2.2l4.4-0.4c1.2-0.2,2.2-1.2,2.2-2.4C7.3,99.3,19.5,66.8,43,43.1z"/>
	<path class="st0" d="M224.2,49.3c-0.6,3.4-1.4,7.4-2.8,11.8c29.8,44.9,25,106.4-14.6,145.9C162.7,251,91.4,252,46,209.7l23.6-20.8
		c6,0.4,15.8,1.2,25,1.6c11,0.4,21.8-4.4,28.4-13.2c1.4-1.8,2.8-3.8,4.4-5.6l-23.2-5.4c17,0.2,33-7.2,44.1-20c1.6-2,3.4-3.8,5-5.8
		c0,0,6.8-7.4,15-16.4l2.8-3.2c8.6-9.6,18.2-20.4,22.4-25.3c4-4.8,7.4-9.6,10.2-14l1.2-1.8c9.6-15.8,12.4-28.7,13-37.1l0.6-8
		L88.8,161.6L215.4,31.9h-8.6c-11.2,0.8-30.2,5.6-52.9,24.7c-5.2,4.4-16.2,14.2-26,23.1c-12.2,11-19.2,26.7-19.2,43.1
		c0,5,0,8.6,0,8.6l-6.8-28.1c-9.2,8-19,16.4-29.4,24.1c-8.8,6.8-13.6,17.4-13.2,28.5c0.4,9,1.2,19,1.6,24.9l-25.6,28.5
		c-0.8,1-0.8,2.4,0,3.4c48.5,48.5,127.4,49.9,176.6,1.8C257.9,169.6,261.9,98.5,224.2,49.3z"/>
</g>
</svg>
