<svg version="1.1" id="_x31_0" xmlns="http://www.w3.org/2000/svg" xmlns:xlink="http://www.w3.org/1999/xlink" x="0px" y="0px" viewBox="0 -60 512 512" style="width: 256px; height: 256px; opacity: 1;" xml:space="preserve">
<style type="text/css">
	.st0{fill:#FFFFFF;}
</style>
<g>
	<path class="st0" d="M447.66,35.508H64.34C28.863,35.508,0,64.363,0,99.828v165.898c0,35.477,28.863,64.34,64.34,64.34h383.32
		c35.477,0,64.34-28.863,64.34-64.34V99.828C512,64.363,483.137,35.508,447.66,35.508z M42.718,99.828
		c0-11.941,9.676-21.602,21.622-21.602h383.32c11.942,0,21.622,9.661,21.622,21.602v165.898c0,11.942-9.68,21.622-21.622,21.622
		H64.34c-11.946,0-21.622-9.68-21.622-21.622V99.828z" style="fill: #FFFFFF;"></path>
	<path class="st0" d="M121.043,241.137c0.855,1.523,2.469,2.469,4.218,2.469h261.477c1.746,0,3.363-0.946,4.218-2.469l30.59-54.922
		c0.406-0.707,0.613-1.524,0.613-2.344v-57.094c0-2.656-2.156-4.809-4.812-4.809H94.652c-2.656,0-4.812,2.153-4.812,4.809v57.094
		c0,0.82,0.222,1.637,0.613,2.344L121.043,241.137z M171.324,174.586v-1.153h169.352v1.153c0,9.695-7.856,17.55-17.551,17.55
		h-134.25C179.18,192.137,171.324,184.282,171.324,174.586z" style="fill: #FFFFFF;"></path>
</g>
</svg>
