<svg xmlns="http://www.w3.org/2000/svg" viewBox="0 0 4291.52 3977.33"><defs><style>.cls-1{fill:#fff;}.cls-2{fill:none;stroke:#fff;stroke-linecap:round;stroke-linejoin:round;stroke-width:5px;}</style></defs><g id="Layer_2" data-name="Layer 2"><g id="Layer_7" data-name="Layer 7"><path class="cls-1" d="M931,3697a190,190,0,0,1-189.79-190l14.25-415.66A268.85,268.85,0,0,1,977,2839.25l3126.22-533.2c105.4-18.76,141.67,59.4,152.37,93.87a189.62,189.62,0,0,1,7.52,71l-30.53,395.3a257.34,257.34,0,0,1-209.38,232.39L2944.83,3308.52a5,5,0,0,1-1.9-9.79l1078.42-209.95a247.36,247.36,0,0,0,201.3-223.37l30.53-395.28a179.45,179.45,0,0,0-7.1-67.25c-6.38-20.54-19.4-49.1-45.23-68.54-25.35-19.07-57.61-25.28-95.91-18.47L978.72,2849.07a258.88,258.88,0,0,0-213.34,242.68l-14.25,415.43A180,180,0,0,0,963.92,3684l1593.24-310.18a5,5,0,0,1,1.9,9.79L965.78,3693.8A191,191,0,0,1,931,3697Z"/><path class="cls-1" d="M1046.43,3304.67c-12.52,0-24.49-3.94-34-12.13-11.89-10.19-18.26-25.29-17.93-42.52.32-16.86,7-33.8,19-47.68s27.62-23.13,44.24-26c17-2.95,32.87,1,44.75,11.24s18.26,25.29,17.93,42.51c-.32,16.87-7,33.8-19,47.69h0C1086.33,3295.32,1065.73,3304.67,1046.43,3304.67Zm21.94-119.31a52.78,52.78,0,0,0-9,.79c-14.34,2.49-28,10.54-38.37,22.68s-16.29,26.83-16.56,41.38c-.27,14.2,4.86,26.54,14.45,34.77,20.08,17.22,53.7,11.07,74.94-13.7,10.4-12.13,16.28-26.83,16.56-41.38.26-14.2-4.87-26.55-14.46-34.77A41.67,41.67,0,0,0,1068.37,3185.36Zm29.23,89.17h0Z"/><path class="cls-1" d="M1413.17,3233.26c-12.52,0-24.49-3.94-34-12.13-24.25-20.8-23.79-61.26,1-90.2s64.74-35.58,89-14.77c11.89,10.19,18.26,25.29,17.93,42.52-.32,16.86-7,33.8-19,47.68C1453.07,3223.91,1432.47,3233.26,1413.17,3233.26ZM1435.05,3114c-16.43,0-34.23,8.19-47.33,23.47-21.24,24.77-22.18,58.93-2.1,76.15s53.7,11.07,74.94-13.7h0c10.4-12.13,16.28-26.83,16.55-41.38.27-14.2-4.86-26.55-14.45-34.77A41.81,41.81,0,0,0,1435.05,3114Z"/><path class="cls-1" d="M1802.54,3162.17c-12.52,0-24.5-3.94-34-12.13-11.89-10.19-18.26-25.29-17.93-42.52.32-16.86,7-33.8,19-47.68s27.61-23.13,44.23-26c17-3,32.87,1,44.76,11.24s18.26,25.29,17.93,42.51c-.32,16.87-7,33.8-19,47.69h0C1842.44,3152.82,1821.84,3162.17,1802.54,3162.17Zm21.94-119.31a52.78,52.78,0,0,0-9,.79c-14.34,2.49-28,10.54-38.38,22.68s-16.28,26.82-16.56,41.38c-.26,14.2,4.87,26.54,14.46,34.77,20.08,17.21,53.69,11.07,74.93-13.7,10.41-12.13,16.29-26.83,16.56-41.38.27-14.2-4.86-26.55-14.45-34.77A41.69,41.69,0,0,0,1824.48,3042.86Zm29.23,89.17h0Z"/><path class="cls-1" d="M975.16,3607.58a10,10,0,0,1-10-10V3383.17a10,10,0,0,1,8.26-9.82L1989.2,3196.53a10,10,0,0,1,11.66,10.5L1986.6,3417.7a10,10,0,0,1-8.18,9.14L976.93,3607.42A10.59,10.59,0,0,1,975.16,3607.58Zm10-216v194.13l982.1-177.08,12.88-190.25Z"/><path class="cls-1" d="M2145.93,3180.28a4.93,4.93,0,0,1-2.25-.54c-41.33-20.92-66.12-62.62-64.67-108.83l.07-2.28a220.13,220.13,0,0,1,181.66-209.9l712.06-126.05a117.73,117.73,0,0,1,137.9,124.85,219.18,219.18,0,0,1-95.21,165,5,5,0,0,1-5.63-8.23,209.26,209.26,0,0,0,90.9-157.54,107.74,107.74,0,0,0-126.23-114.27l-712.06,126.05A210.16,210.16,0,0,0,2089,3068.94l-.07,2.28a106.94,106.94,0,0,0,59.22,99.63,5,5,0,0,1-2.26,9.43Z"/><path class="cls-1" d="M4066.39,2851.66c-16.2,0-31.13-5.31-42.94-15.44-14.8-12.68-22.86-31.35-22.7-52.57.16-20.9,8.31-41.8,22.94-58.87s34.06-28.31,54.69-31.65c20.94-3.39,40.62,1.73,55.42,14.41s22.85,31.36,22.69,52.58c-.16,20.89-8.3,41.8-22.94,58.87h0c-14.63,17.07-34.06,28.3-54.69,31.65A78.33,78.33,0,0,1,4066.39,2851.66Zm24.42-149.58a68.3,68.3,0,0,0-10.84.89c-18.31,3-35.61,13-48.71,28.3s-20.4,33.91-20.54,52.46c-.14,18.22,6.69,34.18,19.22,44.93s29.33,15.05,47.33,12.14c18.31-3,35.61-13,48.71-28.3h0c13.11-15.28,20.4-33.91,20.54-52.46.14-18.23-6.69-34.19-19.21-44.93C4117.33,2706.56,4104.65,2702.08,4090.81,2702.08Zm39,113.66h0Z"/><path class="cls-1" d="M3589.55,3028.13a23.87,23.87,0,0,1-23.74-25.41l18.34-282.82a23.71,23.71,0,0,1,20.12-22L3891.62,2653a23.85,23.85,0,0,1,27.49,25.2l-18.33,269.42a23.92,23.92,0,0,1-19.06,21.77l-287.36,58.31A24.52,24.52,0,0,1,3589.55,3028.13Zm305.78-365.5a13.22,13.22,0,0,0-2.17.17l-287.35,44.92h0a13.82,13.82,0,0,0-11.72,12.82l-18.33,282.82a13.88,13.88,0,0,0,16.62,14.52l287.36-58.31a13.92,13.92,0,0,0,11.09-12.68l18.34-269.42a13.9,13.9,0,0,0-13.84-14.84ZM3605,2702.79h0Z"/><path class="cls-1" d="M3219.05,2922.14a19.36,19.36,0,0,1-19.33-19.36v-44.93a19.36,19.36,0,0,1,2.86-10.12l36.36-59.22a19.38,19.38,0,0,1,12.95-8.9l207.42-38.6a19.38,19.38,0,0,1,17.15,5.26l44.16,43.64a19.5,19.5,0,0,1,5.75,13.77v44.77a19.36,19.36,0,0,1-15.77,19l-287.94,54.33h0A19.18,19.18,0,0,1,3219.05,2922.14Zm2.69-5.24h0Zm241.11-166.25a9.1,9.1,0,0,0-1.72.16l-207.41,38.6a9.4,9.4,0,0,0-6.29,4.32l-36.36,59.21a9.46,9.46,0,0,0-1.38,4.91v44.93a9.37,9.37,0,0,0,11.12,9.22l287.94-54.32a9.41,9.41,0,0,0,7.65-9.23v-44.77a9.47,9.47,0,0,0-2.79-6.68l-44.16-43.64A9.39,9.39,0,0,0,3462.85,2750.65Z"/><path class="cls-1" d="M2266.6,3407.2c-22.22,0-46.18-19.63-68.22-56.17-23.47-38.9-42.44-92.78-53.42-151.73-1.45-7.77-2.76-15.64-3.89-23.41-7.93-54.33-7.7-106,.65-145.58,8.73-41.36,25.92-66.45,48.39-70.64,48.69-9,105.09,82,128.44,207.28s3.52,230.55-45.15,239.62A37,37,0,0,1,2266.6,3407.2ZM2197,2969a26.56,26.56,0,0,0-5,.47c-38.71,7.21-56.72,97.25-41,205,1.11,7.64,2.4,15.38,3.83,23,10.77,57.81,29.29,110.51,52.15,148.41,21.69,36,45.26,54.51,64.66,50.89,41.74-7.78,58.77-112.19,37.18-228C2288,3057.59,2237.89,2969,2197,2969Z"/><path class="cls-1" d="M2578.08,3302.24c-9.77,0-19.86-4.6-30.08-13.74a5,5,0,0,1,6.64-7.43c9.79,8.74,19,12.4,27.29,10.84,29-5.4,47.38-78.77,28.63-179.38s-62.38-162.46-91.32-157c-8.42,1.57-15.74,8.41-21.75,20.33a5,5,0,0,1-8.9-4.49c7.48-14.85,17.18-23.47,28.82-25.64,39.11-7.29,84.34,65.18,103,165s2.52,183.72-36.6,191A31,31,0,0,1,2578.08,3302.24Z"/><path class="cls-1" d="M2663.05,3286.85a5,5,0,0,1-.91-9.89c14.92-2.78,26.74-22.9,32.43-55.21,6.06-34.41,4.7-78.5-3.81-124.17-1.14-6.15-2.42-12.32-3.79-18.35-14.39-63.06-40.58-115.24-66.71-132.93a5,5,0,0,1,5.59-8.26c14,9.46,28,27.43,40.45,52s23,54.59,30.38,87c1.41,6.16,2.71,12.47,3.88,18.74,8.73,46.82,10.08,92.17,3.82,127.73-6.54,37.17-20.89,59.65-40.41,63.28A4.86,4.86,0,0,1,2663.05,3286.85Z"/><path class="cls-1" d="M2943.88,3135.71h0a5,5,0,0,1-5-5,423.84,423.84,0,0,0-7.51-78c-1.14-6.12-2.41-12.27-3.79-18.29-19.72-86.53-56.8-143.76-90.09-139.14a5,5,0,0,1-1.37-9.87c39.91-5.51,79.6,52.11,101.18,146.8,1.4,6.14,2.7,12.42,3.87,18.67a434.33,434.33,0,0,1,7.68,79.83A5,5,0,0,1,2943.88,3135.71Z"/><path class="cls-1" d="M2858,3743.13h0a5,5,0,0,1-4.94-5l5-605.91a5,5,0,0,1,5-4.94h0a5,5,0,0,1,4.95,5l-5,605.9A5,5,0,0,1,2858,3743.13Z"/><path class="cls-1" d="M2540.38,2960.54a5,5,0,0,1-3-1L2388.2,2846.75a5,5,0,0,1,2.13-8.89l79.59-14.25a4.9,4.9,0,0,1,3.86.91L2626,2938.18a5,5,0,1,1-6,8L2469.55,2833.8l-66.25,11.87,140.09,105.91a5,5,0,0,1-3,9Z"/><path class="cls-1" d="M2707.27,2935.35a5,5,0,0,1-3.09-1.07L2555,2816.43a5,5,0,0,1,2.21-8.82l79.59-14.25a5,5,0,0,1,3.95,1l150.79,117.8a5,5,0,1,1-6.14,7.85l-149-116.43-66.5,11.91,140.47,111a5,5,0,0,1-3.09,8.9Z"/><path class="cls-1" d="M2983.88,3227.06a5,5,0,0,1-.91-9.89c14.92-2.78,26.74-22.9,32.43-55.21,6.06-34.41,4.71-78.51-3.8-124.17-1.14-6.11-2.41-12.26-3.78-18.26-7.45-32.7-18.36-62.93-31.54-87.42a149.79,149.79,0,0,0-41.81-48.29L2791,2775.92l-66.12,11.84,141.79,105.57a5,5,0,0,1-6,8l-151-112.44a5,5,0,0,1,2.1-8.91l79.59-14.25a5,5,0,0,1,3.87.92l145.23,109.2a159.91,159.91,0,0,1,44.6,51.54c13.6,25.27,24.83,56.37,32.48,89.92,1.39,6.14,2.69,12.41,3.86,18.65,8.72,46.81,10.08,92.17,3.82,127.72-6.55,37.18-20.9,59.65-40.42,63.29A4.86,4.86,0,0,1,2983.88,3227.06Z"/><path class="cls-1" d="M2505.17,3363.29a5,5,0,0,1-.91-9.88c41.74-7.78,58.77-112.19,37.19-228-10.78-57.81-29.3-110.51-52.16-148.41-21.69-36-45.26-54.5-64.66-50.89a5,5,0,0,1-1.83-9.8c24.07-4.49,50.71,15.24,75,55.54,23.46,38.9,42.43,92.78,53.42,151.73,23.35,125.3,3.51,230.55-45.16,239.63A5.82,5.82,0,0,1,2505.17,3363.29Z"/><path class="cls-1" d="M2272.48,3406.66a5,5,0,0,1-.91-9.89l232.69-43.36a5,5,0,1,1,1.83,9.8l-232.69,43.36A4.86,4.86,0,0,1,2272.48,3406.66Z"/><path class="cls-1" d="M2191,2969.56a5,5,0,0,1-.91-9.89l232.69-43.36a5,5,0,1,1,1.83,9.8l-232.69,43.37A5.82,5.82,0,0,1,2191,2969.56Z"/><path class="cls-1" d="M2387,2932.7h-.25a5,5,0,0,1-4.74-5.22l3.72-77.9a5,5,0,0,1,10,.48L2392,2928A5,5,0,0,1,2387,2932.7Z"/><path class="cls-1" d="M2549.81,2891.37h-.26a5,5,0,0,1-4.72-5.23l3.72-71.78a5,5,0,0,1,5.23-4.72,5,5,0,0,1,4.72,5.24l-3.71,71.77A5,5,0,0,1,2549.81,2891.37Z"/><path class="cls-1" d="M2708.41,2856.34h-.31a5,5,0,0,1-4.67-5.28l3.72-60.22a5,5,0,1,1,9.95.61l-3.72,60.22A5,5,0,0,1,2708.41,2856.34Z"/><path class="cls-1" d="M2699,3777.63h0a5,5,0,0,1-5-5l3.6-573.64a5,5,0,0,1,5-4.95h0a5,5,0,0,1,4.95,5L2704,3772.68A5,5,0,0,1,2699,3777.63Z"/><path class="cls-1" d="M2772.13,2906.54a5,5,0,0,1-.85-9.9l75.48-13a5,5,0,1,1,1.7,9.82l-75.48,13A4.88,4.88,0,0,1,2772.13,2906.54Z"/><path class="cls-1" d="M2703.84,3781.69a21.48,21.48,0,0,1-15-6.15l-126.41-123.22a22.17,22.17,0,0,1-6.66-15.83l.61-339.26a5,5,0,0,1,5-5h0a5,5,0,0,1,5,5l-.61,339.26a12.17,12.17,0,0,0,3.65,8.68l126.41,123.21a11.56,11.56,0,0,0,10.84,3l59.84-14.29a9.22,9.22,0,0,0,7.09-8.92l4.14-565.13c.65-26.57.48-61.91-6.7-100.42-1.14-6.14-2.42-12.3-3.79-18.33-19.37-84.91-58.06-144.72-90-139.12l-67,11.82a5,5,0,0,1-1.73-9.82l67-11.82c38.48-6.77,80.2,53.59,101.45,146.73,1.4,6.15,2.7,12.45,3.87,18.72,7.35,39.42,7.53,75.43,6.87,102.4l-4.14,565.05a19.17,19.17,0,0,1-14.75,18.54l-59.84,14.29A21.88,21.88,0,0,1,2703.84,3781.69Z"/><path class="cls-2" d="M2720.75,3059.93"/><path class="cls-1" d="M2863.52,3747.74a23.2,23.2,0,0,1-16.21-6.61l-71.61-69.81a5,5,0,1,1,7-7.14l71.61,69.81a13.25,13.25,0,0,0,12.22,3.45l59.25-13.4a9,9,0,0,0,6.83-8.63l6.33-584.74a5,5,0,1,1,10,.11l-6.33,584.74a18.92,18.92,0,0,1-14.54,18.23l-59.31,13.41A23.35,23.35,0,0,1,2863.52,3747.74Z"/><path class="cls-1" d="M2584,3301.51a5,5,0,0,1-.9-9.89l79.09-14.66a5,5,0,1,1,1.81,9.8l-79.09,14.66A4.76,4.76,0,0,1,2584,3301.51Z"/><path class="cls-1" d="M2782.09,3264.42a5,5,0,0,1-.9-9.89l38-7c15.18-2.83,27.62-23.08,34.14-55.55,7-35,6.28-79.17-2.12-124.27-1.14-6.12-2.42-12.28-3.79-18.3-12.71-55.75-34.29-102.68-57.73-125.54-1.45-1.42-2.92-2.74-4.36-4a5,5,0,1,1,6.38-7.66c1.64,1.37,3.3,2.87,4.94,4.47,24.76,24.15,47.37,72.92,60.49,130.46,1.4,6.16,2.7,12.45,3.87,18.7,8.63,46.32,9.38,91.8,2.1,128-7.47,37.21-22.42,59.72-42.1,63.39l-38,7A4.78,4.78,0,0,1,2782.09,3264.42Z"/><path class="cls-1" d="M2943.84,3234.89a5,5,0,0,1-1-9.87l37.6-7.41a5,5,0,0,1,1.93,9.78l-37.61,7.41A5.31,5.31,0,0,1,2943.84,3234.89Z"/><path class="cls-1" d="M2552.92,3277a5,5,0,0,1-1-9.88l23.65-4.64c9.56-1.77,17.1-18.13,20.22-43.76,3.44-28.24,1.45-64.66-5.61-102.55-14.75-79.15-45-131.41-64.43-131.41l-.56,0-25.21,4.35a5,5,0,0,1-1.7-9.82l25.71-4.44a4.81,4.81,0,0,1,1.13-.07h.63c31.33,0,61.53,71.4,74.23,139.55,7.24,38.87,9.27,76.37,5.71,105.59-3.85,31.52-13.61,49.62-28.24,52.35l-23.61,4.63A5.39,5.39,0,0,1,2552.92,3277Z"/><path class="cls-1" d="M2472,3977.33c-4.55,0-10-1-18.27-3.4a199.4,199.4,0,0,1-71.7-38l-482.23-396.36L945.44,3716a184.84,184.84,0,0,1-33.67,3.14c-57.81,0-104.56-28-144.69-55.26-.38-.26-.76-.53-1.12-.82-162.47-127.85-693.23-545.6-701.61-553.56A204.88,204.88,0,0,1,0,2959.52c0-.26,0-.52,0-.79l17.24-437.68a286.57,286.57,0,0,1,236.22-268.82l.41-.07,3074.17-479a206.21,206.21,0,0,1,144.09,27.26c2.09,1.28,4.25,2.66,6.4,4.1,170.39,108.78,726.12,463.75,737.89,473.48h0a207.2,207.2,0,0,1,74.44,175.79L4259,2866.07c-9.79,123.6-101.7,225.67-223.54,248.31L2983.85,3331.64l-1.69,144.7L3324.22,3740a50.09,50.09,0,0,1,19.56,38.48,48.48,48.48,0,0,1-16.8,38.27q-1.16,1-2.4,2c-63.37,48.37-126.07,90.64-252,118.09-124.74,27.2-309.93,39.72-600.46,40.57Zm-566.71-479a19.9,19.9,0,0,1,12.66,4.53l489.39,402.25a160,160,0,0,0,57.44,30.49,61.1,61.1,0,0,0,7.59,1.84c287.36-.86,469.87-13.09,591.68-39.65,118.12-25.76,174.66-63.79,236.3-110.84.19-.14.38-.3.56-.45a8.62,8.62,0,0,0,3-7,10.39,10.39,0,0,0-4-8l-350-269.7a20,20,0,0,1-7.76-16l2-170.69a19.93,19.93,0,0,1,15.91-19.29L4027.63,3075.3l.41-.08A235.07,235.07,0,0,0,4219.29,2863l31.83-412.27c4.35-54.89-17.44-106.5-59.79-141.7-21-15.11-536.74-344.77-734.41-471l-.35-.22c-1.78-1.19-3.56-2.34-5.29-3.4a166.51,166.51,0,0,0-116.43-21.94l-.43.07-3074.17,479A246.74,246.74,0,0,0,57.09,2522.78L39.88,2959.89a165.31,165.31,0,0,0,51.66,120.4c16.69,14.16,463.3,365.87,698.52,551,52.17,35.38,95.21,55.3,148.13,45.5l963.52-178.07A19.27,19.27,0,0,1,1905.33,3498.35ZM91.77,3080.51l0,0ZM4191,2308.73Z"/><path class="cls-1" d="M1811.58,3327.38a5,5,0,0,1-5-5V539.14a5,5,0,0,1,10,0V3322.4A5,5,0,0,1,1811.58,3327.38Z"/><path class="cls-1" d="M1783.47,3321a28.11,28.11,0,1,0,28.11-28.11A28.12,28.12,0,0,0,1783.47,3321Z"/><path class="cls-1" d="M434.69,4.15H446v112h63v10.06H434.69Z"/><path class="cls-1" d="M523.37,84.37c0-25.2,13.56-43.86,36.68-43.86,25.21,0,36.53,18.66,36.53,43.86,0,25.69-13.24,43.87-36.53,43.87C535,128.24,523.37,109.9,523.37,84.37Zm11.32,0c0,21.54,8,35.09,25.52,35.09,16.91,0,24.89-13.55,24.89-35.09s-7.66-35.24-25.05-35.24C543.63,49.13,534.69,62.84,534.69,84.37Z"/><path class="cls-1" d="M615.08,84.37c0-25.2,13.55-43.86,36.68-43.86,25.2,0,36.53,18.66,36.53,43.86,0,25.69-13.24,43.87-36.53,43.87C626.72,128.24,615.08,109.9,615.08,84.37Zm11.32,0c0,21.54,8,35.09,25.52,35.09,16.91,0,24.88-13.55,24.88-35.09s-7.65-35.24-25-35.24C635.33,49.13,626.4,62.84,626.4,84.37Z"/><path class="cls-1" d="M722.58,126.17H711.41V.48h11.17V85.17L760.7,42.58h13.24L745.23,74l33.49,52.16H765.64L737.73,82.3,722.58,99.05Z"/><path class="cls-1" d="M856.24,126.17H845.07v-75H828.8V42.58h16.27v-21C845.07,7.18,854.16,0,868.36,0a40.25,40.25,0,0,1,8.45.79v9.26a33,33,0,0,0-8-.8c-8.61,0-12.6,4-12.6,14.2V42.58h21.21V51.2H856.24Z"/><path class="cls-1" d="M888.62,84.37c0-25.2,13.55-43.86,36.68-43.86,25.2,0,36.53,18.66,36.53,43.86,0,25.69-13.24,43.87-36.53,43.87C900.26,128.24,888.62,109.9,888.62,84.37Zm11.32,0c0,21.54,8,35.09,25.52,35.09,16.91,0,24.88-13.55,24.88-35.09s-7.65-35.24-25-35.24C908.87,49.13,899.94,62.84,899.94,84.37Z"/><path class="cls-1" d="M985.75,42.58h10.37V60h.32c3.51-9.73,13.71-19,26.31-19h1.44V52H1022c-13.08,0-25.05,8.61-25.05,28.39v45.78H985.75Z"/><path class="cls-1" d="M1103.46,17.54v25h21.37V51.2h-21.37v54.07c0,8.93,3.83,12.76,13.4,12.76a55.86,55.86,0,0,0,9.57-1v9.25a52.26,52.26,0,0,1-12.28,1.28c-16.12,0-21.7-8.61-21.7-21V51.2h-16V42.9h3.67c10.69,0,12.92-2.39,12.92-17.7V17.54Z"/><path class="cls-1" d="M1199.64,73.21c0-6.86-.64-13.24-3.67-17.39-2.87-4-7.5-5.9-14-5.9-17.22,0-24.72,12.76-24.72,27v49.29H1146V.48h11.17V57.26h.32c3.83-9.25,13.08-16.75,27-16.75,18,0,26.16,9.73,26.16,28.87v56.79h-11Z"/><path class="cls-1" d="M1271.25,128.24c-25.52,0-37.16-17.07-37.16-43.23,0-25.36,12.92-44.5,36.68-44.5,24.72,0,33.5,19.78,33.5,39.56v6.86h-59c.64,20.25,8.61,32.53,26.16,32.53,14.67,0,19.62-9.56,21-14.19H1303C1300,118,1287.68,128.24,1271.25,128.24Zm21.85-50.56c-.16-13.08-4.62-28.55-22.33-28.55-15.63,0-23.92,12.12-25.36,29.34h47.69Z"/><path class="cls-1" d="M1368.54,4.15h40.36c34.93,0,60.29,17.22,60.29,59.49s-24.41,62.53-59.34,62.53h-41.31Zm39.4,104.79c22.81,0,37.8-11.64,37.8-44.82,0-31.42-15.15-42.91-36.84-42.91h-18v87.73Z"/><path class="cls-1" d="M1525.17,128.24c-26.8,0-40.68-17.86-40.68-44.5,0-25.84,14.84-44.66,40.52-44.66,27.91,0,39.23,19.14,39.23,42.9v6.86h-58c1,16.11,7.17,24.56,19.77,24.56,11.49,0,14.84-6.06,16.27-11.16h21.06C1560.58,118.51,1547,128.24,1525.17,128.24Zm17.22-53.76c-.79-12.75-5.74-21.37-17.54-21.37-11,0-17.07,8.46-18.5,22.33h36Z"/><path class="cls-1" d="M1571.9,41.15h21.69l15.15,47.05a173.19,173.19,0,0,1,4.63,17.07h.32s1.91-8.45,4.62-17.07l15.48-47.05h20.57l-30,85H1602Z"/><path class="cls-1" d="M1669,4.63h21.85V24.88H1669Zm.16,36.52h21.54v85h-21.54Z"/><path class="cls-1" d="M1767.28,70c-.79-8.93-5.74-16.11-16.27-16.11-13.87,0-19.3,13.24-19.3,29.51,0,15.31,3.83,29.67,19.14,29.67,12.76,0,16.91-9.58,17.23-17.07h20.74c-1.28,21.37-17.07,32.22-38.13,32.22-26.31,0-41-16.91-41-44.5,0-27,15.63-44.66,41.31-44.66,20.74,0,36.37,9.89,37.33,30.94Z"/><path class="cls-1" d="M1842.72,128.24c-26.79,0-40.67-17.86-40.67-44.5,0-25.84,14.83-44.66,40.51-44.66,27.92,0,39.24,19.14,39.24,42.9v6.86h-58.06c1,16.11,7.18,24.56,19.78,24.56,11.48,0,14.83-6.06,16.27-11.16h21C1878.13,118.51,1864.57,128.24,1842.72,128.24ZM1860,74.48c-.8-12.75-5.74-21.37-17.55-21.37-11,0-17.06,8.46-18.5,22.33h36Z"/><path class="cls-1" d="M1941.13,4.15h25.52L2011.31,79a97.08,97.08,0,0,1,7.81,16h.48V4.15H2040v122h-24.56l-45.3-75.61a108.42,108.42,0,0,1-8.3-16.11h-.31v91.72h-20.42Z"/><path class="cls-1" d="M2063,65.71c.64-16.26,13.56-26.47,35.09-26.47,25.2,0,34.93,10.37,34.93,33v31.26c0,5.43,1.6,7.5,7.18,7.5v15.47h-6.06c-12.6,0-18-3.19-20.26-12.92h-.48c-4.94,8.78-13.87,13.72-26.15,13.72-17.39,0-28.08-9.25-28.08-24.88,0-9.73,4.15-16.91,12.76-21.37,8.94-4.63,21.86-5.75,40.2-6.55v-4.3c0-11.49-4.47-16.75-14.2-16.75-9.89,0-14,5.58-14.35,12.28Zm49.29,23.61V86.93c-15,.79-23,2.07-27.44,5.26-3,2.08-4.3,5.26-4.3,9.25,0,7,4.62,11.49,12.44,11.49C2102.38,112.93,2112.27,105.91,2112.27,89.32Z"/><path class="cls-1" d="M2157.25,41.15h20.57v14.2h.32c4.31-8.46,13.24-16.11,27.12-16.11,14.67,0,23,6.53,26.15,17.7h.32c3.35-8.29,12.92-17.7,27.92-17.7,18.5,0,28.07,9.73,28.07,30.3v56.63h-21.54V75.44c0-6.06-.16-11.48-2.71-15.15-2.55-3.51-6.54-4.94-11.64-4.94-12.28,0-18.66,8.13-18.66,21.05v49.77H2211.8V75.44c0-6.06-.32-11.48-2.72-15s-6.54-5.1-11.64-5.1c-12.44,0-18.66,8.13-18.66,20.89v49.93h-21.53Z"/><path class="cls-1" d="M2346.25,128.24c-26.8,0-40.67-17.86-40.67-44.5,0-25.84,14.83-44.66,40.51-44.66,27.91,0,39.24,19.14,39.24,42.9v6.86h-58.06c1,16.11,7.18,24.56,19.78,24.56,11.48,0,14.83-6.06,16.27-11.16h21C2381.66,118.51,2368.1,128.24,2346.25,128.24Zm17.23-53.76c-.8-12.75-5.75-21.37-17.55-21.37-11,0-17.07,8.46-18.5,22.33h36.05Z"/><path class="cls-1" d="M2447.21,64.76c.16-13.08,11.48-24.25,30.31-24.25,23.12,0,29.66,12.76,29.66,30.79v36.36c0,7.66,2.24,10.37,8.14,10.53V127h-1.44c-12,0-16.27-5.26-16.9-16.43h-.32c-5.11,10.85-15.32,16.91-28.08,16.91-15.63,0-25.68-8.61-25.68-23.45,0-9.56,4.15-16.43,11.49-20.41,8.29-4.63,22-6.06,42.27-7.18V71.14c0-13.08-4.63-22.17-19.46-22.17-12.76,0-18.82,7.17-19.46,15.79Zm49.29,23.76V85c-20.74,1.28-31.27,2.55-36.53,6.38-3.83,2.72-5.74,6.86-5.74,12.12,0,9.89,6.54,15,16.59,15C2482.78,118.51,2496.5,109.1,2496.5,88.52Z"/><path class="cls-1" d="M2591.4,73.37c0-7-.64-13.4-3.67-17.55-2.87-4-7.5-5.9-14-5.9-17.07,0-24.72,12.6-24.72,27v49.29H2537.8V42.58h10.37V57.42h.32c4.47-9.41,13.88-16.91,27.75-16.91,18,0,26.16,9.73,26.16,28.87v56.79h-11Z"/><path class="cls-1" d="M2698.42,126.17h-10.53V111.65h-.48c-4.3,8.61-12.92,16.59-26.47,16.59-16.75,0-35.09-10.05-35.09-43.39,0-28.55,14.35-44.34,35.88-44.34,12.44,0,21.38,6.54,25.2,15.79h.32V.48h11.17Zm-10.85-48c0-15.64-9.25-28.71-24.56-28.71-17.55,0-25.68,14.51-25.68,34.77,0,20.73,7,35.08,24.72,35.08,16.91,0,25.52-13.87,25.52-28.07Z"/><path class="cls-1" d="M2833.83,37.16c-1-9.57-6.86-18.34-20.89-18.34-13.08,0-20.74,7.34-20.74,16.91,0,9.25,5,14.51,17.55,16.91L2827.93,56c22.33,4.15,32.06,15.63,32.06,33.5,0,24.72-16.91,39.08-47.37,39.08-29.51,0-46.42-13.56-47.69-37.17h23.12c1.44,11.49,9.42,20.58,25,20.58,17.22,0,23.92-8.46,23.92-18.82,0-9.25-4.94-14.68-18.5-17.23l-17.87-3.35c-20.57-3.83-31.58-15.79-31.58-34,0-20.9,16.27-36.21,44-36.21,29.35,0,42.42,14.36,43.38,34.77Z"/><path class="cls-1" d="M2916.45,128.24c-26.8,0-40.67-17.86-40.67-44.5,0-25.84,14.83-44.66,40.51-44.66,27.91,0,39.24,19.14,39.24,42.9v6.86h-58.06c1,16.11,7.18,24.56,19.77,24.56,11.49,0,14.84-6.06,16.28-11.16h21.05C2951.86,118.51,2938.3,128.24,2916.45,128.24Zm17.22-53.76c-.79-12.75-5.74-21.37-17.54-21.37-11,0-17.07,8.46-18.5,22.33h36Z"/><path class="cls-1" d="M2973.71,41.15H2994V58.37h.32c4.47-11.48,15.95-18.66,27.76-18.66h1.43v20.1h-4c-15.16,0-24.41,6.38-24.41,22.81v43.55h-21.37Z"/><path class="cls-1" d="M3039.74,4.63h21.85V24.88h-21.85Zm.16,36.52h21.53v85H3039.9Z"/><path class="cls-1" d="M3083.28,65.71c.64-16.26,13.56-26.47,35.09-26.47,25.2,0,34.93,10.37,34.93,33v31.26c0,5.43,1.6,7.5,7.18,7.5v15.47h-6.06c-12.6,0-18-3.19-20.26-12.92h-.48c-4.94,8.78-13.87,13.72-26.16,13.72-17.38,0-28.07-9.25-28.07-24.88,0-9.73,4.15-16.91,12.76-21.37,8.93-4.63,21.85-5.75,40.2-6.55v-4.3c0-11.49-4.47-16.75-14.2-16.75-9.89,0-14,5.58-14.36,12.28Zm49.28,23.61V86.93c-15,.79-23,2.07-27.43,5.26-3,2.08-4.3,5.26-4.3,9.25,0,7,4.62,11.49,12.44,11.49C3122.68,112.93,3132.56,105.91,3132.56,89.32Z"/><path class="cls-1" d="M3177.54.48h21.53V126.17h-21.53Z"/><path class="cls-1" d="M605.67,195.54h25.52l44.66,74.81a97.08,97.08,0,0,1,7.81,15.95h.48V195.54h20.42v122H680L634.7,242a108.42,108.42,0,0,1-8.3-16.11h-.32v91.71H605.67Z"/><path class="cls-1" d="M751.13,283.11c0,6.06.32,11.64,2.87,15.15,2.39,3.51,6.38,5.11,11.48,5.11,12.76,0,19-8.62,19-24.41V232.55h21.38v85H785.26v-14h-.32c-4.14,8.62-12.92,15.79-26.63,15.79-19,0-28.4-9.24-28.4-29.18V232.55h21.22Z"/><path class="cls-1" d="M830.4,232.55H851v14.19h.32c4.31-8.45,13.24-16.11,27.12-16.11,14.67,0,23,6.54,26.16,17.71h.32c3.34-8.3,12.91-17.71,27.91-17.71,18.5,0,28.07,9.73,28.07,30.31v56.62H939.34V266.84c0-6.06-.16-11.48-2.71-15.15-2.56-3.51-6.54-4.95-11.65-4.95-12.28,0-18.66,8.14-18.66,21.06v49.76H885V266.84c0-6.06-.32-11.48-2.71-15-2.56-3.51-6.54-5.11-11.65-5.11-12.44,0-18.66,8.14-18.66,20.9v49.92H830.4Z"/><path class="cls-1" d="M984.47,191.88H1006v53.9h.32c4.31-8.29,13.4-15.15,26-15.15,19.14,0,34.14,12.13,34.14,43.87,0,29.66-14.68,45.13-35.57,45.13-12.92,0-21.22-6.37-25.68-14.35h-.32v12.28H984.47Zm60.29,82.77c0-18-5.42-28.71-19.46-28.71-12,0-19.77,9.9-19.77,24.09v9.09c0,14.52,6.69,25.52,19.93,25.52C1037.9,304.64,1044.76,294.27,1044.76,274.65Z"/><path class="cls-1" d="M1121.32,319.63c-26.8,0-40.67-17.86-40.67-44.5,0-25.84,14.83-44.66,40.51-44.66,27.91,0,39.23,19.14,39.23,42.91v6.86h-58.05c1,16.11,7.17,24.56,19.78,24.56,11.48,0,14.83-6.06,16.26-11.16h21.06C1156.73,309.91,1143.17,319.63,1121.32,319.63Zm17.22-53.75c-.79-12.76-5.74-21.37-17.54-21.37-11,0-17.07,8.46-18.5,22.33h36Z"/><path class="cls-1" d="M1178.58,232.55h20.25v17.22h.32c4.47-11.48,15.95-18.66,27.76-18.66h1.43v20.1h-4c-15.15,0-24.4,6.38-24.4,22.81v43.54h-21.37Z"/><path class="cls-1" d="M1283.21,275.77c0-25.2,13.55-43.86,36.68-43.86,25.2,0,36.53,18.66,36.53,43.86,0,25.68-13.24,43.86-36.53,43.86C1294.85,319.63,1283.21,301.29,1283.21,275.77Zm11.32,0c0,21.54,8,35.09,25.52,35.09,16.91,0,24.88-13.55,24.88-35.09s-7.65-35.25-25-35.25C1303.46,240.52,1294.53,254.24,1294.53,275.77Z"/><path class="cls-1" d="M1433.93,264.77c0-7-.64-13.4-3.67-17.55-2.87-4-7.49-5.9-14-5.9-17.07,0-24.73,12.6-24.73,27v49.28h-11.16V234h10.37v14.84h.32c4.46-9.41,13.87-16.91,27.75-16.91,18,0,26.16,9.73,26.16,28.87v56.78h-11Z"/><path class="cls-1" d="M1532.82,208.94v25h21.37v8.62h-21.37v54.07c0,8.93,3.83,12.76,13.4,12.76a55.86,55.86,0,0,0,9.57-1v9.25a52.26,52.26,0,0,1-12.28,1.28c-16.11,0-21.7-8.61-21.7-21.06V242.6h-16v-8.3h3.67c10.69,0,12.92-2.39,12.92-17.7v-7.66Z"/><path class="cls-1" d="M1629,264.61c0-6.86-.64-13.24-3.67-17.39-2.87-4-7.5-5.9-14-5.9-17.22,0-24.72,12.76-24.72,27v49.28H1575.4V191.88h11.17v56.78h.32c3.83-9.25,13.08-16.75,26.95-16.75,18,0,26.16,9.73,26.16,28.87v56.78h-11Z"/><path class="cls-1" d="M1700.61,319.63c-25.52,0-37.16-17.06-37.16-43.22,0-25.36,12.92-44.5,36.68-44.5,24.72,0,33.5,19.78,33.5,39.56v6.85h-59c.64,20.26,8.61,32.54,26.16,32.54,14.67,0,19.62-9.57,21-14.19h10.53C1729.32,309.43,1717,319.63,1700.61,319.63Zm21.85-50.56c-.16-13.08-4.62-28.55-22.33-28.55-15.63,0-23.92,12.13-25.36,29.35h47.69Z"/><path class="cls-1" d="M1799.66,191.88h11.16v56.46h.16c5-10.21,14.52-16.43,27.44-16.43,17.38,0,33.65,11.16,33.65,43.38,0,30.31-16.11,44.34-35.25,44.34a28.59,28.59,0,0,1-26.48-16.42H1810v14.35h-10.37Zm61.09,83.41c0-19-6.06-34.45-24.57-34.45-17.06,0-25.68,13.56-25.68,27.6v13.08c0,14.67,8,29.18,25.36,29.18C1852.45,310.7,1860.75,297.31,1860.75,275.29Z"/><path class="cls-1" d="M1893.6,256.15c.16-13.08,11.48-24.24,30.31-24.24,23.12,0,29.66,12.76,29.66,30.78v36.37c0,7.65,2.24,10.37,8.14,10.53v8.77h-1.44c-12,0-16.27-5.26-16.9-16.43h-.32c-5.11,10.85-15.32,16.91-28.08,16.91-15.63,0-25.68-8.61-25.68-23.45,0-9.57,4.15-16.43,11.49-20.42,8.29-4.62,22-6.06,42.27-7.17v-5.27c0-13.08-4.63-22.17-19.46-22.17-12.76,0-18.82,7.18-19.46,15.79Zm49.29,23.77v-3.51c-20.74,1.28-31.27,2.55-36.53,6.38-3.83,2.71-5.74,6.86-5.74,12.12,0,9.89,6.54,15,16.59,15C1929.17,309.91,1942.89,300.5,1942.89,279.92Z"/><path class="cls-1" d="M2036,257.27c-1-8.45-7.82-16.59-20.89-16.59-16.11,0-25.68,13.08-25.68,34.93,0,21.54,7.33,35.09,25.2,35.09,15.63,0,20.41-10.36,21.85-18.82h10.69c-2.56,18.35-15.48,27.75-32.7,27.75-24.25,0-36.53-17.06-36.53-43.22,0-25.52,13.56-44.66,37-44.66,15.15,0,30,7,32.06,25.52Z"/><path class="cls-1" d="M2080.69,317.56h-11.17V191.88h11.17v84.69L2118.81,234h13.24l-28.71,31.43,33.49,52.15h-13.08l-27.91-43.86-15.15,16.74Z"/><path class="cls-1" d="M2192.34,275.77c0-25.2,13.55-43.86,36.68-43.86,25.2,0,36.53,18.66,36.53,43.86,0,25.68-13.24,43.86-36.53,43.86C2204,319.63,2192.34,301.29,2192.34,275.77Zm11.32,0c0,21.54,8,35.09,25.52,35.09,16.91,0,24.88-13.55,24.88-35.09s-7.65-35.25-25-35.25C2212.59,240.52,2203.66,254.24,2203.66,275.77Z"/><path class="cls-1" d="M2304.46,317.56H2293.3v-75H2277V234h16.27v-21c0-14.36,9.09-21.53,23.28-21.53a40.28,40.28,0,0,1,8.46.79v9.25a33.22,33.22,0,0,0-8-.79c-8.61,0-12.6,4-12.6,14.19V234h21.22v8.62h-21.22Z"/><path class="cls-1" d="M2376.87,234H2388l19.3,57.26c2.23,6.7,3.83,12.13,3.83,12.13h.31s1.76-5.74,3.83-12.13L2434.45,234h11l-31.1,90.28c-6.38,18.5-12.45,25-27.76,25a33.63,33.63,0,0,1-9.41-1.43v-9.25a33,33,0,0,0,8.93,1.43c10.05,0,13.56-5.1,17.23-15.31l2.55-7Z"/><path class="cls-1" d="M2458.53,275.77c0-25.2,13.56-43.86,36.69-43.86,25.2,0,36.53,18.66,36.53,43.86,0,25.68-13.24,43.86-36.53,43.86C2470.18,319.63,2458.53,301.29,2458.53,275.77Zm11.33,0c0,21.54,8,35.09,25.52,35.09,16.91,0,24.88-13.55,24.88-35.09s-7.65-35.25-25-35.25C2478.79,240.52,2469.86,254.24,2469.86,275.77Z"/><path class="cls-1" d="M2566.35,287.42c0,6.69.64,13.08,3.67,17.06,2.87,3.83,7.66,5.91,14.52,5.91,16.11,0,24.08-12.45,24.08-31.27V234h11v83.58h-10.37V302.09h-.32a28.34,28.34,0,0,1-26.8,17.54c-17.86,0-26.79-9.4-26.79-28.55V234h11Z"/><path class="cls-1" d="M2650.57,234h10.36v17.39h.32c3.51-9.73,13.72-19,26.32-19H2689v11h-2.24c-13.08,0-25,8.62-25,28.39v45.78h-11.16Z"/><path class="cls-1" d="M2755.67,195.54H2767v112h63v10.05h-74.33Z"/><path class="cls-1" d="M2865.25,317.56h-11.33v-122h71.3v10.05h-60v49h54.55v9.89h-54.55Z"/><path class="cls-1" d="M2967.33,226.81h-24.09v-8.46H2948c8.13,0,13.24-1.12,16.59-4.15s4.14-7.65,4.46-15.47h9.41V317.56h-11.16Z"/><path class="cls-1" d="M3010.39,302.41h15.15v15.15h-15.15Z"/></g></g></svg>