<svg xmlns="http://www.w3.org/2000/svg" viewBox="0 0 3744.15 4084.64"><defs><style>.cls-1{fill:#fff;}</style></defs><g id="Layer_2" data-name="Layer 2"><g id="Layer_7" data-name="Layer 7"><path class="cls-1" d="M1129.44,4084.64a405.27,405.27,0,0,1-336.94-180L122.36,2905.71A395.18,395.18,0,0,1,69.2,2789.44,2445.14,2445.14,0,0,1,13.46,2527c-23.4-149.76-10.56-400-4-500.62A347.34,347.34,0,0,1,37,1911.91c21.81-50.84,58.8-127.94,111.17-206.49,33-49.54,69.73-99.89,109.09-149.65a283.55,283.55,0,0,1,177-104.15l2030.42-332,3.21,19.67-3.21-19.67a371.16,371.16,0,0,1,335.41,117.58l865.44,958.65a218.3,218.3,0,0,1,54.92,124.47c6.89,71.34,19.06,216.68,23,388.56,4.25,182.48-12.41,365.72-22.71,458.7a306,306,0,0,1-42.16,124.2c-19.55,32.19-51.8,82.8-94.48,141.1-29.75,40.63-66.29,83.83-108.61,128.41a370.63,370.63,0,0,1-198.4,109L1208.34,4076.94A409,409,0,0,1,1129.44,4084.64ZM2471.08,1159,440.67,1491a243.69,243.69,0,0,0-152.15,89.53c-38.69,48.91-74.75,98.38-107.18,147-50.7,76-86.55,150.78-107.71,200.09A307.52,307.52,0,0,0,49.29,2029c-6.52,99.31-19.22,346,3.57,491.86a2400.94,2400.94,0,0,0,54.81,258.07,355.46,355.46,0,0,0,47.8,104.56l670.15,998.89a365.63,365.63,0,0,0,375,155.44l2068.77-406.61a331,331,0,0,0,177.17-97.36c41.16-43.36,76.61-85.25,105.36-124.52,41.84-57.14,73.43-106.71,92.56-138.24a265.63,265.63,0,0,0,36.61-107.89c10.2-92,26.68-273.22,22.49-453.38-4-170.62-16-314.86-22.88-385.66a178.21,178.21,0,0,0-44.83-101.58l-865.44-958.65a330,330,0,0,0-299.38-105Z"/><path class="cls-1" d="M1480.52,2601.24c-55.37,0-112.12-5-164.74-14.89-86.18-16.23-204.29-53.55-277.52-139.21l-.2-.23L332.4,1569.55a51.8,51.8,0,0,1,10.93-75.08,10,10,0,0,1,11.33,16.41,31.86,31.86,0,0,0-6.72,46.18l705.56,877.23c69.48,81.17,183,116.84,266,132.46,96.74,18.22,207.74,19.41,296.92,3.2L3536.32,2219.5a53.38,53.38,0,0,0,30.08-88.24l-220.73-245a10,10,0,1,1,14.81-13.35l220.73,245.05a73.32,73.32,0,0,1-41.31,121.2L1620,2589.57C1577.1,2597.36,1529.35,2601.24,1480.52,2601.24Z"/><path class="cls-1" d="M908.67,3125c-90.67,0-134.84-60.49-186.53-131.28l-3.17-4.34c-64.89-88.79-521.33-735.18-659.67-931.17a134,134,0,0,1-21.61-104.4,5,5,0,1,1,9.76,2.05,123.94,123.94,0,0,0,20,96.6c138.33,196,594.73,842.31,659.58,931l3.17,4.34c37.08,50.78,69.11,94.64,116.71,115,52.17,22.36,119.22,13.7,211-27.3,36-16.06,74-34.45,114.35-53.92,197.45-95.37,467.87-226,1066.73-379,701.7-179.28,1210.9-260.57,1350.25-281.22,101.32-15,92.29-92.79,91.86-96.09a5,5,0,0,1,9.88-1.33c.13.93,3,23.13-8.06,47.58-10.14,22.5-34.38,51.13-92.22,59.7-139.23,20.63-648,101.85-1349.24,281-597.9,152.76-867.8,283.13-1064.87,378.32-40.38,19.5-78.52,37.92-114.62,54C998.51,3113.07,949,3125,908.67,3125Z"/><path class="cls-1" d="M1108,4050.13a477.81,477.81,0,0,1-141.94-21.55l-1.17-.36a5,5,0,0,1,3-9.53l1.18.37a468,468,0,0,0,239.9,10.08c340.68-75.44,1185.35-267.72,1669.76-423.37,353.19-113.49,563-206.09,676.84-263.8a255.46,255.46,0,0,0,135.24-177.07,5,5,0,1,1,9.76,2A265.4,265.4,0,0,1,3560,3350.86c-114.15,57.87-324.49,150.72-678.3,264.4C2396.91,3771,1551.88,3963.4,1211.07,4038.87A476.65,476.65,0,0,1,1108,4050.13Z"/><path class="cls-1" d="M2767.31,3426.91h-1.1c-98.45-.28-185.86-38.62-246.12-107.94-124.05-142.7-92.68-373.81,69.94-515.17s395.84-140.27,519.89,2.44,92.68,373.81-69.94,515.17C2961.69,3389.47,2864.89,3426.91,2767.31,3426.91Zm-170.74-615.59,6.54,7.52c-154.32,134.15-184.81,352.64-68,487,56.43,64.92,138.52,100.82,231.14,101.08h1c92.78,0,184.92-35.71,259.59-100.62,154.32-134.15,184.81-352.63,68-487s-337.45-134.63-491.77-.48Z"/><path class="cls-1" d="M2733.67,3287.63h-.84c-75.33-.22-142.19-29.52-188.26-82.52s-65.78-123.28-55.51-197.91c10.23-74.37,49.06-144.19,109.32-196.57,124.61-108.32,303.21-107.59,398.13,1.62,46.07,53,65.79,123.28,55.52,197.9-10.24,74.38-49.06,144.19-109.33,196.58C2882.66,3258.92,2808.46,3287.63,2733.67,3287.63Zm73.75-547.82c-69.41,0-142.4,26.1-202.5,78.34-58.44,50.8-96.08,118.43-106,190.41-9.87,71.73,9,139.21,53.17,190s108.34,78.88,180.76,79.09h.81c72.39,0,144.27-27.84,202.49-78.46,58.45-50.8,96.09-118.42,106-190.4,9.87-71.74-9-139.22-53.16-190C2943.23,2766.15,2877.13,2739.81,2807.42,2739.81Z"/><path class="cls-1" d="M1256.26,3527c-26.81,0-52.29-10.18-70-30.51-17.07-19.64-24.38-45.64-20.58-73.22,3.76-27.33,18-53,40.11-72.19h0c45.84-39.84,111.65-39.44,146.71.89s26.3,105.57-19.53,145.41C1310.28,3517.13,1282.63,3527,1256.26,3527Zm26.34-195.6c-24,0-49.36,9.07-70.23,27.2-20.28,17.64-33.35,41.09-36.78,66-3.4,24.68,3.08,47.88,18.23,65.31,31.46,36.19,91,36.15,132.65-.08s50-95.16,18.55-131.35C1329.31,3340.43,1306.59,3331.39,1282.6,3331.39Zm-73.5,23.44h0Z"/><path class="cls-1" d="M1255,3577.15h-.44c-39.86-.11-75.28-15.68-99.75-43.83-50.17-57.71-37.77-150.92,27.64-207.79h0c65.41-56.86,159.45-56.17,209.62,1.55s37.76,150.93-27.65,207.79C1333,3562.14,1294.17,3577.15,1255,3577.15Zm-59.47-236.57c-57.11,49.65-68.63,130.25-25.67,179.66,20.64,23.75,50.74,36.88,84.76,37h.38c34.39,0,68.59-13.27,96.34-37.4,57.12-49.65,68.64-130.24,25.68-179.66s-124.37-49.23-181.49.42Z"/><path class="cls-1" d="M642.71,1636.77c-23.32,0-45.43-5.18-62.25-14.58-19-10.61-29.46-25.61-29.46-42.24,0-6.45,15.51-68.76,18.64-74.92,12.25-24,36.8-35.73,75.06-35.73,36.08,0,59.51,9.58,73.71,30.15,6.42,9.29,18,75.23,18,80.5C736.41,1611.81,695.25,1636.77,642.71,1636.77Zm-71.78-56.54c.32,19.87,33.06,36.6,71.78,36.6,39.26,0,73.7-17.2,73.76-36.82-.28-7-11.13-61.59-14.72-69.59-10.32-14.65-27.94-21.19-57-21.19-39.74,0-51.7,14-57.18,24.64C584.92,1520.49,571.76,1573.14,570.93,1580.23Z"/><path class="cls-1" d="M644.7,1543.07c-30.7,0-52.06-6.23-63.49-18.5-8.57-9.21-8.38-18.36-8.26-20.1l19.89,1.42a2.58,2.58,0,0,0,0-.48c.2,4.93,9.92,17.72,51.84,17.72s51.64-12.79,51.84-17.72a2.58,2.58,0,0,0,0,.48l19.89-1.42c.12,1.74.31,10.89-8.26,20.1C696.76,1536.84,675.4,1543.07,644.7,1543.07Z"/><path class="cls-1" d="M1350.32,2462c-23.32,0-45.43-5.18-62.25-14.58-19-10.61-29.46-25.62-29.46-42.24,0-6.45,15.51-68.76,18.65-74.92,12.25-24.05,36.8-35.74,75-35.74,36.09,0,59.51,9.58,73.71,30.15,6.42,9.3,18,75.24,18,80.51C1444,2437,1402.87,2462,1350.32,2462Zm-71.77-56.54c.31,19.87,33,36.6,71.77,36.6,39.26,0,73.7-17.2,73.77-36.83-.29-6.95-11.14-61.58-14.72-69.59-10.32-14.64-27.95-21.18-57.06-21.18-39.74,0-51.69,14-57.18,24.64C1292.53,2345.68,1279.38,2398.34,1278.55,2405.43Z"/><path class="cls-1" d="M1352.31,2368.26c-30.7,0-52.06-6.22-63.49-18.5-8.56-9.2-8.38-18.35-8.26-20.09l19.89,1.42a2.66,2.66,0,0,0,0-.49c.21,4.93,9.92,17.72,51.84,17.72s51.64-12.79,51.85-17.72a1.86,1.86,0,0,0,0,.49l19.88-1.42c.13,1.74.31,10.89-8.26,20.09C1404.37,2362,1383,2368.26,1352.31,2368.26Z"/><path class="cls-1" d="M2532.27,1325c-23.32,0-45.43-5.18-62.25-14.58-19-10.61-29.46-25.61-29.46-42.24,0-6.45,15.51-68.76,18.65-74.92,12.25-24,36.8-35.73,75.05-35.73,36.09,0,59.51,9.58,73.71,30.15,6.42,9.29,18,75.23,18,80.5,0,16.62-10.87,31.65-30.58,42.31C2578.09,1319.82,2555.67,1325,2532.27,1325Zm-71.77-56.54c.31,19.87,33.05,36.6,71.77,36.6,39.26,0,73.7-17.2,73.77-36.82-.29-7-11.14-61.59-14.72-69.59-10.32-14.65-28-21.19-57.06-21.19-39.74,0-51.69,14-57.18,24.64C2474.48,1208.7,2461.33,1261.35,2460.5,1268.44Zm16.49-66.18,0,0Zm114.55-3.31,0,0Z"/><path class="cls-1" d="M2534.26,1231.27c-30.7,0-52.06-6.22-63.49-18.5-8.56-9.2-8.38-18.35-8.25-20.09l19.88,1.42a2.58,2.58,0,0,0,0-.48c.21,4.92,9.92,17.72,51.84,17.72s51.64-12.8,51.85-17.72a1.81,1.81,0,0,0,0,.48l19.88-1.42c.13,1.74.31,10.89-8.26,20.09C2586.32,1225.05,2565,1231.27,2534.26,1231.27Z"/><path class="cls-1" d="M3239.89,2150.17c-23.32,0-45.43-5.17-62.25-14.57-19-10.62-29.47-25.62-29.47-42.25,0-6.44,15.52-68.76,18.65-74.91,12.25-24,36.8-35.74,75.06-35.74,36.08,0,59.51,9.58,73.71,30.15,6.42,9.3,18,75.24,18,80.5,0,16.63-10.86,31.65-30.58,42.32C3285.7,2145,3263.28,2150.17,3239.89,2150.17Zm-71.78-56.53c.32,19.87,33.06,36.6,71.78,36.6,39.25,0,73.7-17.2,73.76-36.83-.28-6.95-11.14-61.58-14.72-69.59-10.32-14.64-27.94-21.18-57-21.18-39.74,0-51.7,14-57.18,24.63C3182.1,2033.89,3168.94,2086.55,3168.11,2093.64Z"/><path class="cls-1" d="M3241.88,2056.47c-30.7,0-52.06-6.22-63.49-18.5-8.57-9.2-8.38-18.35-8.26-20.09l19.89,1.42a2.3,2.3,0,0,0,0-.49c.21,4.93,9.92,17.72,51.85,17.72s51.64-12.79,51.84-17.72a2.66,2.66,0,0,0,0,.49l19.89-1.42c.12,1.74.31,10.89-8.26,20.09C3293.94,2050.25,3272.58,2056.47,3241.88,2056.47Z"/><path class="cls-1" d="M1446.43,1785.47a10,10,0,0,1-7.56-3.47l-217.22-252.36a10,10,0,0,1,5.95-16.34l851.83-138.89a10,10,0,0,1,8.91,3l232.53,250a10,10,0,0,1-5.7,16.62L1448,1785.34A10.9,10.9,0,0,1,1446.43,1785.47Zm-198.07-255.36,202,234.65,843.25-137.31L2077.37,1395Z"/><path class="cls-1" d="M3186.05,2016.54a2,2,0,0,1-1.66-.89h0a2,2,0,1,1,1.66.89Z"/><path class="cls-1" d="M1309.58,2106.37a143.52,143.52,0,0,1-108.33-49.5L791.06,1587A30.09,30.09,0,0,1,809,1537.65l1507.92-245.86a142.23,142.23,0,0,1,127.27,43.6L2881,1804.93a30.1,30.1,0,0,1-17.2,50.21h0L1332.14,2104.55A140.64,140.64,0,0,1,1309.58,2106.37ZM2340,1299.89a132.93,132.93,0,0,0-21.44,1.74L810.61,1547.49a20.12,20.12,0,0,0-12,33l410.19,469.86a133.35,133.35,0,0,0,121.75,44.37L2862.19,1845.3h0a20.13,20.13,0,0,0,11.5-33.58l-436.8-469.54A132.21,132.21,0,0,0,2340,1299.89Z"/><path class="cls-1" d="M1763.41,1558.15a5,5,0,0,1-5-5v-1014a5,5,0,0,1,10,0v1014A5,5,0,0,1,1763.41,1558.15Z"/><path class="cls-1" d="M1735.3,1551.76a28.11,28.11,0,1,0,28.11-28.1A28.11,28.11,0,0,0,1735.3,1551.76Z"/><path class="cls-1" d="M1885.75,1812c-33.93,0-59.52-12.73-59.52-29.61s25.59-29.61,59.52-29.61,59.52,12.73,59.52,29.61S1919.68,1812,1885.75,1812Zm0-49.25c-23.39,0-49.55,8.4-49.55,19.64s26.16,19.64,49.55,19.64,49.55-8.4,49.55-19.64S1909.14,1762.75,1885.75,1762.75Z"/><path class="cls-1" d="M386.52,4.15h11.32v112h63v10H386.52Z"/><path class="cls-1" d="M475.2,84.37c0-25.2,13.56-43.86,36.69-43.86,25.2,0,36.52,18.66,36.52,43.86,0,25.69-13.24,43.87-36.52,43.87C486.84,128.24,475.2,109.9,475.2,84.37Zm11.32,0c0,21.54,8,35.1,25.53,35.1,16.9,0,24.88-13.56,24.88-35.1s-7.66-35.24-25-35.24C495.46,49.13,486.52,62.84,486.52,84.37Z"/><path class="cls-1" d="M566.91,84.37c0-25.2,13.55-43.86,36.68-43.86,25.21,0,36.53,18.66,36.53,43.86,0,25.69-13.24,43.87-36.53,43.87C578.55,128.24,566.91,109.9,566.91,84.37Zm11.32,0c0,21.54,8,35.1,25.52,35.1,16.91,0,24.89-13.56,24.89-35.1s-7.66-35.24-25-35.24C587.16,49.13,578.23,62.84,578.23,84.37Z"/><path class="cls-1" d="M674.41,126.17H663.25V.48h11.16V85.17l38.12-42.58h13.24L697.06,74l33.49,52.16H717.47L689.56,82.3,674.41,99.05Z"/><path class="cls-1" d="M808.07,126.17H796.9v-75H780.63V42.59H796.9V21.53C796.9,7.18,806,0,820.19,0a39.63,39.63,0,0,1,8.45.8v9.25a33,33,0,0,0-8-.8c-8.61,0-12.6,4-12.6,14.2V42.59h21.21V51.2H808.07Z"/><path class="cls-1" d="M840.45,84.37c0-25.2,13.55-43.86,36.68-43.86,25.2,0,36.53,18.66,36.53,43.86,0,25.69-13.24,43.87-36.53,43.87C852.09,128.24,840.45,109.9,840.45,84.37Zm11.32,0c0,21.54,8,35.1,25.52,35.1,16.91,0,24.88-13.56,24.88-35.1s-7.65-35.24-25-35.24C860.7,49.13,851.77,62.84,851.77,84.37Z"/><path class="cls-1" d="M937.58,42.59H948V60h.32c3.5-9.73,13.71-19,26.32-19H976V52h-2.23c-13.08,0-25,8.61-25,28.39v45.78H937.58Z"/><path class="cls-1" d="M1055.29,17.54V42.59h21.37V51.2h-21.37v54.07c0,8.93,3.83,12.76,13.4,12.76a55.86,55.86,0,0,0,9.57-1v9.25A52.26,52.26,0,0,1,1066,127.6c-16.12,0-21.7-8.61-21.7-21V51.2h-16V42.91H1032c10.69,0,12.92-2.4,12.92-17.71V17.54Z"/><path class="cls-1" d="M1151.47,73.21c0-6.86-.64-13.24-3.67-17.39-2.87-4-7.5-5.9-14-5.9-17.22,0-24.72,12.76-24.72,27v49.29h-11.17V.48H1109V57.26h.32c3.83-9.25,13.08-16.75,27-16.75,18,0,26.16,9.73,26.16,28.87v56.79h-11Z"/><path class="cls-1" d="M1223.08,128.24c-25.52,0-37.16-17.07-37.16-43.23,0-25.36,12.92-44.5,36.68-44.5,24.72,0,33.5,19.78,33.5,39.56v6.86h-59c.64,20.25,8.61,32.54,26.16,32.54,14.67,0,19.62-9.57,21-14.2h10.53C1251.79,118,1239.51,128.24,1223.08,128.24Zm21.85-50.56c-.16-13.08-4.62-28.55-22.33-28.55-15.63,0-23.92,12.12-25.36,29.34h47.69Z"/><path class="cls-1" d="M1320.37,4.15h40.35c34.94,0,60.3,17.22,60.3,59.49s-24.41,62.53-59.34,62.53h-41.31Zm39.4,104.79c22.81,0,37.8-11.64,37.8-44.82,0-31.42-15.15-42.91-36.85-42.91h-18v87.73Z"/><path class="cls-1" d="M1477,128.24c-26.8,0-40.68-17.86-40.68-44.5,0-25.84,14.84-44.66,40.52-44.66,27.91,0,39.24,19.14,39.24,42.9v6.86H1458c1,16.11,7.17,24.56,19.77,24.56,11.49,0,14.84-6.06,16.27-11.16h21.06C1512.41,118.51,1498.85,128.24,1477,128.24Zm17.22-53.75c-.79-12.76-5.74-21.38-17.54-21.38-11,0-17.07,8.46-18.5,22.33h36Z"/><path class="cls-1" d="M1523.73,41.15h21.69l15.15,47.05a170,170,0,0,1,4.63,17.07h.32s1.91-8.45,4.62-17.07l15.47-47.05h20.58l-30,85h-22.33Z"/><path class="cls-1" d="M1620.86,4.63h21.86V24.88h-21.86Zm.16,36.52h21.54v85H1621Z"/><path class="cls-1" d="M1719.11,70c-.79-8.93-5.74-16.11-16.27-16.11-13.87,0-19.3,13.24-19.3,29.51,0,15.31,3.83,29.67,19.14,29.67,12.76,0,16.91-9.57,17.23-17.07h20.74c-1.28,21.37-17.07,32.22-38.13,32.22-26.31,0-41-16.91-41-44.5,0-27,15.63-44.66,41.31-44.66,20.74,0,36.37,9.89,37.33,30.94Z"/><path class="cls-1" d="M1794.55,128.24c-26.79,0-40.67-17.86-40.67-44.5,0-25.84,14.83-44.66,40.51-44.66,27.92,0,39.24,19.14,39.24,42.9v6.86h-58.06c1,16.11,7.18,24.56,19.78,24.56,11.48,0,14.83-6.06,16.27-11.16h21.05C1830,118.51,1816.4,128.24,1794.55,128.24Zm17.23-53.75c-.8-12.76-5.74-21.38-17.55-21.38-11,0-17.06,8.46-18.5,22.33h36Z"/><path class="cls-1" d="M1893,4.15h25.52L1963.14,79a98.19,98.19,0,0,1,7.82,16h.47V4.15h20.42v122h-24.56L1922,50.56a108.42,108.42,0,0,1-8.3-16.11h-.31v91.72H1893Z"/><path class="cls-1" d="M2014.81,65.71c.64-16.26,13.56-26.47,35.09-26.47,25.2,0,34.93,10.37,34.93,33v31.27c0,5.42,1.6,7.49,7.18,7.49v15.47H2086c-12.6,0-18-3.19-20.26-12.92h-.48c-4.94,8.78-13.87,13.72-26.15,13.72-17.39,0-28.07-9.25-28.07-24.88,0-9.73,4.14-16.91,12.75-21.37,8.94-4.63,21.86-5.75,40.2-6.54V70.18c0-11.48-4.47-16.75-14.2-16.75-9.89,0-14,5.59-14.35,12.28Zm49.29,23.61V86.93c-15,.8-23,2.07-27.44,5.26-3,2.08-4.3,5.26-4.3,9.25,0,7,4.62,11.49,12.44,11.49C2054.21,112.93,2064.1,105.91,2064.1,89.32Z"/><path class="cls-1" d="M2109.08,41.15h20.57v14.2h.32c4.31-8.46,13.24-16.11,27.11-16.11,14.68,0,23,6.54,26.16,17.7h.32c3.35-8.29,12.92-17.7,27.92-17.7,18.5,0,28.07,9.73,28.07,30.3v56.63H2218V75.44c0-6.06-.16-11.48-2.71-15.15-2.55-3.51-6.54-4.94-11.64-4.94-12.28,0-18.66,8.13-18.66,21.05v49.77h-21.37V75.44c0-6.06-.32-11.48-2.72-15s-6.54-5.1-11.64-5.1c-12.44,0-18.66,8.13-18.66,20.89v49.93h-21.53Z"/><path class="cls-1" d="M2298.08,128.24c-26.8,0-40.67-17.86-40.67-44.5,0-25.84,14.83-44.66,40.51-44.66,27.91,0,39.24,19.14,39.24,42.9v6.86H2279.1c1,16.11,7.18,24.56,19.78,24.56,11.48,0,14.83-6.06,16.27-11.16h21C2333.49,118.51,2319.93,128.24,2298.08,128.24Zm17.22-53.75c-.79-12.76-5.74-21.38-17.54-21.38-11,0-17.06,8.46-18.5,22.33h36Z"/><path class="cls-1" d="M2399,64.76c.16-13.08,11.48-24.25,30.31-24.25,23.12,0,29.66,12.76,29.66,30.79v36.36c0,7.66,2.24,10.37,8.14,10.53V127h-1.44c-12,0-16.27-5.26-16.9-16.43h-.32c-5.11,10.85-15.32,16.91-28.08,16.91-15.63,0-25.68-8.61-25.68-23.45,0-9.56,4.15-16.42,11.49-20.41,8.29-4.63,22-6.06,42.27-7.18V71.14c0-13.08-4.63-22.17-19.46-22.17-12.76,0-18.82,7.17-19.46,15.79Zm49.29,23.76V85c-20.74,1.28-31.27,2.56-36.53,6.38-3.83,2.72-5.74,6.86-5.74,12.13,0,9.88,6.54,15,16.59,15C2434.61,118.51,2448.33,109.1,2448.33,88.52Z"/><path class="cls-1" d="M2543.23,73.37c0-7-.64-13.4-3.67-17.55-2.87-4-7.5-5.9-14-5.9-17.07,0-24.72,12.6-24.72,27v49.29h-11.17V42.59H2500V57.42h.32c4.47-9.41,13.88-16.91,27.75-16.91,18,0,26.16,9.73,26.16,28.87v56.79h-11Z"/><path class="cls-1" d="M2650.25,126.17h-10.53V111.65h-.48c-4.3,8.61-12.92,16.59-26.47,16.59-16.75,0-35.09-10.05-35.09-43.39,0-28.55,14.35-44.34,35.88-44.34,12.44,0,21.38,6.54,25.2,15.79h.32V.48h11.17Zm-10.85-48c0-15.64-9.25-28.71-24.56-28.71-17.55,0-25.68,14.51-25.68,34.77,0,20.73,7,35.09,24.72,35.09,16.91,0,25.52-13.88,25.52-28.08Z"/><path class="cls-1" d="M2785.66,37.16c-1-9.57-6.86-18.34-20.89-18.34-13.08,0-20.74,7.34-20.74,16.91,0,9.25,4.95,14.51,17.55,16.91L2779.76,56c22.33,4.15,32.06,15.64,32.06,33.5,0,24.72-16.91,39.08-47.37,39.08-29.51,0-46.42-13.56-47.69-37.17h23.12c1.44,11.49,9.42,20.58,25,20.58,17.22,0,23.92-8.45,23.92-18.82,0-9.25-4.94-14.68-18.5-17.23l-17.87-3.35c-20.57-3.83-31.58-15.79-31.58-34,0-20.9,16.27-36.21,44-36.21,29.35,0,42.42,14.36,43.38,34.77Z"/><path class="cls-1" d="M2868.28,128.24c-26.8,0-40.67-17.86-40.67-44.5,0-25.84,14.83-44.66,40.51-44.66,27.91,0,39.24,19.14,39.24,42.9v6.86H2849.3c1,16.11,7.18,24.56,19.77,24.56,11.49,0,14.84-6.06,16.28-11.16h21.05C2903.69,118.51,2890.13,128.24,2868.28,128.24Zm17.22-53.75c-.79-12.76-5.74-21.38-17.54-21.38-11,0-17.07,8.46-18.5,22.33h36Z"/><path class="cls-1" d="M2925.54,41.15h20.25V58.38h.32c4.47-11.49,15.95-18.67,27.76-18.67h1.43v20.1h-4c-15.16,0-24.41,6.38-24.41,22.81v43.55h-21.37Z"/><path class="cls-1" d="M2991.57,4.63h21.85V24.88h-21.85Zm.16,36.52h21.53v85h-21.53Z"/><path class="cls-1" d="M3035.11,65.71c.64-16.26,13.56-26.47,35.09-26.47,25.2,0,34.93,10.37,34.93,33v31.27c0,5.42,1.59,7.49,7.18,7.49v15.47h-6.06c-12.6,0-18-3.19-20.26-12.92h-.48c-4.94,8.78-13.87,13.72-26.16,13.72-17.38,0-28.07-9.25-28.07-24.88,0-9.73,4.15-16.91,12.76-21.37,8.93-4.63,21.85-5.75,40.2-6.54V70.18c0-11.48-4.47-16.75-14.2-16.75-9.89,0-14,5.59-14.36,12.28Zm49.28,23.61V86.93c-15,.8-23,2.07-27.43,5.26-3,2.08-4.31,5.26-4.31,9.25,0,7,4.63,11.49,12.45,11.49C3074.51,112.93,3084.39,105.91,3084.39,89.32Z"/><path class="cls-1" d="M3129.37.48h21.53V126.17h-21.53Z"/><path class="cls-1" d="M448.8,195.54h25.52L519,270.35a96.71,96.71,0,0,1,7.82,15.95h.48V195.54h20.41v122H523.13L477.83,242a107.6,107.6,0,0,1-8.29-16.11h-.32v91.71H448.8Z"/><path class="cls-1" d="M594.26,283.11c0,6.06.32,11.64,2.87,15.15s6.39,5.11,11.49,5.11c12.76,0,19-8.62,19-24.41V232.55H649v85H628.4v-14h-.32c-4.15,8.61-12.92,15.79-26.64,15.79-19,0-28.39-9.25-28.39-29.19V232.55h21.21Z"/><path class="cls-1" d="M673.53,232.55h20.58v14.19h.32c4.3-8.45,13.24-16.1,27.11-16.1,14.68,0,23,6.53,26.16,17.7H748c3.35-8.3,12.92-17.7,27.91-17.7,18.51,0,28.08,9.72,28.08,30.3v56.62H782.47V266.84c0-6.06-.16-11.48-2.71-15.15-2.55-3.51-6.54-4.95-11.64-4.95-12.28,0-18.66,8.14-18.66,21.06v49.76H728.08V266.84c0-6.06-.32-11.48-2.71-15-2.55-3.51-6.54-5.11-11.64-5.11-12.44,0-18.66,8.14-18.66,20.9v49.92H673.53Z"/><path class="cls-1" d="M827.61,191.88h21.53v53.91h.32c4.3-8.3,13.39-15.15,26-15.15,19.14,0,34.13,12.12,34.13,43.86,0,29.67-14.67,45.14-35.57,45.14-12.92,0-21.21-6.38-25.68-14.36H848v12.28H827.61Zm60.29,82.78c0-18-5.43-28.71-19.46-28.71-12,0-19.78,9.89-19.78,24.08v9.09c0,14.52,6.7,25.52,19.94,25.52C881,304.64,887.9,294.27,887.9,274.66Z"/><path class="cls-1" d="M964.45,319.64c-26.79,0-40.67-17.87-40.67-44.5,0-25.84,14.83-44.66,40.51-44.66,27.92,0,39.24,19.13,39.24,42.9v6.86H945.47c1,16.11,7.18,24.56,19.78,24.56,11.48,0,14.83-6.06,16.27-11.16h21.05C999.86,309.91,986.3,319.64,964.45,319.64Zm17.23-53.76c-.8-12.76-5.74-21.37-17.55-21.37-11,0-17.06,8.46-18.5,22.33h36Z"/><path class="cls-1" d="M1021.71,232.55H1042v17.22h.32c4.46-11.48,16-18.66,27.75-18.66h1.44v20.1h-4c-15.15,0-24.41,6.38-24.41,22.81v43.54h-21.37Z"/><path class="cls-1" d="M1126.34,275.77c0-25.2,13.56-43.86,36.69-43.86,25.2,0,36.52,18.66,36.52,43.86,0,25.68-13.24,43.87-36.52,43.87C1138,319.64,1126.34,301.29,1126.34,275.77Zm11.33,0c0,21.54,8,35.09,25.52,35.09,16.9,0,24.88-13.55,24.88-35.09s-7.66-35.25-25-35.25C1146.6,240.52,1137.67,254.24,1137.67,275.77Z"/><path class="cls-1" d="M1277.07,264.77c0-7-.64-13.4-3.67-17.55-2.87-4-7.5-5.9-14-5.9-17.07,0-24.72,12.6-24.72,27v49.28h-11.17V234h10.37v14.84h.32c4.47-9.41,13.88-16.91,27.75-16.91,18,0,26.16,9.73,26.16,28.87v56.78h-11Z"/><path class="cls-1" d="M1376,208.94v25h21.38v8.62H1376v54.07c0,8.93,3.83,12.76,13.4,12.76a55.71,55.71,0,0,0,9.57-1v9.25a52.15,52.15,0,0,1-12.28,1.28c-16.11,0-21.69-8.61-21.69-21.06V242.6h-16v-8.3h3.67c10.68,0,12.92-2.39,12.92-17.7v-7.66Z"/><path class="cls-1" d="M1472.13,264.61c0-6.86-.64-13.24-3.67-17.39-2.87-4-7.49-5.9-14-5.9-17.23,0-24.73,12.76-24.73,27v49.28h-11.16V191.88h11.16v56.78h.32c3.83-9.25,13.08-16.75,27-16.75,18,0,26.16,9.73,26.16,28.87v56.78h-11Z"/><path class="cls-1" d="M1543.75,319.64c-25.53,0-37.17-17.07-37.17-43.23,0-25.36,12.92-44.5,36.69-44.5,24.72,0,33.49,19.78,33.49,39.56v6.85h-59c.63,20.26,8.61,32.54,26.16,32.54,14.67,0,19.61-9.57,21-14.19h10.53C1572.46,309.43,1560.17,319.64,1543.75,319.64Zm21.85-50.57c-.16-13.08-4.63-28.55-22.33-28.55-15.63,0-23.93,12.13-25.36,29.35h47.69Z"/><path class="cls-1" d="M1642.79,191.88H1654v56.46h.16c4.94-10.21,14.51-16.43,27.43-16.43,17.39,0,33.66,11.16,33.66,43.39,0,30.3-16.11,44.34-35.25,44.34a28.6,28.6,0,0,1-26.48-16.43h-.32v14.35h-10.37Zm61.09,83.42c0-19-6.06-34.46-24.56-34.46-17.07,0-25.68,13.56-25.68,27.6v13.08c0,14.67,8,29.18,25.36,29.18C1695.59,310.7,1703.88,297.31,1703.88,275.3Z"/><path class="cls-1" d="M1733.86,275.77c0-25.2,13.56-43.86,36.69-43.86,25.2,0,36.53,18.66,36.53,43.86,0,25.68-13.24,43.87-36.53,43.87C1745.51,319.64,1733.86,301.29,1733.86,275.77Zm11.33,0c0,21.54,8,35.09,25.52,35.09,16.9,0,24.88-13.55,24.88-35.09s-7.66-35.25-25-35.25C1754.12,240.52,1745.19,254.24,1745.19,275.77Z"/><path class="cls-1" d="M1845.35,208.94v25h21.38v8.62h-21.38v54.07c0,8.93,3.83,12.76,13.4,12.76a55.71,55.71,0,0,0,9.57-1v9.25A52.15,52.15,0,0,1,1856,319c-16.11,0-21.69-8.61-21.69-21.06V242.6H1818.4v-8.3h3.67c10.68,0,12.92-2.39,12.92-17.7v-7.66Z"/><path class="cls-1" d="M1903.89,208.94v25h21.37v8.62h-21.37v54.07c0,8.93,3.83,12.76,13.39,12.76a55.9,55.9,0,0,0,9.58-1v9.25a52.3,52.3,0,0,1-12.29,1.28c-16.1,0-21.69-8.61-21.69-21.06V242.6h-16v-8.3h3.67c10.69,0,12.92-2.39,12.92-17.7v-7.66Z"/><path class="cls-1" d="M1941.05,275.77c0-25.2,13.55-43.86,36.68-43.86,25.2,0,36.53,18.66,36.53,43.86,0,25.68-13.24,43.87-36.53,43.87C1952.69,319.64,1941.05,301.29,1941.05,275.77Zm11.32,0c0,21.54,8,35.09,25.52,35.09,16.91,0,24.89-13.55,24.89-35.09s-7.66-35.25-25-35.25C1961.31,240.52,1952.37,254.24,1952.37,275.77Z"/><path class="cls-1" d="M2038.18,234h10.37v14.84h.32c4.3-9.41,13.87-16.91,27.59-16.91,12.92,0,22,5.42,24.88,18h.32c4.15-9.89,14.2-18,28.23-18,17.87,0,26.16,9.73,26.16,28.87v56.78h-11V264.77c0-7-.64-13.4-3.67-17.71-2.87-4-7.5-5.74-14-5.74-17.22,0-24.72,12.6-24.72,27v49.28h-11V264.61c0-6.86-.63-13.24-3.66-17.39-2.88-4-7.34-5.9-13.88-5.9-17.23,0-24.72,12.6-24.72,26.8v49.44h-11.17Z"/><path class="cls-1" d="M2221.76,275.77c0-25.2,13.56-43.86,36.69-43.86,25.2,0,36.52,18.66,36.52,43.86,0,25.68-13.24,43.87-36.52,43.87C2233.41,319.64,2221.76,301.29,2221.76,275.77Zm11.33,0c0,21.54,8,35.09,25.52,35.09,16.9,0,24.88-13.55,24.88-35.09s-7.66-35.25-25-35.25C2242,240.52,2233.09,254.24,2233.09,275.77Z"/><path class="cls-1" d="M2333.89,317.56h-11.17v-75h-16.27V234h16.27v-21c0-14.36,9.1-21.53,23.29-21.53a40.25,40.25,0,0,1,8.45.79v9.26a33,33,0,0,0-8-.8c-8.62,0-12.6,4-12.6,14.19V234h21.21v8.62h-21.21Z"/><path class="cls-1" d="M2406.3,234h11.16l19.3,57.27c2.24,6.69,3.83,12.12,3.83,12.12h.32s1.76-5.74,3.83-12.12L2463.88,234h11l-31.1,90.28c-6.38,18.5-12.44,25-27.75,25a33.27,33.27,0,0,1-9.41-1.43v-9.25a33,33,0,0,0,8.93,1.43c10,0,13.56-5.1,17.23-15.31l2.55-7Z"/><path class="cls-1" d="M2488,275.77c0-25.2,13.56-43.86,36.69-43.86,25.2,0,36.52,18.66,36.52,43.86,0,25.68-13.24,43.87-36.52,43.87C2499.6,319.64,2488,301.29,2488,275.77Zm11.33,0c0,21.54,8,35.09,25.52,35.09,16.9,0,24.88-13.55,24.88-35.09s-7.66-35.25-25-35.25C2508.22,240.52,2499.29,254.24,2499.29,275.77Z"/><path class="cls-1" d="M2595.78,287.42c0,6.69.64,13.08,3.67,17.06,2.87,3.83,7.65,5.91,14.51,5.91,16.11,0,24.09-12.45,24.09-31.27V234h11v83.58h-10.36V302.09h-.32a28.35,28.35,0,0,1-26.8,17.55c-17.86,0-26.8-9.41-26.8-28.55V234h11Z"/><path class="cls-1" d="M2680,234h10.37v17.39h.32c3.51-9.73,13.71-19,26.32-19h1.43v11h-2.23c-13.08,0-25,8.62-25,28.39v45.78H2680Z"/><path class="cls-1" d="M2785.1,195.54h11.32v112h63v10.05H2785.1Z"/><path class="cls-1" d="M2894.68,317.56h-11.33v-122h71.3v10.05h-60v49h54.55v9.89h-54.55Z"/><path class="cls-1" d="M2975.38,234.3c-.16-23.28,16.75-36.68,37-36.68,25.35,0,35.88,15.63,35.88,31.26,0,16.75-7,26.16-25,43.38l-36.84,35.09v.32h63v9.89H2972V308l41-40c15-14.52,23.61-23,23.61-38.6,0-13.4-9.09-22.49-23.93-22.49-13.87,0-26,8.61-26,27.43Z"/><path class="cls-1" d="M3070.92,302.41h15.15v15.15h-15.15Z"/></g></g></svg>