<svg xmlns="http://www.w3.org/2000/svg" viewBox="0 0 3676.69 3995.3"><defs><style>.cls-1{fill:none;stroke:#fff;stroke-linecap:round;stroke-linejoin:round;stroke-width:10px;}.cls-2{fill:#fff;}</style></defs><g id="Layer_2" data-name="Layer 2"><g id="Layer_7" data-name="Layer 7"><path class="cls-1" d="M6083.78,6931.08" transform="translate(-5052.69 -3737.63)"/><path class="cls-2" d="M6260.06,7135.06c-49.88,0-99.59-19.3-138.43-54.81-.17-.16-.34-.32-.51-.5L6076,7032.1a20.39,20.39,0,0,1-4.83-20,9.89,9.89,0,0,1,1.37-2.76l33-46.95a23.32,23.32,0,0,1,16.23-12l122.52-24.46c34.62-6.92,71.79,1.23,102,22.36l74.67,52.24a26.19,26.19,0,0,1,5.33,5q.2.24.36.48l.92,1.28c.11.15.21.3.31.46l25.84,40.73a9.88,9.88,0,0,1,1.35,3.35c2.68,13.18,5.31,44.62-28.12,51.81L6299,7131.06A190.56,190.56,0,0,1,6260.06,7135.06Zm-124.72-69.28c44.23,40.29,103.84,57.41,159.5,45.78l127.85-27.48c9-1.93,16.72-6.53,13.11-26.59l-25.22-39.66a6.64,6.64,0,0,0-1.11-1l-74.68-52.25c-25.75-18-57.34-25-86.64-19.14l-122.52,24.47a3.31,3.31,0,0,0-2.56,1.89,11.7,11.7,0,0,1-.85,1.45l-31.75,45.17Zm-21.28-98.25h0Z" transform="translate(-5052.69 -3737.63)"/><path class="cls-2" d="M6260.05,7051.52c-37.87,0-75.62-14.66-105.12-41.63l-40.36-36.9a21.07,21.07,0,0,1-6.1-9.75,5,5,0,1,1,9.59-2.73,11.2,11.2,0,0,0,3.24,5.12l40.36,36.9c34.84,31.86,81.87,45.4,125.82,36.21l126.85-27.66a5,5,0,0,1,2.12,9.74l-126.89,27.67A144,144,0,0,1,6260.05,7051.52Z" transform="translate(-5052.69 -3737.63)"/><path class="cls-2" d="M5594.73,5971.46a10,10,0,0,1-1.67-19.79L5742.22,5926a10,10,0,1,1,3.37,19.65l-149.16,25.63A10.93,10.93,0,0,1,5594.73,5971.46Z" transform="translate(-5052.69 -3737.63)"/><path class="cls-2" d="M5637.16,6020.68a10,10,0,0,1-1.69-19.79l149.75-26a10,10,0,1,1,3.41,19.64l-149.76,26A10,10,0,0,1,5637.16,6020.68Z" transform="translate(-5052.69 -3737.63)"/><path class="cls-2" d="M5679.58,6069.9a10,10,0,0,1-1.71-19.79l150.35-26.32a10,10,0,1,1,3.44,19.64l-150.35,26.32A10.2,10.2,0,0,1,5679.58,6069.9Z" transform="translate(-5052.69 -3737.63)"/><path class="cls-2" d="M5722,6119.12a10,10,0,0,1-1.72-19.79l150.95-26.67a10,10,0,1,1,3.46,19.63L5723.75,6119A9.5,9.5,0,0,1,5722,6119.12Z" transform="translate(-5052.69 -3737.63)"/><path class="cls-2" d="M5764.43,6168.34a10,10,0,0,1-1.74-19.79l151.54-27a10,10,0,0,1,3.5,19.63l-151.55,27A10.45,10.45,0,0,1,5764.43,6168.34Z" transform="translate(-5052.69 -3737.63)"/><path class="cls-2" d="M5806.85,6217.55a10,10,0,0,1-1.75-19.78l152.14-27.36a10,10,0,0,1,3.52,19.62l-152.14,27.36A9.71,9.71,0,0,1,5806.85,6217.55Z" transform="translate(-5052.69 -3737.63)"/><path class="cls-2" d="M5849.27,6266.77a10,10,0,0,1-1.76-19.78l152.73-27.71a10,10,0,0,1,3.55,19.62l-152.73,27.71A9.93,9.93,0,0,1,5849.27,6266.77Z" transform="translate(-5052.69 -3737.63)"/><path class="cls-2" d="M5891.7,6316a10,10,0,0,1-1.78-19.78l153.32-28.06a10,10,0,0,1,3.59,19.61l-153.33,28.07A10.12,10.12,0,0,1,5891.7,6316Z" transform="translate(-5052.69 -3737.63)"/><path class="cls-2" d="M5934.12,6365.21a10,10,0,0,1-1.8-19.77L6086.25,6317a10,10,0,0,1,3.61,19.61L5935.94,6365A10.28,10.28,0,0,1,5934.12,6365.21Z" transform="translate(-5052.69 -3737.63)"/><path class="cls-2" d="M5976.54,6414.43a10,10,0,0,1-1.81-19.77l154.52-28.76a10,10,0,0,1,3.64,19.6l-154.52,28.76A10.3,10.3,0,0,1,5976.54,6414.43Z" transform="translate(-5052.69 -3737.63)"/><path class="cls-2" d="M6019,6463.65a10,10,0,0,1-1.82-19.77l155.11-29.11a10,10,0,1,1,3.68,19.59l-155.12,29.11A9.74,9.74,0,0,1,6019,6463.65Z" transform="translate(-5052.69 -3737.63)"/><path class="cls-2" d="M6061.39,6512.86a10,10,0,0,1-1.84-19.76l155.71-29.46a10,10,0,0,1,3.7,19.59l-155.71,29.46A9.83,9.83,0,0,1,6061.39,6512.86Z" transform="translate(-5052.69 -3737.63)"/><path class="cls-2" d="M6103.81,6562.08a10,10,0,0,1-1.85-19.76l156.3-29.8a10,10,0,1,1,3.73,19.58l-156.3,29.8A10.05,10.05,0,0,1,6103.81,6562.08Z" transform="translate(-5052.69 -3737.63)"/><path class="cls-2" d="M6146.23,6611.3a10,10,0,0,1-1.87-19.76l156.91-30.15A10,10,0,1,1,6305,6581l-156.9,30.15A10.27,10.27,0,0,1,6146.23,6611.3Z" transform="translate(-5052.69 -3737.63)"/><path class="cls-2" d="M6188.66,6660.52a10,10,0,0,1-1.89-19.76l157.5-30.5a10,10,0,0,1,3.79,19.57l-157.5,30.5A9.56,9.56,0,0,1,6188.66,6660.52Z" transform="translate(-5052.69 -3737.63)"/><path class="cls-2" d="M6231.08,6709.74a10,10,0,0,1-1.9-19.76l158.09-30.85a10,10,0,1,1,3.82,19.57L6233,6709.55A9.69,9.69,0,0,1,6231.08,6709.74Z" transform="translate(-5052.69 -3737.63)"/><path class="cls-2" d="M7195.4,5694.45a10,10,0,0,1-1.47-19.83l126.89-19a10,10,0,1,1,3,19.72l-126.89,19A10.64,10.64,0,0,1,7195.4,5694.45Z" transform="translate(-5052.69 -3737.63)"/><path class="cls-2" d="M7245.47,5739a10,10,0,0,1-1.48-19.83l127.61-19.34a10,10,0,0,1,3,19.72L7247,5738.88A10.93,10.93,0,0,1,7245.47,5739Z" transform="translate(-5052.69 -3737.63)"/><path class="cls-2" d="M7295.54,5783.53a10,10,0,0,1-1.5-19.82L7422.38,5744a10,10,0,0,1,3,19.71l-128.34,19.71A11.22,11.22,0,0,1,7295.54,5783.53Z" transform="translate(-5052.69 -3737.63)"/><path class="cls-2" d="M7345.61,5828.07a10,10,0,0,1-1.52-19.82l129.06-20.08a10,10,0,0,1,3.06,19.7L7347.15,5828A10.08,10.08,0,0,1,7345.61,5828.07Z" transform="translate(-5052.69 -3737.63)"/><path class="cls-2" d="M7395.68,5872.62a10,10,0,0,1-1.53-19.82l129.78-20.45A10,10,0,1,1,7527,5852l-129.78,20.45A9.12,9.12,0,0,1,7395.68,5872.62Z" transform="translate(-5052.69 -3737.63)"/><path class="cls-2" d="M7445.75,5917.16a10,10,0,0,1-1.55-19.82l130.51-20.82a10,10,0,1,1,3.13,19.69L7447.33,5917A9.44,9.44,0,0,1,7445.75,5917.16Z" transform="translate(-5052.69 -3737.63)"/><path class="cls-2" d="M7495.82,5961.7a10,10,0,0,1-1.57-19.81l131.24-21.19a10,10,0,1,1,3.16,19.68l-131.23,21.19A9.68,9.68,0,0,1,7495.82,5961.7Z" transform="translate(-5052.69 -3737.63)"/><path class="cls-2" d="M7545.9,6006.24a10,10,0,0,1-1.59-19.81l131.95-21.56a10,10,0,0,1,3.2,19.68l-131.95,21.56A9.8,9.8,0,0,1,7545.9,6006.24Z" transform="translate(-5052.69 -3737.63)"/><path class="cls-2" d="M7596,6050.78a10,10,0,0,1-1.61-19.8L7727,6009.05a10,10,0,0,1,3.24,19.67l-132.68,21.93A10,10,0,0,1,7596,6050.78Z" transform="translate(-5052.69 -3737.63)"/><path class="cls-2" d="M7646,6095.32a10,10,0,0,1-1.63-19.8l133.41-22.3a10,10,0,0,1,3.27,19.67l-133.4,22.3A10.37,10.37,0,0,1,7646,6095.32Z" transform="translate(-5052.69 -3737.63)"/><path class="cls-2" d="M7696.11,6139.87a10,10,0,0,1-1.64-19.8l134.12-22.67a10,10,0,1,1,3.32,19.65l-134.13,22.68A10.55,10.55,0,0,1,7696.11,6139.87Z" transform="translate(-5052.69 -3737.63)"/><path class="cls-2" d="M7746.18,6184.41a10,10,0,0,1-1.66-19.8l134.85-23a10,10,0,0,1,3.35,19.65l-134.85,23A9.74,9.74,0,0,1,7746.18,6184.41Z" transform="translate(-5052.69 -3737.63)"/><path class="cls-2" d="M7796.25,6229a10,10,0,0,1-1.68-19.8l135.58-23.41a10,10,0,0,1,3.38,19.65L7798,6228.8A10,10,0,0,1,7796.25,6229Z" transform="translate(-5052.69 -3737.63)"/><path class="cls-2" d="M7846.32,6273.49a10,10,0,0,1-1.69-19.79l136.3-23.78a10,10,0,1,1,3.42,19.64l-136.3,23.78A10.2,10.2,0,0,1,7846.32,6273.49Z" transform="translate(-5052.69 -3737.63)"/><path class="cls-2" d="M7896.4,6318a10,10,0,0,1-1.72-19.79l137-24.15a10,10,0,1,1,3.46,19.64l-137,24.15A10.4,10.4,0,0,1,7896.4,6318Z" transform="translate(-5052.69 -3737.63)"/><path class="cls-2" d="M7946.47,6362.57a10,10,0,0,1-1.74-19.78l137.75-24.52a10,10,0,1,1,3.49,19.63l-137.74,24.52A10.55,10.55,0,0,1,7946.47,6362.57Z" transform="translate(-5052.69 -3737.63)"/><path class="cls-2" d="M6490.14,7297.22a10,10,0,0,1-10-9.92l-.5-92.83a10,10,0,0,1,9.92-10h0a10,10,0,0,1,10,9.92l.49,92.83a10,10,0,0,1-9.91,10Z" transform="translate(-5052.69 -3737.63)"/><path class="cls-2" d="M6550.17,7171.55a9.7,9.7,0,0,1,10,9.35c.17,0,.37,15.35.34,15.52l.09,77.16c0,5.34-4.34,10.16-9.68,10.19h-.05a9.69,9.69,0,0,1-9.86-8,10,10,0,0,1-.15-1.34c-.16,0-.36-15.36-.34-15.53l-.08-77.15C6540.41,7176.4,6544.78,7171.58,6550.17,7171.55Z" transform="translate(-5052.69 -3737.63)"/><path class="cls-2" d="M6610.69,7158.65a9.45,9.45,0,0,1,10,8.79c.33.05.64,15.05.59,15.38l-.23,77.15c0,5.17-4.27,10.33-9.44,10.36h-.06a9.45,9.45,0,0,1-10-8.8c-.33,0-.64-15.06-.59-15.39l.23-77.13C6601.16,7163.84,6605.46,7158.67,6610.69,7158.65Z" transform="translate(-5052.69 -3737.63)"/><path class="cls-2" d="M6671.2,7145.74a9.23,9.23,0,0,1,10.08,8.24c.5.07.92,14.75.85,15.25l-.56,77.13c0,5-4.19,10.49-9.2,10.52h-.05a9.24,9.24,0,0,1-9.86-7,10.19,10.19,0,0,1-.22-1.27c-.49-.06-.92-14.75-.85-15.25l.56-77.12C6661.92,7151.27,6666.15,7145.77,6671.2,7145.74Z" transform="translate(-5052.69 -3737.63)"/><path class="cls-2" d="M6731.72,7132.84a9,9,0,0,1,10.11,7.68c.66.09,1.2,14.45,1.11,15.11l-.88,77.11c0,4.84-4.13,10.67-9,10.69h0a9,9,0,0,1-9.87-6.45,9.92,9.92,0,0,1-.25-1.23c-.66-.09-1.2-14.46-1.11-15.12l.88-77.1C6722.68,7138.7,6726.83,7132.87,6731.72,7132.84Z" transform="translate(-5052.69 -3737.63)"/><path class="cls-2" d="M6792.23,7119.94a8.79,8.79,0,0,1,10.16,7.11c.82.11,1.47,14.15,1.36,15l-1.2,77.1c0,4.67-4.06,10.83-8.73,10.86h0a8.8,8.8,0,0,1-9.86-5.94,9,9,0,0,1-.29-1.19c-.83-.11-1.48-14.16-1.37-15l1.21-77.08C6783.43,7126.14,6787.51,7120,6792.23,7119.94Z" transform="translate(-5052.69 -3737.63)"/><path class="cls-2" d="M6852.75,7107a8.6,8.6,0,0,1,10.19,6.56c1,.13,1.76,13.85,1.62,14.84l-1.52,77.08c0,4.51-4,11-8.5,11h0a8.6,8.6,0,0,1-9.87-5.41,8.88,8.88,0,0,1-.32-1.15c-1-.14-1.76-13.86-1.63-14.85l1.53-77.07C6844.19,7113.57,6848.2,7107.06,6852.75,7107Z" transform="translate(-5052.69 -3737.63)"/><path class="cls-2" d="M6913.26,7094.13a8.4,8.4,0,0,1,10.23,6c1.16.15,2,13.55,1.88,14.71l-1.85,77.06c0,4.34-3.91,11.17-8.25,11.2h-.05a8.3,8.3,0,0,1-10.22-6c-1.16-.16-2-13.56-1.88-14.71l1.84-77.05C6904.94,7101,6908.88,7094.15,6913.26,7094.13Z" transform="translate(-5052.69 -3737.63)"/><path class="cls-2" d="M6973.78,7081.23a8.22,8.22,0,0,1,10.26,5.44c1.33.17,2.32,13.25,2.14,14.57l-2.17,77c0,4.17-3.85,11.35-8,11.37h0a8.23,8.23,0,0,1-9.86-4.38,9.11,9.11,0,0,1-.41-1.07c-1.32-.17-2.31-13.25-2.13-14.58l2.17-77C6965.7,7088.44,6969.57,7081.25,6973.78,7081.23Z" transform="translate(-5052.69 -3737.63)"/><path class="cls-2" d="M7034.29,7068.33a8.08,8.08,0,0,1,10.31,4.87c1.49.2,2.59,12.95,2.39,14.44l-2.49,77c0,4-3.78,11.51-7.78,11.53l0,0a8.1,8.1,0,0,1-9.87-3.86,8.62,8.62,0,0,1-.44-1c-1.48-.2-2.59-13-2.39-14.45l2.49-77C7026.45,7075.87,7030.25,7068.35,7034.29,7068.33Z" transform="translate(-5052.69 -3737.63)"/><path class="cls-2" d="M7094.81,7055.42a7.94,7.94,0,0,1,10.34,4.32c1.65.22,2.87,12.65,2.65,14.3l-2.82,77c0,3.83-3.7,11.68-7.54,11.7l0,0a8,8,0,0,1-9.86-3.35,7.56,7.56,0,0,1-.48-1c-1.65-.22-2.87-12.65-2.65-14.31l2.82-77C7087.21,7063.3,7090.93,7055.44,7094.81,7055.42Z" transform="translate(-5052.69 -3737.63)"/><path class="cls-2" d="M7155.33,7042.52a7.81,7.81,0,0,1,10.37,3.76c1.82.24,3.16,12.35,2.91,14.17l-3.14,77c0,3.67-3.63,11.85-7.3,11.87l0,0a7.84,7.84,0,0,1-9.87-2.82,7.29,7.29,0,0,1-.51-1c-1.82-.24-3.15-12.35-2.91-14.17l3.14-77C7148,7050.74,7151.62,7042.54,7155.33,7042.52Z" transform="translate(-5052.69 -3737.63)"/><path class="cls-2" d="M7215.84,7029.62a7.71,7.71,0,0,1,10.42,3.2c2,.26,3.43,12,3.16,14l-3.46,77c0,3.5-3.57,12-7.07,12l0,0a7.73,7.73,0,0,1-9.86-2.31,7.58,7.58,0,0,1-.55-.91c-2-.27-3.43-12.06-3.17-14l3.47-77C7208.72,7038.17,7212.3,7029.64,7215.84,7029.62Z" transform="translate(-5052.69 -3737.63)"/><path class="cls-2" d="M7276.36,7016.72a7.62,7.62,0,0,1,10.45,2.63c2.15.29,3.71,11.75,3.42,13.9l-3.79,77c0,3.34-3.49,12.19-6.83,12.21l0,0a7.66,7.66,0,0,1-9.86-1.78,7.5,7.5,0,0,1-.59-.88c-2.15-.29-3.71-11.75-3.42-13.9l3.78-76.94C7269.47,7025.6,7273,7016.73,7276.36,7016.72Z" transform="translate(-5052.69 -3737.63)"/><path class="cls-2" d="M7336.87,7003.81a7.57,7.57,0,0,1,10.49,2.08c2.32.31,4,11.45,3.68,13.76l-4.11,77c0,3.17-3.42,12.36-6.59,12.37l0,0a7.6,7.6,0,0,1-9.86-1.27,8.53,8.53,0,0,1-.62-.83c-2.32-.31-4-11.46-3.68-13.77l4.11-76.92C7330.23,7013,7333.67,7003.83,7336.87,7003.81Z" transform="translate(-5052.69 -3737.63)"/><path class="cls-2" d="M7397.39,6990.91a7.53,7.53,0,0,1,10.53,1.52c2.48.33,4.26,11.15,3.93,13.63l-4.43,76.93c0,3-3.35,12.52-6.36,12.54l0,0a7.55,7.55,0,0,1-9.86-.74,8.6,8.6,0,0,1-.67-.8c-2.47-.33-4.26-11.15-3.93-13.63l4.43-76.91C7391,7000.47,7394.35,6990.93,7397.39,6990.91Z" transform="translate(-5052.69 -3737.63)"/><path class="cls-2" d="M7457.9,6978a7.5,7.5,0,0,1,10.57,1c2.64.35,4.55,10.84,4.19,13.49l-4.75,76.91c0,2.84-3.29,12.7-6.12,12.71l0,0a7.55,7.55,0,0,1-9.87-.23,8.52,8.52,0,0,1-.7-.76c-2.64-.35-4.54-10.85-4.19-13.5l4.75-76.88C7451.74,6987.91,7455,6978,7457.9,6978Z" transform="translate(-5052.69 -3737.63)"/><path class="cls-2" d="M7518.42,6965.1a7.51,7.51,0,0,1,10.6.4c2.81.38,4.83,10.55,4.45,13.36l-5.08,76.9c0,2.67-3.21,12.86-5.88,12.87l0,0a7.51,7.51,0,0,1-9.86.29,7.07,7.07,0,0,1-.74-.71c-2.81-.38-4.82-10.56-4.45-13.37l5.08-76.86C7512.49,6975.34,7515.72,6965.12,7518.42,6965.1Z" transform="translate(-5052.69 -3737.63)"/><path class="cls-2" d="M7578.93,6952.2a7.53,7.53,0,0,1,10.64-.16c3,.4,5.11,10.25,4.71,13.23l-5.4,76.87c0,2.5-3.14,13-5.64,13l0,0a7.57,7.57,0,0,1-9.87.81,9.62,9.62,0,0,1-.77-.68c-3-.4-5.1-10.25-4.71-13.23l5.4-76.85C7573.25,6962.77,7576.41,6952.22,7578.93,6952.2Z" transform="translate(-5052.69 -3737.63)"/><path class="cls-2" d="M7639.45,6939.3a7.57,7.57,0,0,1,10.68-.72c3.14.42,5.38,9.95,5,13.09l-5.72,76.86c0,2.33-3.07,13.2-5.41,13.21l0,0a7.6,7.6,0,0,1-9.86,1.32,6.89,6.89,0,0,1-.81-.64c-3.14-.42-5.38-9.95-5-13.09l5.72-76.83C7634,6950.21,7637.09,6939.31,7639.45,6939.3Z" transform="translate(-5052.69 -3737.63)"/><path class="cls-2" d="M7700,6926.4a7.63,7.63,0,0,1,10.72-1.28c3.31.44,5.66,9.64,5.22,12.95l-6,76.84c0,2.17-3,13.38-5.16,13.39l0,0a7.66,7.66,0,0,1-9.86,1.85,7.23,7.23,0,0,1-.85-.6c-3.31-.44-5.66-9.65-5.22-13l6-76.81C7694.76,6937.64,7697.77,6926.41,7700,6926.4Z" transform="translate(-5052.69 -3737.63)"/><path class="cls-2" d="M7760.48,6913.49a7.71,7.71,0,0,1,10.75-1.84c3.48.47,6,9.35,5.48,12.82l-6.37,76.83c0,2-2.93,13.54-4.93,13.55l0,0a7.74,7.74,0,0,1-9.86,2.36,6.86,6.86,0,0,1-.88-.56c-3.48-.46-6-9.35-5.48-12.82l6.37-76.8C7755.52,6925.07,7758.46,6913.5,7760.48,6913.49Z" transform="translate(-5052.69 -3737.63)"/><path class="cls-2" d="M7821,6900.59a7.8,7.8,0,0,1,10.79-2.4c3.63.49,6.22,9.05,5.73,12.69l-6.69,76.81c0,1.83-2.86,13.7-4.7,13.71l0,0a7.68,7.68,0,0,1-10.79,2.36c-3.63-.48-6.22-9-5.73-12.68l6.69-76.78C7816.27,6912.51,7819.14,6900.6,7821,6900.59Z" transform="translate(-5052.69 -3737.63)"/><path class="cls-2" d="M7881.51,6887.69a7.93,7.93,0,0,1,10.83-3c3.8.51,6.5,8.74,6,12.55l-7,76.79c0,1.67-2.78,13.88-4.45,13.89l0,0a8,8,0,0,1-9.87,3.4q-.48-.21-1-.48c-3.8-.51-6.5-8.75-6-12.55l7-76.76C7877,6899.94,7879.83,6887.7,7881.51,6887.69Z" transform="translate(-5052.69 -3737.63)"/><path class="cls-2" d="M7942,6874.79a8.06,8.06,0,0,1,10.86-3.52c4,.53,6.78,8.44,6.25,12.41l-7.34,76.78c0,1.5-2.72,14-4.22,14.05l0,0a8.11,8.11,0,0,1-9.86,3.93,9.88,9.88,0,0,1-1-.45c-4-.53-6.78-8.45-6.25-12.42l7.34-76.74C7937.78,6887.37,7940.51,6874.79,7942,6874.79Z" transform="translate(-5052.69 -3737.63)"/><path class="cls-2" d="M8002.54,6861.88a8.24,8.24,0,0,1,10.91-4.08c4.13.56,7.05,8.15,6.5,12.28l-7.66,76.76c0,1.34-2.65,14.22-4,14.23l0,0a8.18,8.18,0,0,1-10.9,4c-4.13-.56-7.06-8.15-6.5-12.29l7.65-76.72C7998.54,6874.81,8001.19,6861.89,8002.54,6861.88Z" transform="translate(-5052.69 -3737.63)"/><path class="cls-2" d="M8063.06,6849a8.39,8.39,0,0,1,10.94-4.64c4.3.58,7.34,7.85,6.76,12.15l-8,76.74c0,1.17-2.57,14.38-3.74,14.39l0,0a8.4,8.4,0,0,1-9.86,5,7.08,7.08,0,0,1-1.07-.36c-4.3-.58-7.34-7.85-6.76-12.15l8-76.7C8059.29,6862.24,8061.88,6849,8063.06,6849Z" transform="translate(-5052.69 -3737.63)"/><path class="cls-2" d="M8123.57,6836.08a8.57,8.57,0,0,1,11-5.2c4.47.59,7.62,7.54,7,12l-8.31,76.72c0,1-2.5,14.56-3.5,14.56l0,.05a8.61,8.61,0,0,1-9.86,5.48,7.78,7.78,0,0,1-1.11-.33c-4.47-.59-7.62-7.54-7-12l8.3-76.69C8120.05,6849.67,8122.56,6836.08,8123.57,6836.08Z" transform="translate(-5052.69 -3737.63)"/><path class="cls-2" d="M8184.09,6823.17a8.78,8.78,0,0,1,11-5.76c4.63.62,7.9,7.25,7.28,11.88l-8.63,76.71c0,.83-2.44,14.72-3.27,14.73v.05a8.8,8.8,0,0,1-9.87,6,9.47,9.47,0,0,1-1.14-.28c-4.63-.62-7.9-7.25-7.28-11.88l8.63-76.67C8180.8,6837.11,8183.25,6823.18,8184.09,6823.17Z" transform="translate(-5052.69 -3737.63)"/><path class="cls-2" d="M8244.6,6810.27a9,9,0,0,1,11.06-6.32c4.79.64,8.17,6.95,7.53,11.74l-9,76.7c0,.66-2.37,14.89-3,14.89v.05a9,9,0,0,1-9.86,6.52,9.52,9.52,0,0,1-1.18-.25c-4.8-.64-8.18-7-7.54-11.74l8.95-76.65C8241.56,6824.54,8243.93,6810.28,8244.6,6810.27Z" transform="translate(-5052.69 -3737.63)"/><path class="cls-2" d="M8305.12,6797.37a9.21,9.21,0,0,1,11.09-6.88c5,.66,8.45,6.65,7.79,11.61l-9.28,76.67c0,.5-2.29,15.06-2.79,15.07v.05a9.24,9.24,0,0,1-9.86,7,8.79,8.79,0,0,1-1.23-.21c-5-.66-8.45-6.64-7.78-11.6l9.27-76.63C8302.31,6812,8304.61,6797.37,8305.12,6797.37Z" transform="translate(-5052.69 -3737.63)"/><path class="cls-2" d="M8365.64,6784.47a9.43,9.43,0,0,1,11.12-7.44c5.13.68,8.73,6.34,8,11.47l-9.6,76.66c0,.33-2.22,15.23-2.56,15.23v0a9.47,9.47,0,0,1-9.86,7.56,10.88,10.88,0,0,1-1.26-.17c-5.12-.69-8.73-6.35-8-11.47l9.59-76.62C8363.07,6799.41,8365.3,6784.47,8365.64,6784.47Z" transform="translate(-5052.69 -3737.63)"/><path class="cls-2" d="M8426.15,6771.56a9.71,9.71,0,0,1,11.17-8c5.29.71,9,6,8.3,11.34l-9.92,76.64c0,.17-2.16,15.4-2.32,15.4v.06a9.71,9.71,0,0,1-9.86,8.07,8.3,8.3,0,0,1-1.3-.13c-5.29-.71-9-6-8.3-11.34l9.91-76.59C8423.82,6786.84,8426,6771.56,8426.15,6771.56Z" transform="translate(-5052.69 -3737.63)"/><path class="cls-2" d="M8484.23,6862.15a10,10,0,0,1-9.89-11.3l12.33-92.19a10,10,0,0,1,19.76,2.64l-12.33,92.2A10,10,0,0,1,8484.23,6862.15Z" transform="translate(-5052.69 -3737.63)"/><path class="cls-2" d="M6488.76,7461.21a10,10,0,0,1-10-9.92l-.49-92.83a10,10,0,0,1,9.91-10h.06a10,10,0,0,1,10,9.92l.5,92.83a10,10,0,0,1-9.92,10Z" transform="translate(-5052.69 -3737.63)"/><path class="cls-2" d="M6538.55,7345.06a9.88,9.88,0,0,1,9.73-9.92h.05a9.78,9.78,0,0,1,9.89,9.55c.16,0,.35,13.09.34,13.25l.14,79.89a10,10,0,0,1-9.91,10h-.05a9.69,9.69,0,0,1-9.7-9.61c-.16,0-.35-13.09-.34-13.26Z" transform="translate(-5052.69 -3737.63)"/><path class="cls-2" d="M6598.81,7331.66a9.8,9.8,0,0,1,9.53-9.82h.05a9.6,9.6,0,0,1,9.81,9.18c.33,0,.64,12.85.61,13.18l-.13,80.28a10,10,0,0,1-9.92,10h-.05a9.42,9.42,0,0,1-9.42-9.32c-.33,0-.64-12.85-.61-13.18Z" transform="translate(-5052.69 -3737.63)"/><path class="cls-2" d="M6659.07,7318.26a9.7,9.7,0,0,1,9.34-9.72h.05a9.41,9.41,0,0,1,9.72,8.81c.5,0,.93,12.61.88,13.1l-.4,80.67a10,10,0,0,1-9.92,9.93h-.05a9.12,9.12,0,0,1-9.14-9c-.5-.05-.93-12.61-.89-13.11Z" transform="translate(-5052.69 -3737.63)"/><path class="cls-2" d="M6719.33,7304.86a9.61,9.61,0,0,1,9.14-9.62h.05a9.23,9.23,0,0,1,9.64,8.44c.67.06,1.22,12.37,1.15,13l-.68,81.06a10,10,0,0,1-9.91,9.9h-.05a8.86,8.86,0,0,1-8.87-8.72c-.67-.06-1.22-12.36-1.15-13Z" transform="translate(-5052.69 -3737.63)"/><path class="cls-2" d="M6779.58,7291.46a9.55,9.55,0,0,1,8.95-9.52h.05a9.06,9.06,0,0,1,9.56,8.07c.83.08,1.5,12.12,1.43,13l-1,81.44a10,10,0,0,1-9.91,9.88h-.05a8.58,8.58,0,0,1-8.6-8.42c-.83-.08-1.5-12.13-1.42-13Z" transform="translate(-5052.69 -3737.63)"/><path class="cls-2" d="M6839.84,7278.06a9.46,9.46,0,0,1,8.76-9.42h0a8.91,8.91,0,0,1,9.48,7.71c1,.09,1.78,11.88,1.69,12.88l-1.23,81.84a10,10,0,0,1-9.92,9.84h0a8.31,8.31,0,0,1-8.33-8.12c-1-.09-1.78-11.88-1.69-12.88Z" transform="translate(-5052.69 -3737.63)"/><path class="cls-2" d="M6900.1,7264.66a9.37,9.37,0,0,1,8.56-9.32h.05a8.75,8.75,0,0,1,9.4,7.34c1.16.11,2.07,11.64,2,12.81l-1.5,82.23a10,10,0,0,1-9.92,9.81h0a8,8,0,0,1-8.06-7.82c-1.16-.11-2.07-11.65-2-12.81Z" transform="translate(-5052.69 -3737.63)"/><path class="cls-2" d="M6960.35,7251.26a9.3,9.3,0,0,1,8.38-9.22h0a8.59,8.59,0,0,1,9.32,7c1.33.13,2.36,11.4,2.23,12.73l-1.78,82.62a10,10,0,0,1-9.91,9.79h-.05a7.76,7.76,0,0,1-7.77-7.53c-1.33-.12-2.36-11.4-2.24-12.73Z" transform="translate(-5052.69 -3737.63)"/><path class="cls-2" d="M7020.61,7237.86a9.22,9.22,0,0,1,8.18-9.12h.05a8.44,8.44,0,0,1,9.23,6.6c1.5.14,2.65,11.16,2.51,12.66l-2.06,83a10,10,0,0,1-9.92,9.75h0a7.47,7.47,0,0,1-7.5-7.22c-1.5-.14-2.65-11.16-2.51-12.66Z" transform="translate(-5052.69 -3737.63)"/><path class="cls-2" d="M7080.87,7224.46a9.16,9.16,0,0,1,8-9h0a8.3,8.3,0,0,1,9.15,6.23c1.66.16,2.93,10.92,2.78,12.58l-2.33,83.4a10,10,0,0,1-9.92,9.73h0a7.21,7.21,0,0,1-7.23-6.93c-1.66-.15-2.93-10.92-2.77-12.58Z" transform="translate(-5052.69 -3737.63)"/><path class="cls-2" d="M7141.12,7211.06a9.11,9.11,0,0,1,7.8-8.92h0A8.17,8.17,0,0,1,7158,7208c1.83.17,3.22,10.68,3.05,12.51l-2.61,83.79a10,10,0,0,1-9.91,9.69h0a6.93,6.93,0,0,1-7-6.62c-1.82-.17-3.21-10.68-3-12.51Z" transform="translate(-5052.69 -3737.63)"/><path class="cls-2" d="M7201.38,7197.66a9.06,9.06,0,0,1,7.6-8.83h.05a8.06,8.06,0,0,1,9,5.49c2,.19,3.5,10.44,3.31,12.43l-2.88,84.19a10,10,0,0,1-9.92,9.66h0a6.66,6.66,0,0,1-6.69-6.33c-2-.18-3.5-10.43-3.31-12.43Z" transform="translate(-5052.69 -3737.63)"/><path class="cls-2" d="M7261.64,7184.26a9,9,0,0,1,7.41-8.73h0a8,8,0,0,1,8.91,5.12c2.16.21,3.79,10.2,3.58,12.36l-3.15,84.57a10,10,0,0,1-9.92,9.64h0a6.37,6.37,0,0,1-6.41-6c-2.16-.2-3.79-10.2-3.59-12.36Z" transform="translate(-5052.69 -3737.63)"/><path class="cls-2" d="M7321.89,7170.86a9,9,0,0,1,7.22-8.63h0A7.85,7.85,0,0,1,7338,7167c2.32.21,4.07,9.95,3.86,12.28l-3.44,85a10,10,0,0,1-9.91,9.6h0a6.1,6.1,0,0,1-6.14-5.73c-2.33-.21-4.08-10-3.86-12.28Z" transform="translate(-5052.69 -3737.63)"/><path class="cls-2" d="M7382.15,7157.46a8.9,8.9,0,0,1,7-8.53h0a7.76,7.76,0,0,1,8.74,4.39c2.49.23,4.36,9.71,4.13,12.2l-3.71,85.35a10,10,0,0,1-9.92,9.58h0a5.83,5.83,0,0,1-5.86-5.43c-2.49-.23-4.36-9.72-4.13-12.21Z" transform="translate(-5052.69 -3737.63)"/><path class="cls-2" d="M7442.41,7144.06a8.85,8.85,0,0,1,6.83-8.43h0a7.71,7.71,0,0,1,8.66,4c2.66.25,4.65,9.47,4.4,12.13l-4,85.74a10,10,0,0,1-9.92,9.54h0a5.55,5.55,0,0,1-5.59-5.13c-2.65-.24-4.64-9.47-4.4-12.13Z" transform="translate(-5052.69 -3737.63)"/><path class="cls-2" d="M7502.67,7130.66a8.79,8.79,0,0,1,6.64-8.33h0a7.66,7.66,0,0,1,8.58,3.66c2.83.26,4.94,9.23,4.67,12.05l-4.26,86.13a10,10,0,0,1-9.91,9.52h0a5.28,5.28,0,0,1-5.32-4.83c-2.82-.26-4.93-9.23-4.66-12.06Z" transform="translate(-5052.69 -3737.63)"/><path class="cls-2" d="M7562.92,7117.26a8.78,8.78,0,0,1,6.45-8.23h0a7.64,7.64,0,0,1,8.5,3.29c3,.28,5.22,9,4.93,12l-4.53,86.52a10,10,0,0,1-9.91,9.49h0a5,5,0,0,1-5-4.53c-3-.29-5.22-9-4.94-12Z" transform="translate(-5052.69 -3737.63)"/><path class="cls-2" d="M7623.18,7103.86a8.75,8.75,0,0,1,6.25-8.13h0a7.63,7.63,0,0,1,8.42,2.92c3.15.29,5.5,8.75,5.21,11.9l-4.81,86.92a10,10,0,0,1-9.92,9.45h0a4.73,4.73,0,0,1-4.77-4.23c-3.16-.3-5.51-8.75-5.21-11.91Z" transform="translate(-5052.69 -3737.63)"/><path class="cls-2" d="M7683.44,7090.46a8.72,8.72,0,0,1,6.06-8h0a7.63,7.63,0,0,1,8.34,2.55c3.32.31,5.79,8.51,5.48,11.83l-5.09,87.3a10,10,0,0,1-9.91,9.43h0a4.46,4.46,0,0,1-4.5-3.93c-3.32-.32-5.79-8.51-5.48-11.84Z" transform="translate(-5052.69 -3737.63)"/><path class="cls-2" d="M7743.69,7077.06a8.74,8.74,0,0,1,5.87-7.93h0a7.65,7.65,0,0,1,8.25,2.18c3.49.33,6.08,8.27,5.75,11.76l-5.36,87.69a10,10,0,0,1-9.91,9.39h0a4.19,4.19,0,0,1-4.22-3.63c-3.49-.33-6.07-8.27-5.75-11.76Z" transform="translate(-5052.69 -3737.63)"/><path class="cls-2" d="M7804,7063.66a8.71,8.71,0,0,1,5.68-7.83h0a7.72,7.72,0,0,1,8.17,1.81c3.66.34,6.37,8,6,11.68l-5.63,88.08a10,10,0,0,1-9.92,9.37h0a3.94,3.94,0,0,1-3.95-3.33c-3.65-.35-6.36-8-6-11.69Z" transform="translate(-5052.69 -3737.63)"/><path class="cls-2" d="M7864.21,7050.26a8.71,8.71,0,0,1,5.48-7.73h0a7.83,7.83,0,0,1,8.1,1.44c3.82.36,6.64,7.79,6.29,11.61L7878.2,7144a10,10,0,0,1-9.92,9.34h0a3.66,3.66,0,0,1-3.67-3c-3.82-.36-6.65-7.78-6.29-11.6Z" transform="translate(-5052.69 -3737.63)"/><path class="cls-2" d="M7924.46,7036.86a8.76,8.76,0,0,1,5.3-7.63h0a7.93,7.93,0,0,1,8,1.07c4,.38,6.93,7.55,6.56,11.53l-6.19,88.87a10,10,0,0,1-9.91,9.3h0a3.4,3.4,0,0,1-3.4-2.73c-4-.38-6.94-7.55-6.56-11.53Z" transform="translate(-5052.69 -3737.63)"/><path class="cls-2" d="M7984.72,7023.46a8.8,8.8,0,0,1,5.1-7.53h0a8,8,0,0,1,7.93.7c4.15.39,7.22,7.31,6.83,11.46l-6.46,89.25a10,10,0,0,1-9.92,9.28h0a3.15,3.15,0,0,1-3.13-2.44c-4.15-.39-7.22-7.3-6.83-11.45Z" transform="translate(-5052.69 -3737.63)"/><path class="cls-2" d="M8045,7010.06a8.83,8.83,0,0,1,4.9-7.43l0,0a8.25,8.25,0,0,1,7.85.34c4.32.41,7.51,7.07,7.1,11.38l-6.73,89.65a10,10,0,0,1-9.92,9.24h0a2.9,2.9,0,0,1-2.86-2.13c-4.32-.41-7.5-7.07-7.1-11.38Z" transform="translate(-5052.69 -3737.63)"/><path class="cls-2" d="M8105.23,6996.66a8.92,8.92,0,0,1,4.72-7.33l0,0a8.45,8.45,0,0,1,7.77,0c4.49.42,7.8,6.83,7.37,11.31l-7,90a10,10,0,0,1-9.91,9.22h0a2.63,2.63,0,0,1-2.58-1.84c-4.49-.42-7.8-6.82-7.38-11.3Z" transform="translate(-5052.69 -3737.63)"/><path class="cls-2" d="M8165.49,6983.26A9,9,0,0,1,8170,6976l0,0a8.66,8.66,0,0,1,7.68-.4c4.65.44,8.08,6.58,7.65,11.24l-7.29,90.42a10,10,0,0,1-9.92,9.19h0a2.41,2.41,0,0,1-2.3-1.54c-4.65-.44-8.08-6.58-7.65-11.23Z" transform="translate(-5052.69 -3737.63)"/><path class="cls-2" d="M8225.75,6969.86a9.09,9.09,0,0,1,4.33-7.13l0,0a8.94,8.94,0,0,1,7.61-.77c4.81.46,8.36,6.34,7.91,11.16l-7.56,90.82a10,10,0,0,1-9.92,9.15h0a2.2,2.2,0,0,1-2-1.24c-4.82-.45-8.37-6.34-7.91-11.15Z" transform="translate(-5052.69 -3737.63)"/><path class="cls-2" d="M8286,6956.46a9.22,9.22,0,0,1,4.13-7l0,0a9.16,9.16,0,0,1,7.53-1.13c5,.46,8.65,6.09,8.18,11.08l-7.84,91.2a10,10,0,0,1-9.91,9.13h0a2,2,0,0,1-1.76-.94c-5-.47-8.65-6.1-8.18-11.08Z" transform="translate(-5052.69 -3737.63)"/><path class="cls-2" d="M8346.26,6943.06a9.39,9.39,0,0,1,3.95-6.93l0,0a9.41,9.41,0,0,1,7.44-1.5c5.15.48,8.94,5.85,8.45,11l-8.11,91.6a10,10,0,0,1-9.91,9.09h0a2,2,0,0,1-1.49-.64c-5.15-.48-8.93-5.85-8.45-11Z" transform="translate(-5052.69 -3737.63)"/><path class="cls-2" d="M8406.52,6929.66a9.66,9.66,0,0,1,3.75-6.84h0a9.7,9.7,0,0,1,7.36-1.87c5.32.49,9.22,5.61,8.73,10.93l-8.39,92a10,10,0,0,1-9.92,9.07h0a2.33,2.33,0,0,1-1.21-.34,10.06,10.06,0,0,1-8.73-10.93Z" transform="translate(-5052.69 -3737.63)"/><path class="cls-2" d="M8468.05,7019.54c-.31,0-.63,0-.94-.05a10,10,0,0,1-9-10.85l8.67-92.38a10,10,0,0,1,19.85,1.86L8478,7010.5A10,10,0,0,1,8468.05,7019.54Z" transform="translate(-5052.69 -3737.63)"/><path class="cls-2" d="M5588.83,6693.5a1.5,1.5,0,0,0,0-3,1.5,1.5,0,0,0,0,3Z" transform="translate(-5052.69 -3737.63)"/><path class="cls-2" d="M6724.34,5957.93a5,5,0,0,1-5-5V4276.78a5,5,0,1,1,10,0V5952.94A5,5,0,0,1,6724.34,5957.93Z" transform="translate(-5052.69 -3737.63)"/><path class="cls-2" d="M6696.23,5951.54a28.11,28.11,0,1,0,28.11-28.11A28.11,28.11,0,0,0,6696.23,5951.54Z" transform="translate(-5052.69 -3737.63)"/><path class="cls-2" d="M5347.45,3741.78h11.32v112h63v10.05h-74.33Z" transform="translate(-5052.69 -3737.63)"/><path class="cls-2" d="M5436.13,3822c0-25.2,13.55-43.86,36.68-43.86,25.2,0,36.53,18.66,36.53,43.86,0,25.68-13.24,43.86-36.53,43.86C5447.77,3865.87,5436.13,3847.53,5436.13,3822Zm11.32,0c0,21.53,8,35.09,25.52,35.09,16.91,0,24.89-13.56,24.89-35.09s-7.66-35.25-25-35.25C5456.39,3786.76,5447.45,3800.48,5447.45,3822Z" transform="translate(-5052.69 -3737.63)"/><path class="cls-2" d="M5527.84,3822c0-25.2,13.55-43.86,36.68-43.86,25.2,0,36.53,18.66,36.53,43.86,0,25.68-13.24,43.86-36.53,43.86C5539.48,3865.87,5527.84,3847.53,5527.84,3822Zm11.32,0c0,21.53,8,35.09,25.52,35.09,16.91,0,24.88-13.56,24.88-35.09s-7.65-35.25-25-35.25C5548.09,3786.76,5539.16,3800.48,5539.16,3822Z" transform="translate(-5052.69 -3737.63)"/><path class="cls-2" d="M5635.34,3863.8h-11.17V3738.11h11.17v84.7l38.12-42.59h13.24L5658,3811.64l33.49,52.16H5678.4l-27.91-43.87-15.15,16.75Z" transform="translate(-5052.69 -3737.63)"/><path class="cls-2" d="M5769,3863.8h-11.17v-75h-16.27v-8.61h16.27v-21.06c0-14.35,9.09-21.53,23.29-21.53a39.63,39.63,0,0,1,8.45.8v9.25a33,33,0,0,0-8-.8c-8.62,0-12.6,4-12.6,14.2v19.14h21.21v8.61H5769Z" transform="translate(-5052.69 -3737.63)"/><path class="cls-2" d="M5801.38,3822c0-25.2,13.55-43.86,36.68-43.86,25.2,0,36.53,18.66,36.53,43.86,0,25.68-13.24,43.86-36.53,43.86C5813,3865.87,5801.38,3847.53,5801.38,3822Zm11.32,0c0,21.53,8,35.09,25.52,35.09,16.91,0,24.88-13.56,24.88-35.09s-7.65-35.25-25-35.25C5821.63,3786.76,5812.7,3800.48,5812.7,3822Z" transform="translate(-5052.69 -3737.63)"/><path class="cls-2" d="M5898.51,3780.22h10.37v17.39h.31c3.51-9.74,13.72-19,26.32-19H5937v11h-2.23c-13.08,0-25.05,8.61-25.05,28.39v45.78h-11.16Z" transform="translate(-5052.69 -3737.63)"/><path class="cls-2" d="M6016.22,3755.18v25h21.37v8.61h-21.37v54.07c0,8.94,3.82,12.77,13.4,12.77a55.86,55.86,0,0,0,9.57-1V3864a52.69,52.69,0,0,1-12.29,1.27c-16.11,0-21.69-8.61-21.69-21.05v-55.35h-15.95v-8.29h3.67c10.69,0,12.92-2.39,12.92-17.71v-7.65Z" transform="translate(-5052.69 -3737.63)"/><path class="cls-2" d="M6112.39,3810.85c0-6.87-.63-13.24-3.66-17.39-2.87-4-7.5-5.9-14-5.9-17.22,0-24.72,12.76-24.72,27v49.29H6058.8V3738.11H6070v56.79h.32c3.82-9.26,13.08-16.75,26.95-16.75,18,0,26.16,9.72,26.16,28.87v56.78h-11Z" transform="translate(-5052.69 -3737.63)"/><path class="cls-2" d="M6184,3865.87c-25.52,0-37.17-17.07-37.17-43.22,0-25.36,12.93-44.5,36.69-44.5,24.72,0,33.5,19.77,33.5,39.55v6.86h-59c.64,20.26,8.61,32.54,26.16,32.54,14.67,0,19.62-9.57,21.05-14.2h10.53C6212.72,3855.67,6200.44,3865.87,6184,3865.87Zm21.85-50.56c-.16-13.08-4.63-28.55-22.33-28.55-15.63,0-23.92,12.12-25.36,29.35h47.69Z" transform="translate(-5052.69 -3737.63)"/><path class="cls-2" d="M6281.3,3741.78h40.35c34.94,0,60.3,17.22,60.3,59.49s-24.41,62.53-59.34,62.53H6281.3Zm39.4,104.79c22.81,0,37.8-11.64,37.8-44.82,0-31.42-15.15-42.91-36.85-42.91h-18v87.73Z" transform="translate(-5052.69 -3737.63)"/><path class="cls-2" d="M6437.93,3865.87c-26.8,0-40.68-17.86-40.68-44.5,0-25.84,14.84-44.66,40.52-44.66,27.91,0,39.23,19.14,39.23,42.91v6.86H6419c.95,16.11,7.17,24.56,19.77,24.56,11.49,0,14.84-6.06,16.27-11.17h21.06C6473.34,3856.14,6459.78,3865.87,6437.93,3865.87Zm17.22-53.75c-.79-12.76-5.74-21.37-17.54-21.37-11,0-17.07,8.45-18.51,22.33h36Z" transform="translate(-5052.69 -3737.63)"/><path class="cls-2" d="M6484.66,3778.79h21.69l15.15,47.05a172.6,172.6,0,0,1,4.63,17.06h.32s1.91-8.45,4.62-17.06l15.47-47.05h20.58l-30,85H6514.8Z" transform="translate(-5052.69 -3737.63)"/><path class="cls-2" d="M6581.79,3742.26h21.85v20.26h-21.85Zm.16,36.53h21.54v85H6582Z" transform="translate(-5052.69 -3737.63)"/><path class="cls-2" d="M6680,3807.66c-.8-8.94-5.74-16.12-16.27-16.12-13.87,0-19.3,13.24-19.3,29.51,0,15.31,3.83,29.67,19.14,29.67,12.76,0,16.91-9.57,17.23-17.07h20.73c-1.27,21.38-17.06,32.22-38.12,32.22-26.31,0-41-16.91-41-44.5,0-26.95,15.63-44.66,41.31-44.66,20.74,0,36.37,9.89,37.33,30.95Z" transform="translate(-5052.69 -3737.63)"/><path class="cls-2" d="M6755.48,3865.87c-26.8,0-40.67-17.86-40.67-44.5,0-25.84,14.83-44.66,40.51-44.66,27.92,0,39.24,19.14,39.24,42.91v6.86H6736.5c1,16.11,7.18,24.56,19.78,24.56,11.48,0,14.83-6.06,16.27-11.17h21.05C6790.89,3856.14,6777.33,3865.87,6755.48,3865.87Zm17.23-53.75c-.8-12.76-5.75-21.37-17.55-21.37-11,0-17.06,8.45-18.5,22.33h36.05Z" transform="translate(-5052.69 -3737.63)"/><path class="cls-2" d="M6853.89,3741.78h25.52l44.66,74.8a97.53,97.53,0,0,1,7.81,16h.48v-90.75h20.42v122h-24.56l-45.3-75.61a106.63,106.63,0,0,1-8.3-16.11h-.32v91.72h-20.41Z" transform="translate(-5052.69 -3737.63)"/><path class="cls-2" d="M6975.74,3803.35c.64-16.27,13.56-26.48,35.09-26.48,25.2,0,34.93,10.37,34.93,33v31.26c0,5.42,1.6,7.49,7.18,7.49v15.48h-6.06c-12.6,0-18-3.19-20.26-12.92h-.48c-4.94,8.77-13.87,13.71-26.15,13.71-17.39,0-28.08-9.24-28.08-24.88,0-9.73,4.15-16.9,12.76-21.37,8.93-4.63,21.85-5.74,40.2-6.54v-4.31c0-11.48-4.47-16.74-14.2-16.74-9.89,0-14,5.58-14.35,12.28ZM7025,3827v-2.39c-15,.8-23,2.08-27.44,5.26-3,2.08-4.3,5.27-4.3,9.26,0,7,4.62,11.48,12.44,11.48C7015.14,3850.56,7025,3843.54,7025,3827Z" transform="translate(-5052.69 -3737.63)"/><path class="cls-2" d="M7070,3778.79h20.58V3793h.32c4.31-8.45,13.24-16.11,27.11-16.11,14.68,0,23,6.54,26.16,17.71h.32c3.35-8.3,12.92-17.71,27.91-17.71,18.51,0,28.08,9.73,28.08,30.31v56.62h-21.54v-50.72c0-6.06-.16-11.49-2.71-15.16-2.55-3.5-6.54-4.94-11.64-4.94-12.28,0-18.66,8.13-18.66,21.05v49.77h-21.37v-50.72c0-6.06-.32-11.49-2.72-15-2.55-3.5-6.54-5.1-11.64-5.1-12.44,0-18.66,8.13-18.66,20.89v49.93H7070Z" transform="translate(-5052.69 -3737.63)"/><path class="cls-2" d="M7259,3865.87c-26.8,0-40.67-17.86-40.67-44.5,0-25.84,14.83-44.66,40.51-44.66,27.91,0,39.24,19.14,39.24,42.91v6.86H7240c1,16.11,7.17,24.56,19.78,24.56,11.48,0,14.83-6.06,16.26-11.17h21.06C7294.42,3856.14,7280.86,3865.87,7259,3865.87Zm17.22-53.75c-.79-12.76-5.74-21.37-17.54-21.37-11,0-17.07,8.45-18.5,22.33h36Z" transform="translate(-5052.69 -3737.63)"/><path class="cls-2" d="M7360,3802.39c.16-13.08,11.48-24.24,30.31-24.24,23.12,0,29.66,12.76,29.66,30.78v36.37c0,7.65,2.23,10.37,8.14,10.52v8.78h-1.44c-12,0-16.27-5.27-16.9-16.43h-.32c-5.11,10.84-15.32,16.9-28.08,16.9-15.63,0-25.68-8.61-25.68-23.44,0-9.57,4.15-16.43,11.49-20.42,8.29-4.63,22-6.06,42.27-7.18v-5.26c0-13.08-4.63-22.17-19.46-22.17-12.76,0-18.83,7.18-19.46,15.79Zm49.29,23.77v-3.51c-20.74,1.28-31.27,2.55-36.53,6.38-3.83,2.71-5.74,6.86-5.74,12.12,0,9.89,6.54,15,16.59,15C7395.54,3856.14,7409.26,3846.73,7409.26,3826.16Z" transform="translate(-5052.69 -3737.63)"/><path class="cls-2" d="M7504.16,3811c0-7-.64-13.39-3.67-17.54-2.87-4-7.5-5.9-14-5.9-17.07,0-24.72,12.6-24.72,27v49.29h-11.17v-83.58h10.37v14.84h.32c4.47-9.42,13.88-16.91,27.75-16.91,18,0,26.16,9.72,26.16,28.87v56.78h-11Z" transform="translate(-5052.69 -3737.63)"/><path class="cls-2" d="M7611.18,3863.8h-10.53v-14.52h-.48c-4.3,8.62-12.92,16.59-26.47,16.59-16.75,0-35.09-10-35.09-43.38,0-28.55,14.35-44.34,35.88-44.34,12.44,0,21.38,6.54,25.2,15.79h.32v-55.83h11.17Zm-10.85-48c0-15.63-9.25-28.71-24.56-28.71-17.55,0-25.68,14.51-25.68,34.77,0,20.74,7,35.09,24.72,35.09,16.91,0,25.52-13.88,25.52-28.07Z" transform="translate(-5052.69 -3737.63)"/><path class="cls-2" d="M7746.59,3774.8c-1-9.57-6.86-18.35-20.89-18.35-13.08,0-20.74,7.34-20.74,16.91,0,9.25,4.95,14.51,17.55,16.91l18.18,3.35c22.33,4.15,32.06,15.63,32.06,33.49,0,24.73-16.91,39.08-47.37,39.08-29.51,0-46.42-13.56-47.69-37.16h23.12c1.44,11.48,9.41,20.57,25,20.57,17.22,0,23.92-8.45,23.92-18.82,0-9.25-4.94-14.67-18.5-17.22l-17.87-3.35c-20.57-3.83-31.58-15.79-31.58-34,0-20.89,16.27-36.2,44-36.2,29.34,0,42.42,14.35,43.38,34.77Z" transform="translate(-5052.69 -3737.63)"/><path class="cls-2" d="M7829.21,3865.87c-26.8,0-40.68-17.86-40.68-44.5,0-25.84,14.84-44.66,40.52-44.66,27.91,0,39.24,19.14,39.24,42.91v6.86h-58.06c1,16.11,7.17,24.56,19.77,24.56,11.49,0,14.84-6.06,16.28-11.17h21.05C7864.62,3856.14,7851.06,3865.87,7829.21,3865.87Zm17.22-53.75c-.79-12.76-5.74-21.37-17.54-21.37-11,0-17.07,8.45-18.5,22.33h36Z" transform="translate(-5052.69 -3737.63)"/><path class="cls-2" d="M7886.47,3778.79h20.25V3796h.32c4.47-11.48,15.95-18.66,27.76-18.66h1.43v20.1h-4c-15.15,0-24.4,6.37-24.4,22.8v43.55h-21.37Z" transform="translate(-5052.69 -3737.63)"/><path class="cls-2" d="M7952.5,3742.26h21.85v20.26H7952.5Zm.16,36.53h21.53v85h-21.53Z" transform="translate(-5052.69 -3737.63)"/><path class="cls-2" d="M7996,3803.35c.64-16.27,13.56-26.48,35.09-26.48,25.2,0,34.93,10.37,34.93,33v31.26c0,5.42,1.59,7.49,7.18,7.49v15.48h-6.06c-12.6,0-18-3.19-20.26-12.92h-.48c-4.94,8.77-13.87,13.71-26.16,13.71-17.38,0-28.07-9.24-28.07-24.88,0-9.73,4.15-16.9,12.76-21.37,8.93-4.63,21.85-5.74,40.19-6.54v-4.31c0-11.48-4.46-16.74-14.19-16.74-9.89,0-14,5.58-14.36,12.28Zm49.28,23.6v-2.39c-15,.8-23,2.08-27.43,5.26-3,2.08-4.31,5.27-4.31,9.26,0,7,4.63,11.48,12.45,11.48C8035.44,3850.56,8045.32,3843.54,8045.32,3827Z" transform="translate(-5052.69 -3737.63)"/><path class="cls-2" d="M8090.3,3738.11h21.53V3863.8H8090.3Z" transform="translate(-5052.69 -3737.63)"/><path class="cls-2" d="M5399.28,3933.18h25.53l44.66,74.8a97.08,97.08,0,0,1,7.81,15.95h.48v-90.75h20.42v122h-24.57l-45.3-75.61a107.6,107.6,0,0,1-8.29-16.11h-.32v91.72h-20.42Z" transform="translate(-5052.69 -3737.63)"/><path class="cls-2" d="M5544.74,4020.74c0,6.07.32,11.65,2.87,15.15s6.39,5.11,11.49,5.11c12.76,0,19-8.61,19-24.4v-46.42h21.37v85h-20.57v-14h-.32c-4.15,8.61-12.92,15.79-26.64,15.79-19,0-28.39-9.25-28.39-29.19v-57.58h21.21Z" transform="translate(-5052.69 -3737.63)"/><path class="cls-2" d="M5624,3970.18h20.58v14.2h.32c4.31-8.46,13.24-16.11,27.11-16.11,14.68,0,23,6.54,26.16,17.7h.32c3.35-8.29,12.92-17.7,27.91-17.7,18.51,0,28.08,9.73,28.08,30.3v56.63H5733v-50.73c0-6.06-.16-11.48-2.71-15.15-2.55-3.51-6.54-4.94-11.64-4.94-12.28,0-18.66,8.13-18.66,21v49.77h-21.37v-50.73c0-6.06-.32-11.48-2.72-15-2.55-3.51-6.54-5.1-11.64-5.1-12.44,0-18.66,8.13-18.66,20.89v49.93H5624Z" transform="translate(-5052.69 -3737.63)"/><path class="cls-2" d="M5778.09,3929.51h21.53v53.91h.32c4.31-8.3,13.4-15.15,26-15.15,19.14,0,34.13,12.12,34.13,43.86,0,29.67-14.67,45.14-35.57,45.14-12.92,0-21.21-6.38-25.68-14.35h-.32v12.28h-20.41Zm60.29,82.78c0-18-5.42-28.71-19.46-28.71-12,0-19.78,9.89-19.78,24.08v9.1c0,14.51,6.7,25.52,19.94,25.52C5831.52,4042.28,5838.38,4031.91,5838.38,4012.29Z" transform="translate(-5052.69 -3737.63)"/><path class="cls-2" d="M5914.93,4057.27c-26.79,0-40.67-17.86-40.67-44.5,0-25.84,14.83-44.66,40.51-44.66,27.92,0,39.24,19.14,39.24,42.91v6.85H5896c1,16.11,7.18,24.57,19.78,24.57,11.49,0,14.83-6.07,16.27-11.17h21.05C5950.34,4047.54,5936.79,4057.27,5914.93,4057.27Zm17.23-53.75c-.8-12.76-5.74-21.37-17.54-21.37-11,0-17.07,8.45-18.51,22.32h36.05Z" transform="translate(-5052.69 -3737.63)"/><path class="cls-2" d="M5972.19,3970.18h20.26v17.23h.32c4.46-11.49,15.95-18.66,27.75-18.66H6022v20.09h-4c-15.15,0-24.4,6.38-24.4,22.81v43.55h-21.38Z" transform="translate(-5052.69 -3737.63)"/><path class="cls-2" d="M6076.82,4013.41c0-25.21,13.56-43.87,36.69-43.87,25.2,0,36.52,18.66,36.52,43.87,0,25.68-13.24,43.86-36.52,43.86C6088.47,4057.27,6076.82,4038.93,6076.82,4013.41Zm11.33,0c0,21.53,8,35.09,25.52,35.09,16.91,0,24.88-13.56,24.88-35.09s-7.65-35.25-25-35.25C6097.08,3978.16,6088.15,3991.87,6088.15,4013.41Z" transform="translate(-5052.69 -3737.63)"/><path class="cls-2" d="M6227.55,4002.4c0-7-.64-13.4-3.67-17.54-2.87-4-7.5-5.91-14-5.91-17.06,0-24.72,12.6-24.72,27v49.29H6174v-83.58h10.37v14.83h.32c4.47-9.41,13.88-16.91,27.76-16.91,18,0,26.15,9.73,26.15,28.87v56.79h-11Z" transform="translate(-5052.69 -3737.63)"/><path class="cls-2" d="M6326.44,3946.57v25h21.37v8.61h-21.37v54.07c0,8.93,3.82,12.76,13.39,12.76a55.71,55.71,0,0,0,9.57-1v9.26a52.54,52.54,0,0,1-12.28,1.27c-16.11,0-21.69-8.61-21.69-21.05v-55.35h-16v-8.29h3.67c10.68,0,12.92-2.4,12.92-17.71v-7.66Z" transform="translate(-5052.69 -3737.63)"/><path class="cls-2" d="M6422.61,4002.24c0-6.86-.64-13.24-3.66-17.38-2.87-4-7.5-5.91-14-5.91-17.23,0-24.72,12.76-24.72,27v49.29H6369V3929.51h11.17v56.78h.32c3.82-9.25,13.07-16.75,26.95-16.75,18,0,26.16,9.73,26.16,28.87v56.79h-11Z" transform="translate(-5052.69 -3737.63)"/><path class="cls-2" d="M6494.23,4057.27c-25.52,0-37.17-17.07-37.17-43.22,0-25.37,12.92-44.51,36.69-44.51,24.72,0,33.49,19.78,33.49,39.56V4016h-59c.64,20.25,8.61,32.54,26.16,32.54,14.67,0,19.62-9.57,21-14.2H6526C6522.94,4047.06,6510.66,4057.27,6494.23,4057.27Zm21.85-50.56c-.16-13.08-4.63-28.55-22.33-28.55-15.63,0-23.93,12.12-25.36,29.34h47.69Z" transform="translate(-5052.69 -3737.63)"/><path class="cls-2" d="M6593.28,3929.51h11.16V3986h.16c4.94-10.21,14.51-16.43,27.43-16.43,17.39,0,33.66,11.17,33.66,43.39,0,30.3-16.11,44.34-35.25,44.34a28.6,28.6,0,0,1-26.48-16.43h-.32v14.36h-10.36Zm61.08,83.42c0-19-6.06-34.45-24.56-34.45-17.07,0-25.68,13.55-25.68,27.59v13.08c0,14.67,8,29.19,25.36,29.19C6646.07,4048.34,6654.36,4034.94,6654.36,4012.93Z" transform="translate(-5052.69 -3737.63)"/><path class="cls-2" d="M6684.35,4013.41c0-25.21,13.55-43.87,36.68-43.87,25.2,0,36.53,18.66,36.53,43.87,0,25.68-13.24,43.86-36.53,43.86C6696,4057.27,6684.35,4038.93,6684.35,4013.41Zm11.32,0c0,21.53,8,35.09,25.52,35.09,16.91,0,24.88-13.56,24.88-35.09s-7.65-35.25-25-35.25C6704.6,3978.16,6695.67,3991.87,6695.67,4013.41Z" transform="translate(-5052.69 -3737.63)"/><path class="cls-2" d="M6795.83,3946.57v25h21.38v8.61h-21.38v54.07c0,8.93,3.83,12.76,13.4,12.76a55.71,55.71,0,0,0,9.57-1v9.26a52.54,52.54,0,0,1-12.28,1.27c-16.11,0-21.69-8.61-21.69-21.05v-55.35h-15.95v-8.29h3.67c10.68,0,12.92-2.4,12.92-17.71v-7.66Z" transform="translate(-5052.69 -3737.63)"/><path class="cls-2" d="M6854.37,3946.57v25h21.37v8.61h-21.37v54.07c0,8.93,3.83,12.76,13.4,12.76a55.86,55.86,0,0,0,9.57-1v9.26a52.65,52.65,0,0,1-12.28,1.27c-16.11,0-21.7-8.61-21.7-21.05v-55.35h-15.95v-8.29h3.67c10.69,0,12.92-2.4,12.92-17.71v-7.66Z" transform="translate(-5052.69 -3737.63)"/><path class="cls-2" d="M6891.53,4013.41c0-25.21,13.56-43.87,36.69-43.87,25.2,0,36.52,18.66,36.52,43.87,0,25.68-13.24,43.86-36.52,43.86C6903.17,4057.27,6891.53,4038.93,6891.53,4013.41Zm11.33,0c0,21.53,8,35.09,25.52,35.09,16.9,0,24.88-13.56,24.88-35.09s-7.66-35.25-25-35.25C6911.79,3978.16,6902.86,3991.87,6902.86,4013.41Z" transform="translate(-5052.69 -3737.63)"/><path class="cls-2" d="M6988.66,3971.62H6999v14.83h.32c4.3-9.41,13.88-16.91,27.59-16.91,12.92,0,22,5.43,24.89,18h.31c4.15-9.89,14.2-18,28.24-18,17.86,0,26.15,9.73,26.15,28.87v56.79h-11v-52.8c0-7-.64-13.4-3.67-17.7-2.87-4-7.5-5.75-14-5.75-17.22,0-24.72,12.6-24.72,27v49.29h-11v-53c0-6.86-.64-13.24-3.67-17.38-2.87-4-7.34-5.91-13.88-5.91-17.23,0-24.72,12.6-24.72,26.8v49.45h-11.17Z" transform="translate(-5052.69 -3737.63)"/><path class="cls-2" d="M7172.25,4013.41c0-25.21,13.55-43.87,36.68-43.87,25.2,0,36.53,18.66,36.53,43.87,0,25.68-13.24,43.86-36.53,43.86C7183.89,4057.27,7172.25,4038.93,7172.25,4013.41Zm11.32,0c0,21.53,8,35.09,25.52,35.09,16.91,0,24.88-13.56,24.88-35.09s-7.65-35.25-25-35.25C7192.5,3978.16,7183.57,3991.87,7183.57,4013.41Z" transform="translate(-5052.69 -3737.63)"/><path class="cls-2" d="M7284.37,4055.2H7273.2v-75h-16.26v-8.61h16.26v-21.06c0-14.35,9.1-21.53,23.29-21.53a39.63,39.63,0,0,1,8.45.8v9.25a33,33,0,0,0-8-.8c-8.61,0-12.6,4-12.6,14.2v19.14h21.21v8.61h-21.21Z" transform="translate(-5052.69 -3737.63)"/><path class="cls-2" d="M7356.78,3971.62H7368l19.3,57.26c2.23,6.7,3.82,12.12,3.82,12.12h.32s1.76-5.74,3.83-12.12l19.14-57.26h11l-31.11,90.27c-6.38,18.51-12.44,25.05-27.75,25.05a33.22,33.22,0,0,1-9.41-1.44v-9.25a32.59,32.59,0,0,0,8.93,1.43c10.05,0,13.56-5.1,17.23-15.31l2.55-7Z" transform="translate(-5052.69 -3737.63)"/><path class="cls-2" d="M7438.44,4013.41c0-25.21,13.56-43.87,36.69-43.87,25.2,0,36.52,18.66,36.52,43.87,0,25.68-13.23,43.86-36.52,43.86C7450.09,4057.27,7438.44,4038.93,7438.44,4013.41Zm11.33,0c0,21.53,8,35.09,25.52,35.09,16.9,0,24.88-13.56,24.88-35.09s-7.66-35.25-25-35.25C7458.7,3978.16,7449.77,3991.87,7449.77,4013.41Z" transform="translate(-5052.69 -3737.63)"/><path class="cls-2" d="M7546.26,4025.05c0,6.7.64,13.08,3.67,17.07,2.87,3.82,7.66,5.9,14.52,5.9,16.11,0,24.08-12.44,24.08-31.26v-45.14h11v83.58h-10.37v-15.47h-.32a28.35,28.35,0,0,1-26.8,17.54c-17.86,0-26.79-9.41-26.79-28.55v-57.1h11Z" transform="translate(-5052.69 -3737.63)"/><path class="cls-2" d="M7630.47,3971.62h10.37V3989h.32c3.51-9.73,13.72-19,26.32-19h1.43v11h-2.23c-13.08,0-25,8.61-25,28.39v45.78h-11.17Z" transform="translate(-5052.69 -3737.63)"/><path class="cls-2" d="M7735.58,3933.18h11.33v112h63v10h-74.33Z" transform="translate(-5052.69 -3737.63)"/><path class="cls-2" d="M7845.16,4055.2h-11.33v-122h71.3v10.05h-60v49h54.55v9.89h-54.55Z" transform="translate(-5052.69 -3737.63)"/><path class="cls-2" d="M7935,3994.59c0,32.69,14.83,53.75,42.26,53.75,23.13,0,32.7-14.68,34.3-28.55h11.32c-1.91,21.85-19.3,38-46.57,38-30.63,0-53.44-19.78-53.44-63.16,0-40.2,23.29-63.33,53.92-63.33,20.73,0,43.38,10,46.09,37H8011.2c-1.76-13.4-11.49-27.75-34.45-27.75C7949.15,3940.52,7935,3963.32,7935,3994.59Z" transform="translate(-5052.69 -3737.63)"/><path class="cls-2" d="M8042.3,4040h15.15v15.16H8042.3Z" transform="translate(-5052.69 -3737.63)"/><path class="cls-2" d="M6263,7137.35c-70.31,0-139.6-33.62-185.77-92.77L5110.81,5824.8a5,5,0,0,1,7.81-6.19L6085.1,7038.42c54.82,70.22,143.5,102.93,225.95,83.35l2356.22-508.23c23.72-5.64,36.16-19.2,49.95-36.35a5,5,0,0,1,7.77,6.24c-14.49,18-28.67,33.45-55.52,39.83L6313.25,7131.49A217.18,217.18,0,0,1,6263,7137.35Z" transform="translate(-5052.69 -3737.63)"/><path class="cls-2" d="M6510,6465.62c-33.93,0-67.58-14.83-91.67-41.34l-440.1-484.42a36.63,36.63,0,0,1-8-36.47,33.29,33.29,0,0,1,26.22-22.17l944.41-162.31c34.88-6,72.36,4.87,100.25,29.07L7556,6194.77c10.93,9.48,15.53,23.75,12,37.22a33.07,33.07,0,0,1-25.87,24.42L6533,6463.3A114.29,114.29,0,0,1,6510,6465.62Zm-510.14-564.75a13.43,13.43,0,0,0-10.75,9c-1.92,5.59-.47,11.79,3.88,16.58l440.1,484.41c24.83,27.33,61.57,39.94,95.9,32.9l1009.18-206.89a13.34,13.34,0,0,0,10.59-9.94,17,17,0,0,0-5.78-17.11L7028.06,5763c-23.42-20.32-54.74-29.48-83.81-24.48Zm-1.69-9.82h0Z" transform="translate(-5052.69 -3737.63)"/><path class="cls-2" d="M5179.93,5879.76c-14.37,0-29.83-4.77-39.56-18.26l-31-37.79a9.87,9.87,0,0,1-1.14-1.72c-11.45-22-6.91-53.72-2.42-69a10,10,0,0,1,19.13,5.62c-3.88,13.18-6.83,38,.54,53.3L5156,5849.1l.43.57c9.56,13.5,30.38,9.71,32.72,9.23l153.48-31.26a31.1,31.1,0,0,0,21.76-18.8c4.23-10.56,2.84-22.5-3.79-32.76l-26.52-41a48.15,48.15,0,0,0-3.34-4.83,10,10,0,0,0-1.61.22,10,10,0,0,1-3.91-19.55c15.08-3,20.69,5.69,25.63,13.37l26.5,41c10,15.53,12.11,34.59,5.56,51a50.85,50.85,0,0,1-35.77,30.82l-.35.08-153.66,31.3A66.73,66.73,0,0,1,5179.93,5879.76Z" transform="translate(-5052.69 -3737.63)"/><path class="cls-2" d="M8529.71,6650.16a10,10,0,0,1-5.18-1.44l-97.38-59.15c-.26-.16-.52-.33-.76-.51-23-17.06-34.43-44.51-29.81-71.65,4.24-24.87,21.13-44.17,45.18-51.62l133.73-41.44a10,10,0,0,1,9,1.62l99.64,76.51c.14.1.27.21.4.32,18.38,15.68,28.09,37.72,26.63,60.46a66.11,66.11,0,0,1-30,51.6,61.24,61.24,0,0,1-21.15,8.46L8531.73,6650A9.88,9.88,0,0,1,8529.71,6650.16Zm-91.8-77.38,93.61,56.86L8656,6603.8a41.51,41.51,0,0,0,14.3-5.63,46.35,46.35,0,0,0,21-36.18c1-16.34-6.05-32.31-19.48-43.86l-95.34-73.21-128.81,39.91c-17,5.26-28.42,18.36-31.42,35.93C8412.9,6540.31,8421.2,6560.2,8437.91,6572.78Z" transform="translate(-5052.69 -3737.63)"/><path class="cls-2" d="M6283,7732.93c-74.9,0-148.57-35.69-197.6-98.5L5117,6394.11a165.5,165.5,0,0,1-36.07-91.61c0-.09,0-.17,0-.25l-27.45-472.58c-1.46-20.75-5.18-74.69,38.6-94l1.75-2.7c15-23.23,35.57-55,76.6-60.52l112-19.75.86-.14c22.12-2.9,40.21,7.12,48.8,18.39l22.48,21.65,1734.1-300.94c2.79-4.81,6.54-11.19,10.44-17.65,16.14-26.77,20.94-33.23,31-35.24l.37-.07,144.3-26c32.4-6.41,67.55,4.05,107.45,32l.28.2,69.75,50.59c3.22,2.26,8.18,6,23.53,37.88,6,12.45,10,21.63,12.11,28.9L8681,6475.06s0,0,0,0c36.06,30.78,54,77.75,46.75,122.66L8661,7091.5c0,.18-.05.36-.08.53a130.42,130.42,0,0,1-98.83,106.27L6336.69,7726.66A232.26,232.26,0,0,1,6283,7732.93ZM5120.7,6299.81a126.07,126.07,0,0,0,27.6,69.61l968.49,1240.47c51.22,65.6,133.91,96.22,210.69,78l2225.44-528.36c36.27-8.61,62.55-36.81,68.64-73.62l66.77-493.74c0-.18,0-.36.08-.54,5.1-31.3-7.62-64.31-33.2-86.15h0L7456.48,5487.87a19.91,19.91,0,0,1-7-15.07c-3-9.56-17.22-38.41-22.52-46.46l-67.74-49.13c-30.53-21.32-55.66-29.64-76.84-25.4l-.36.06-137.51,24.81c-5.66,8.34-16.88,27-25.9,42.87a19.91,19.91,0,0,1-13.92,9.78L5351.39,5733.6a19.91,19.91,0,0,1-17.24-5.28l-31.09-29.95a19.34,19.34,0,0,1-2.76-3.29c-1-1-5.11-3.75-11.5-3l-111.9,19.74c-.3.06-.61.1-.92.14-23,3-35.49,22.26-48.7,42.69q-1.72,2.69-3.42,5.27a20.33,20.33,0,0,1-14.19,11.64l-.21.08c-10.18,3.92-19.19,13.34-16.22,55.39,0,.08,0,.16,0,.25Zm-11.24-528.24-.2,0Zm2343.42-310.09ZM7429,5427.87l.19.13Z" transform="translate(-5052.69 -3737.63)"/><path class="cls-2" d="M8545.72,6571.5a24.9,24.9,0,0,1-13.49-4l-54.34-35-.27-.19c-14-10.4-20.9-25.38-18.4-40.07,2.35-13.75,12.7-24.74,27.7-29.39L8560.8,6440a24.75,24.75,0,0,1,23.48,4.84L8632.5,6486c12.53,10.7,18.41,25.27,15.71,39-2.59,13.18-12.38,23.47-26.86,28.24l-.34.1-69.24,17.46A24.81,24.81,0,0,1,8545.72,6571.5Zm-62.29-47.26,54.2,34.92a14.89,14.89,0,0,0,11.7,1.92l69.07-17.41c10.87-3.63,18.17-11.15,20-20.64,2-10.28-2.5-21-12.41-29.48l-48.21-41.14a14.8,14.8,0,0,0-14.06-2.89l-73.88,22.88c-11.51,3.57-19.09,11.42-20.82,21.54C8467.2,6504.81,8472.57,6516.13,8483.43,6524.24Z" transform="translate(-5052.69 -3737.63)"/><path class="cls-2" d="M5187.38,5802.17a21.94,21.94,0,0,1-19.63-12.69l-13.46-29a40.28,40.28,0,0,1-.62-36.24,37.55,37.55,0,0,1,27-20.41L5285.11,5684h0a21.81,21.81,0,0,1,22.22,9.93l18.73,29.56a38.76,38.76,0,0,1,3.56,35.36,35.08,35.08,0,0,1-24.91,21l-113.52,22A19.68,19.68,0,0,1,5187.38,5802.17Zm101.56-108.61a10.86,10.86,0,0,0-2,.18h0l-104.44,19.83a27.64,27.64,0,0,0-19.91,15c-4.17,8.48-3.94,18.5.63,27.48l13.55,29.22a11.66,11.66,0,0,0,12.5,6.73l113.34-21.94A25.17,25.17,0,0,0,5320.4,5755c3.46-8.44,2.46-18-2.76-26.24l-18.73-29.55A12,12,0,0,0,5288.94,5693.56Zm-2.9-4.71h0Z" transform="translate(-5052.69 -3737.63)"/><path class="cls-2" d="M7283.47,5528.45c-49.76,0-97.22-16.33-130.95-45.85l-48.56-41c-.22-.2-.44-.4-.65-.61a18.61,18.61,0,0,1-4.67-18.9,11.48,11.48,0,0,1,.6-1.44l22.1-43.18a10,10,0,0,1,17.75,9.08l-20.94,40.93,47.37,40c36.07,31.57,89.87,46.24,144.12,39.38l135.64-26.39a15.14,15.14,0,0,0,11.56-20.23l-24.92-36a10,10,0,1,1,16.39-11.35l25.61,37a10.79,10.79,0,0,1,1,1.92,35.12,35.12,0,0,1-25.75,48.22l-136.09,26.47c-.21,0-.42.08-.63.1A227.22,227.22,0,0,1,7283.47,5528.45Z" transform="translate(-5052.69 -3737.63)"/><path class="cls-2" d="M7282.51,5457.34c-36.69,0-71.57-12.49-96.27-35l-44.63-36.83-.19-.16a11.23,11.23,0,0,1-3.36-10.76h0a11.21,11.21,0,0,1,8.72-8.48l118.14-23.59c29.12-5.82,60.38,1.05,85.8,18.83l78,52.13a13.59,13.59,0,0,1,5.72,13.83,12.24,12.24,0,0,1-9.63,9.64l-.25,0-121.09,19A162.44,162.44,0,0,1,7282.51,5457.34Zm-134.42-79.43,44.59,36.8.2.17c27.22,24.89,68,36.58,109.15,31.24l120.8-19a2.27,2.27,0,0,0,1.82-1.87,3.53,3.53,0,0,0-1.59-3.59l-78-52.13c-23.29-16.29-51.77-22.57-78.22-17.29l-118.14,23.59a1.23,1.23,0,0,0-.64,2.05Z" transform="translate(-5052.69 -3737.63)"/></g></g></svg>