<svg width="71" height="10" viewBox="0 0 71 10" fill="none" xmlns="http://www.w3.org/2000/svg">
<circle cx="5" cy="5" r="5" fill="white"/>
<path d="M18.56 5.38848C18.56 7.99848 19.96 9.34848 22.11 9.34848C24.18 9.34848 25.66 7.98848 25.66 5.38848C25.66 2.76848 24.21 1.42848 22.11 1.42848C20.08 1.42848 18.56 2.78848 18.56 5.38848ZM22.1 8.30848C20.81 8.30848 20.06 7.31848 20.06 5.39848C20.06 3.42848 20.85 2.45848 22.1 2.45848C23.33 2.45848 24.17 3.46848 24.17 5.39848C24.17 7.29848 23.36 8.30848 22.1 8.30848ZM29.9827 6.12848H33.0927V5.04848H29.9827V2.63848H33.3127V1.53848H28.5827V9.18848H29.9827V6.12848ZM37.5569 6.12848H40.6669V5.04848H37.5569V2.63848H40.8869V1.53848H36.1569V9.18848H37.5569V6.12848ZM43.7311 9.18848H48.6011V8.06848H45.1311V1.53848H43.7311V9.18848ZM51.3053 9.18848H52.7053V1.53848H51.3053V9.18848ZM55.9401 9.18848H57.2201V3.43848H57.2401C57.2401 3.43848 57.3901 3.83848 57.7601 4.44848L60.6001 9.18848H62.1401V1.53848H60.8601V7.22848H60.8301C60.8301 7.22848 60.6801 6.79848 60.3401 6.22848L57.5401 1.53848H55.9401V9.18848ZM65.3502 9.18848H70.4202V8.09848H66.7502V5.88848H70.1102V4.80848H66.7502V2.63848H70.3402V1.53848H65.3502V9.18848Z" fill="white"/>
</svg>
