<?xml version="1.0" encoding="UTF-8" standalone="no"?>
<svg width="136px" height="16px" viewBox="0 0 136 16" version="1.1" xmlns="http://www.w3.org/2000/svg" xmlns:xlink="http://www.w3.org/1999/xlink">
    <!-- Generator: Sketch 43 (38999) - http://www.bohemiancoding.com/sketch -->
    <title>LF-Logotype</title>
    <desc>Created with Sketch.</desc>
    <defs></defs>
    <g id="Page-1" stroke="none" stroke-width="1" fill="none" fill-rule="evenodd">
        <g id="LF-Logotype" fill="#000000">
            <polygon id="Fill-19" points="39.6870667 15.6342857 41.9328395 15.6342857 41.9328395 9.39479365 48.9440574 9.39479365 48.9440574 15.6342857 51.1522212 15.6342857 51.1522212 0.396190476 48.9440574 0.396190476 48.9440574 7.17422222 41.9328395 7.17422222 41.9328395 0.396190476 39.6870667 0.396190476"></polygon>
            <polygon id="Fill-21" points="59.7251851 15.6342857 62.4460715 15.6342857 62.4460715 2.80457143 66.5803955 2.80457143 66.5803955 0.397079365 55.6479709 0.397079365 55.6479709 2.80457143 59.7251851 2.80457143"></polygon>
            <polygon id="Fill-23" points="1.57409236 14.0994286 1.57409236 0.396190476 0.0435225326 0.396190476 0.0435225326 15.6342857 8.3212879 15.6342857 8.3212879 14.0994286"></polygon>
            <polygon id="Fill-25" points="13.755121 15.6342857 15.2856909 15.6342857 15.2856909 0.396190476 13.755121 0.396190476"></polygon>
            <polygon id="Fill-27" points="79.3578235 9.54015238 79.3578235 6.65177143 74.4727136 6.65177143 74.4727136 3.28453333 80.1801549 3.28453333 80.1801549 0.396152381 71.1950376 0.396152381 71.1950376 15.6342476 74.4727136 15.6342476 74.4727136 9.54015238"></polygon>
            <polygon id="Fill-28" points="128.809082 0.397790476 127.125544 5.45607619 125.442006 0.397790476 118.294661 0.397790476 118.294661 15.6342349 123.305514 15.6342349 123.305514 7.53061587 126.136188 15.6357587 128.115026 15.6357587 130.945701 7.53061587 130.945701 15.6342349 135.956427 15.6342349 135.956427 0.397790476"></polygon>
            <path d="M108.40888,7.26499048 C108.160433,7.26499048 107.180068,7.26613333 106.576299,7.26499048 L106.576299,3.87324444 C107.180068,3.87210159 108.160433,3.87108571 108.40888,3.87108571 C109.240202,3.87108571 109.940589,4.50118095 109.940589,5.55057778 C109.940589,6.59984762 109.240202,7.26499048 108.40888,7.26499048 L108.40888,7.26499048 Z M111.731003,10.0543238 C113.8038,8.91806984 114.165453,6.57927619 114.165453,5.55057778 C114.165453,4.16518095 113.510526,0.403022222 108.901848,0.403022222 C108.767747,0.403022222 102.127554,0.397815873 102.127554,0.397815873 L102.127554,15.6342603 L106.576299,15.6342603 L106.576299,10.6977524 C106.726861,10.6976254 107.074206,10.6974984 107.260351,10.6974984 L109.647569,15.6357841 L114.572314,15.6357841 L111.731003,10.0543238 Z" id="Fill-29"></path>
            <path d="M35.1789832,7.71935238 L35.1789832,8.09903492 C35.1789832,12.3076698 32.6961601,15.9517333 27.7435568,15.9517333 C23.8086741,15.9517333 20.0335978,13.1043683 20.0335978,8.02259048 C20.0335978,2.85535238 24.040406,0.0787174603 27.7435568,0.0787174603 C32.148108,0.0787174603 34.2349609,3.5488127 34.5374786,4.52874921 L32.4938063,4.52874921 C31.7670801,3.24303492 30.4387374,1.8528127 27.7435568,1.8528127 C24.4882942,1.8528127 21.8826406,4.45954286 21.8826406,8.02259048 C21.8826406,11.8037968 24.5186853,14.1418286 27.7435568,14.1418286 C31.6726145,14.1418286 33.2079963,11.0860825 33.2079963,9.4152254 L28.4492626,9.4152254 L28.991743,7.71935238 L35.1789832,7.71935238 Z" id="Fill-30"></path>
            <path d="M90.8482026,11.9978667 C88.7628693,11.9978667 87.0357706,10.4406603 87.0357706,7.99558095 C87.0357706,5.69170794 88.7432417,3.96053333 90.8482026,3.96053333 C92.9531635,3.96053333 94.6607613,5.69170794 94.6607613,7.99558095 C94.6607613,10.4406603 92.9335359,11.9978667 90.8482026,11.9978667 M90.8704894,0.0787555556 C87.1674652,0.0787555556 83.1605304,2.85539048 83.1605304,8.02250159 C83.1605304,13.1044063 86.9356067,15.9517714 90.8704894,15.9517714 C94.8053721,15.9517714 98.580575,13.1044063 98.580575,8.02250159 C98.580575,2.85539048 94.5736402,0.0787555556 90.8704894,0.0787555556" id="Fill-31"></path>
        </g>
    </g>
</svg>